<svg id="Layer_1" data-name="Layer 1" xmlns="http://www.w3.org/2000/svg" viewBox="0 0 50 50"><title>Пивная кружка</title><path d="M48.26,25.81c-.78-.77-1.67-1.3-1.4-1.34a1.92,1.92,0,0,1,2.08.75" style="fill:#e2d3ad"/><path d="M6.23,23.8c-2.38-.89-3.94-6.69-2.06-9.52-2.73-1.76-2.9-10.35,4-10.4Z" style="fill:#fff"/><path d="M37.31,6.09c0-3.63-6.73-5.65-15.65-5.65-9.29,0-15.75,2-15.75,5.65L4.17,41.87c.5,3.75,5.77,6.32,8,7a32.45,32.45,0,0,0,9.5,1.1,32.48,32.48,0,0,0,9.51-1.1c2.19-.71,7.71-3.76,7.71-7.39Z" style="fill:#fff"/><path d="M48.8,14.82c-1.08-2.08-2.82-5.1-9.35-5-.82,0-2.33.43-2.66-.38l1.57,27.06c1.34-.14,5.64-1.16,7.25-2.35a11.47,11.47,0,0,0,4.15-8.56C49.88,20.91,49.87,16.9,48.8,14.82Zm-5.65,11c-.31,1.29-.62,2.64-3.3,3.33-.64.16-1.37.19-1.61-.25l-.33-11.08c.11-.54.93-.76,1.33-.84.83-.17,3.28.06,3.65,1.81A25.54,25.54,0,0,1,43.15,25.85Z" style="fill:#fff"/><path d="M36.14,11.42c.17,2,0,4.45.14,4.64s1.23-.59,2.34-.62,3-.35,4.26.67,2.47,3.78,2.08,8.78a6.52,6.52,0,0,1-6.51,6c-1.3-.12-1.61-1.58-1.58-.78s.42,4.67.42,4.67l1.63-.46,5-.78a22.78,22.78,0,0,0,2.77-3.09,13.29,13.29,0,0,0,1.56-5.55,57.41,57.41,0,0,0-.13-6.16c-.21-1.56-.27-3.37-1.47-4.57s-1.7-2.08-3.8-2.37-4.85-.23-5.77-.3Z" style="fill:#f7ecf4"/><path d="M7.45,30.85c.38,1.51-.23,3.31-1.89,3.31S3.4,32.56,3.77,31.1a9.61,9.61,0,0,1,1.82-3.59A7.19,7.19,0,0,1,7.45,30.85Z" style="fill:#fff"/><path d="M7.34,5.67A8.61,8.61,0,0,0,7.23,7L6.1,40.84c0,3.42,4.8,5.55,6.82,6.22a29,29,0,0,0,8.71,1,29.06,29.06,0,0,0,8.72-1c2-.67,6.82-2.8,6.82-6.22L36,7A8,8,0,0,0,36,5.81" style="fill:#f7ecf4"/><path d="M21.63,48.8a29.12,29.12,0,0,1-8.94-1.07c-1.22-.41-7.31-2.64-7.31-6.89L6.52,7a8.9,8.9,0,0,1,.12-1.46L8,5.78A8.44,8.44,0,0,0,7.94,7L6.81,40.86c0,3.32,5.68,5.31,6.33,5.52a28.57,28.57,0,0,0,8.49,1,28.6,28.6,0,0,0,8.5-1c.64-.21,6.33-2.2,6.33-5.54L35.33,7.05a10.2,10.2,0,0,0-.08-1.14l1.4-.2A9.42,9.42,0,0,1,36.75,7l1.13,33.78c0,4.28-6.09,6.51-7.31,6.92A29,29,0,0,1,21.63,48.8Z" style="fill:#573e34"/><path d="M35.87,13.84C34.17,15.59,28.21,17,21.64,17c-7.57,0-13.76-1.7-14.3-3.86a4.49,4.49,0,0,0,0,.64L6.75,36.71c1.26,2.08,4.72,3.52,7.92,4.59l12.46.57c3.29-1.06,9.39-2.5,9.39-5.16Z" style="fill:#fccf3b"/><path d="M7.34,5.67C7.63,3.61,13,2.05,21.64,1.86,35.1,1.56,36,6,36,6" style="fill:#f7ecf4"/><path d="M35.28,6.16S34.13,2.3,21.66,2.57C12,2.78,8.2,4.64,8,5.77l-1.4-.2c.53-3.81,11.6-4.35,15-4.42,13.68-.31,15,4.22,15.05,4.74Z" style="fill:#573e34"/><path d="M7.32,15.48a10.19,10.19,0,0,0-.38,3.73c3.93,4.93,22,5.28,27.31.79-.27-1.44,0-3-.18-3S10.61,17,7.32,15.48Z" style="fill:#f89f27"/><path d="M36,12.55c0-2.61-6.42-4.72-14.34-4.72S7.3,9.94,7.3,12.55v2.58c0,2.61,6.42,4.72,14.34,4.72S36,17.74,36,15.13Z" style="fill:#fff"/><path d="M37.29,35.44,37.15,34c3.17-.32,5.6-.91,6.5-1.59a8.67,8.67,0,0,0,3.75-7c.11-4.19.13-8.11-.83-10-.84-1.66-2.64-3.8-8.52-3.21H38A2.3,2.3,0,0,1,35.56,11l1.31-.54c.12.29.29.41,1,.41h0c5.05-.5,8.29.81,9.9,4C49,17,48.94,21,48.82,25.51a10,10,0,0,1-4.32,8.06C43,34.71,39.33,35.23,37.29,35.44Z" style="fill:#563d33"/><path d="M38.48,31.41a2.52,2.52,0,0,1-2.15-1l1-.63a1.56,1.56,0,0,0,1.63.49c4-.71,4.55-2.15,5.09-3.69s.37-6.55-.12-8.61c-.41-1.73-3.86-2.17-5.24-2a2.91,2.91,0,0,0-1.75.92l-1.09-.32c.32-1.06,2.1-1.64,2.68-1.72,1.66-.24,5.89.25,6.5,2.84.5,2.08.73,7.42.1,9.21s-1.28,3.65-6,4.47A3.35,3.35,0,0,1,38.48,31.41Z" style="fill:#563d33"/><path d="M44.89,16.82c1.67,2.53,1.27,7.8,1.11,9a7.27,7.27,0,0,1-5.24,6.58A5.06,5.06,0,0,1,37.28,32c-.44-.28-.8-1.19-.19-1.31a2.6,2.6,0,0,1,1.32.28c.46.05,5.57.08,6.23-5.08.74-5.74,0-7.63-.43-8.5-.78-.77-1.43-1.08-1.39-1.35C42.88,15.62,44.25,15.86,44.89,16.82Z" style="fill:#e4d5c0"/><path d="M37.57,12.38c-.49.08-.35.88,0,1,.61.21,3.61-1,7,1.13.6.47,1.23.61,1,0C45,13.27,42.19,11.64,37.57,12.38Z" style="fill:#e4d5c0"/><path d="M30.77,18.91a12.13,12.13,0,0,0,4.3-2.11c.17,2.51.73,18.35.8,20.11.1,2.49-4.57,5-13.79,5,4.24-.75,9.22-2.76,9-5.81C30.88,33.86,30.77,21.21,30.77,18.91Z" style="fill:#f89f27"/><path d="M21.63,48.8a29.12,29.12,0,0,1-8.94-1.07c-1.22-.41-7.31-2.64-7.31-6.89L6.52,7a9.59,9.59,0,0,1,.06-1.07L8,6.11A7,7,0,0,0,7.94,7L6.81,40.86c0,3.32,5.68,5.31,6.33,5.52a28.57,28.57,0,0,0,8.49,1,28.6,28.6,0,0,0,8.5-1c.64-.21,6.33-2.2,6.33-5.54L35.33,7.05a10.2,10.2,0,0,0-.08-1.14l1.4-.2A9.42,9.42,0,0,1,36.75,7l1.13,33.78c0,4.28-6.09,6.51-7.31,6.92A29,29,0,0,1,21.63,48.8Z" style="fill:#563d33"/><path d="M21.63,42.58a29.08,29.08,0,0,1-8.94-1.07c-1-.33-6-2.16-7.1-5.58l1.35-.42c.67,2.14,3.76,3.84,6.2,4.65a28.25,28.25,0,0,0,8.49,1,28.27,28.27,0,0,0,8.5-1c2.42-.8,5.5-2.5,6.19-4.63l1.35.44c-1.1,3.39-6.1,5.21-7.1,5.54A29,29,0,0,1,21.63,42.58Z" style="fill:#563d33"/><path d="M14.47,25.83c-.05,1.61-.08,9.54.82,11.67a5.27,5.27,0,0,0,3.88,3c-3.3.16-10.41-2.19-10.83-4.82S8.15,23.9,8.41,20.5a15.84,15.84,0,0,0,4.77,1.81C14.45,22.61,14.49,25.27,14.47,25.83Z" style="fill:#fde165"/><path d="M10,12.89c.31-2.7,2.26-2.19,2.16-.34-.17,3.31-.47,25.55-.47,26.63,0,4.32,2.84,5.54,3.88,6.19C10.93,45,9.6,43,9.22,39.89,8.91,37.39,9.75,15.18,10,12.89Z" style="fill:#fffdf3"/><circle cx="14.91" cy="25.6" r="1.5" style="fill:#fff"/><circle cx="17.61" cy="22.44" r="0.82" style="fill:#fff"/><circle cx="17.61" cy="29.63" r="0.67" style="fill:#fff"/><path d="M35.94,39.5c-2.66,3.76-10,4.86-16.77,3.9,0,.64,1.06,1.51,1.67,1.69C26.7,46.88,34,43.68,35.26,42.33A2.58,2.58,0,0,0,36,41.19,3.24,3.24,0,0,0,35.94,39.5Z" style="fill:#e4d5c0"/><circle cx="15.84" cy="19.04" r="0.27" style="fill:#fff"/><path d="M38.52,31.54a2.66,2.66,0,0,1-2.31-1.09l1.19-.78a1.53,1.53,0,0,0,1.51.42c3.9-.55,4.39-2,4.91-3.45l.06-.17c.49-1.41.34-6.48-.14-8.5-.38-1.62-3.78-2-5.08-1.87a2.94,2.94,0,0,0-1.63.82l-1.36-.4c.34-1.14,2.16-1.74,2.79-1.82,1.7-.24,6,.27,6.66,2.94.5,2.1.73,7.49.1,9.3l-.06.17c-.58,1.65-1.3,3.72-6,4.39A4,4,0,0,1,38.52,31.54Z" style="fill:#563d33"/><path d="M21.64,10.76C14.41,10.76,6.73,9.1,6.73,6s7.68-4.73,14.91-4.73S36.55,3,36.55,6,28.87,10.76,21.64,10.76Zm0-8.33C13.11,2.43,7.87,4.52,7.87,6s5.24,3.6,13.77,3.6S35.41,7.53,35.41,6,30.17,2.43,21.64,2.43Z" style="fill:#563d33"/><path d="M7.82,6.67c-.33,1,.26.93.54.68,1.39-1.2,6.83-3.42,15.83-2.86.71,0,1.38-.77.11-.9C18.15,3,8.55,4.51,7.82,6.67Z" style="fill:#e4d5c0"/><circle cx="13.47" cy="13.62" r="0.53" style="fill:#f9edc2"/><circle cx="30.12" cy="8.88" r="1.17" style="fill:#fff"/><path d="M21.64,10.9c-7.48,0-15-1.67-15-4.88s7.57-4.87,15.05-4.87,15,1.67,15,4.87S29.12,10.9,21.64,10.9Zm0-8.33C13.32,2.57,8,4.62,8,6s5.31,3.46,13.63,3.46S35.27,7.43,35.27,6,30,2.57,21.64,2.57Z" style="fill:#563d33"/><path d="M12.68,7.66A4.79,4.79,0,0,0,5.91,6.09c-2.27,1.74-2.49,6,0,7.8-1.74,2.7-.57,8.83,2.2,8.83,1.28,0,2-1.73,2.11-2.87,2.71-.4,2.28-3.94,2.71-5.05,1.22,0,2.64-.16,3.18-2.67,1.6,1,3.69.63,3.69-2C19.61,6.82,13.78,9.64,12.68,7.66Z" style="fill:#fff"/><path d="M8.11,23.43a3.24,3.24,0,0,1-2.76-1.95A9.13,9.13,0,0,1,5,14.07a5.36,5.36,0,0,1-1.6-3.87A5.76,5.76,0,0,1,5.48,5.53a5.43,5.43,0,0,1,4.27-.82,5.23,5.23,0,0,1,3.55,2.6h0c.27.49,1.54.44,2.65.4,1.86-.07,4.41-.16,4.56,2.41A3,3,0,0,1,19.13,13a3.1,3.1,0,0,1-2.56.13,3.26,3.26,0,0,1-3.08,2.37c0,.18-.05.39-.08.6-.18,1.42-.48,3.73-2.57,4.35C10.51,22,9.57,23.43,8.11,23.43ZM8.55,6a3.77,3.77,0,0,0-2.21.65,4.31,4.31,0,0,0-1.5,3.51,3.81,3.81,0,0,0,1.48,3.14.71.71,0,0,1,.19,1c-1,1.52-.94,4.62.09,6.52.3.55.81,1.21,1.51,1.21s1.29-1.3,1.41-2.25a.71.71,0,0,1,.6-.61c1.38-.2,1.66-1.53,1.88-3.24a6.25,6.25,0,0,1,.27-1.37.72.72,0,0,1,.66-.45c1,0,2,0,2.49-2.11a.71.71,0,0,1,1.06-.46,2,2,0,0,0,1.95.23,1.78,1.78,0,0,0,.66-1.59c-.06-1-.82-1.11-3.09-1-1.6.06-3.25.12-3.94-1.12h0A3.8,3.8,0,0,0,9.46,6.1,4.76,4.76,0,0,0,8.55,6Z" style="fill:#573e34"/><path d="M9.15,30.85c.38,1.51-.23,3.31-1.89,3.31S5.1,32.56,5.47,31.1a9.61,9.61,0,0,1,1.82-3.59A7.1,7.1,0,0,1,9.15,30.85Z" style="fill:#fff"/><path d="M7.26,34.87a2.45,2.45,0,0,1-2-.93,3.51,3.51,0,0,1-.5-3,10.37,10.37,0,0,1,2-3.86.72.72,0,0,1,.52-.27.71.71,0,0,1,.54.2,7.76,7.76,0,0,1,2.05,3.67h0a3.8,3.8,0,0,1-.55,3.23A2.51,2.51,0,0,1,7.26,34.87Zm.08-6.22a8.46,8.46,0,0,0-1.18,2.63,2.14,2.14,0,0,0,.24,1.78,1,1,0,0,0,.86.39A1.07,1.07,0,0,0,8.17,33a2.43,2.43,0,0,0,.29-2h0A6.31,6.31,0,0,0,7.34,28.65Z" style="fill:#573e34"/><path d="M13.47,9c.53-.11,3.84-.71,4.8.74.52.77-.12,2.5-3,1,.42,1.42-.94,2.69-3.26,2.91,0,1.3-.36,4.88-2.81,4.1a2.15,2.15,0,0,1-1,2.78c-1.46.27-3.76-3.81.29-6.66-.9.18-2.24.07-2.74.51-2.7,2.4.53,8.33,2.06,8.33,1.81-.05,2.16-1.79,2.45-2.51,1.43-.44,2.88-3.62,2.76-5.37,1.38-.18,3.06-.56,3.18-2.67,1.93.69,3.67.64,3.06-3.27C17.3,8.05,13.93,8.47,13.47,9Z" style="fill:#e2d3af"/><path d="M8.4,13.84c-1.34.28-3.87-1.3-3.68-4.42C2.69,12.15,5.59,16,8.4,13.84Z" style="fill:#e2d3af"/><path d="M12.11,13.84c2-.53,2.94-1.35,3.11-3.13,1.19,2.22.67,2.3.62,2.38S13.41,15.14,12.11,13.84Z" style="fill:#e2d3af"/><path d="M8.11,23.43a3.24,3.24,0,0,1-2.76-1.95A9.13,9.13,0,0,1,5,14.07a5.36,5.36,0,0,1-1.6-3.87A5.76,5.76,0,0,1,5.48,5.53a5.43,5.43,0,0,1,4.27-.82,5.23,5.23,0,0,1,3.55,2.6h0c.27.49,1.54.44,2.65.4,1.86-.07,4.41-.16,4.56,2.41A3,3,0,0,1,19.13,13a3.1,3.1,0,0,1-2.56.13,3.26,3.26,0,0,1-3.08,2.37c0,.18-.05.39-.08.6-.18,1.42-.48,3.73-2.57,4.35C10.51,22,9.57,23.43,8.11,23.43ZM8.55,6a3.77,3.77,0,0,0-2.21.65,4.31,4.31,0,0,0-1.5,3.51,3.81,3.81,0,0,0,1.48,3.14.71.71,0,0,1,.19,1c-1,1.52-.94,4.62.09,6.52.3.55.81,1.21,1.51,1.21s1.29-1.3,1.41-2.25a.71.71,0,0,1,.6-.61c1.38-.2,1.66-1.53,1.88-3.24a6.25,6.25,0,0,1,.27-1.37.72.72,0,0,1,.66-.45c1,0,2,0,2.49-2.11a.71.71,0,0,1,1.06-.46,2,2,0,0,0,1.95.23,1.78,1.78,0,0,0,.66-1.59c-.06-1-.82-1.11-3.09-1-1.6.06-3.25.12-3.94-1.12h0A3.8,3.8,0,0,0,9.46,6.1,4.76,4.76,0,0,0,8.55,6Z" style="fill:#573e34"/><circle cx="29.28" cy="13.58" r="0.53" style="fill:#f9edc2"/><circle cx="30.66" cy="15.74" r="0.84" style="fill:#f9edc2"/><path d="M45.54,16.27c2,1.51,3.05,12.79-1.59,15.06C47.17,28.63,47.21,19.63,45.54,16.27Z" style="fill:#fffdf3"/></svg>
