<svg id="Layer_1" data-name="Layer 1" xmlns="http://www.w3.org/2000/svg" viewBox="0 0 50 50"><title>Пивная кружка</title><path d="M16,46.38c0-.2-.18-.29-.18-.5,0-1.62-1.38-1.89-2.46-1.89a1.45,1.45,0,0,0-.86.3,5.12,5.12,0,0,0-2.8-2.11c-2.19-.7-4.25.17-4.61,1.94S6.24,47.9,8.43,48.6a6.16,6.16,0,0,0,.8.19c.26.59.85.81,1.62,1.06a2.33,2.33,0,0,0,2.31-.33c.32.28,1.11.11,1.16-.15a1.61,1.61,0,0,0,2.12-.79C16.71,47.91,16.74,46.75,16,46.38Z" style="fill:#fff"/><path d="M36.51,5.43C36.51,2,30,0,21.48,0,12.56,0,6.35,2,6.35,5.43L4.68,39.8c.48,3.6,5.54,6.07,7.65,6.75a30.58,30.58,0,0,0,9.12,1.05,30.61,30.61,0,0,0,9.13-1.05c2.11-.68,7.41-3.61,7.41-7.1Z" style="fill:#fff"/><path d="M47.54,13.81c-1-2-2.71-4.89-9-4.76-.78,0-2.23.42-2.55-.36l1.51,26c1.29-.13,5.42-1.11,7-2.25a11,11,0,0,0,4-8.22C48.59,19.66,48.57,15.81,47.54,13.81Zm-5.42,10.6c-.3,1.24-.6,2.54-3.17,3.2-.61.15-1.31.18-1.54-.24l-.32-10.65c.1-.51.89-.72,1.27-.8.8-.17,3.16.06,3.51,1.73A24.76,24.76,0,0,1,42.12,24.41Z" style="fill:#fff"/><path d="M35.59,10.47c.17,1.91,0,4.27.14,4.46s1.18-.57,2.24-.6,2.86-.34,4.1.65,2.37,3.63,2,8.43a6.26,6.26,0,0,1-6.25,5.75c-1.25-.12-1.55-1.52-1.52-.75s.4,4.49.4,4.49l1.57-.45L43,31.7a21.85,21.85,0,0,0,2.66-3,12.76,12.76,0,0,0,1.5-5.33,55.5,55.5,0,0,0-.13-5.92c-.2-1.5-.25-3.24-1.4-4.39S44,11.1,42,10.83s-4.67-.23-5.55-.3Z" style="fill:#f7ecf4"/><path d="M7.73,5a7.86,7.86,0,0,0-.11,1.3L6.53,38.81c0,3.28,4.62,5.32,6.55,6a27.43,27.43,0,0,0,8.37,1,27.46,27.46,0,0,0,8.38-1c1.93-.65,6.55-2.69,6.55-6L35.29,6.33a7.49,7.49,0,0,0-.09-1.17" style="fill:#f7ecf4"/><path d="M21.46,46.45a28.28,28.28,0,0,1-8.59-1c-1.18-.39-7-2.55-7-6.62L6.94,6.31a9.2,9.2,0,0,1,.11-1.39l1.35.22a7.64,7.64,0,0,0-.1,1.19L7.21,38.83c0,3.18,5.46,5.09,6.09,5.3a27.56,27.56,0,0,0,8.16,1,27.53,27.53,0,0,0,8.15-1c.62-.21,6.09-2.12,6.09-5.32L34.6,6.36a7.54,7.54,0,0,0-.07-1.1l1.35-.2A8.83,8.83,0,0,1,36,6.33l1.09,32.45c0,4.1-5.85,6.26-7,6.65A28.29,28.29,0,0,1,21.46,46.45Z" style="fill:#573e34"/><path d="M35.75,25.4c-1.66.81-8.1,1.24-14.49,1.24-7.37,0-13.41-.79-13.93-1.8a1,1,0,0,0,0,.3l-.16,9.69c1.23,1,4.12,3.83,7.24,4.33l12.23.64c3.21-.49,9.15-3.73,9.15-5Z" style="fill:#fccf3b"/><path d="M7.73,5c.27-2,5.41-3.48,13.73-3.67,12.93-.28,13.77,4,13.77,4" style="fill:#f7ecf4"/><path d="M34.56,5.5S33.45,1.78,21.48,2.05C12.24,2.25,8.55,4,8.4,5.12L7.05,4.93C7.56,1.27,18.2.75,21.45.68,34.57.4,35.8,4.74,35.9,5.24Z" style="fill:#573e34"/><path d="M7.34,26.3A9.38,9.38,0,0,0,7,29.88c3.88,4.74,21.73,5.07,27,.76-.27-1.38,0-2.84-.17-2.91S10.6,27.8,7.34,26.3Z" style="fill:#f89f27"/><path d="M35.49,24.74c0-2.51-6.28-4.54-14-4.54s-14,2-14,4.54v2.48c0,2.5,6.27,4.54,14,4.54s14-2,14-4.54Z" style="fill:#fff"/><path d="M36.49,33.62l-.13-1.36c3-.31,5.38-.88,6.24-1.53A8.29,8.29,0,0,0,46.2,24c.11-4,.13-7.79-.79-9.6-.81-1.59-2.54-3.64-8.19-3.08h-.06a2.19,2.19,0,0,1-2.33-1.23l1.26-.52c.12.28.29.4,1,.39,4.85-.48,8,.78,9.51,3.83,1.06,2.09,1,5.88.94,10.25a9.62,9.62,0,0,1-4.15,7.74C42,32.92,38.45,33.42,36.49,33.62Z" style="fill:#563d33"/><path d="M37.64,29.75a2.4,2.4,0,0,1-2.07-1l.91-.61a1.48,1.48,0,0,0,1.57.47c3.88-.67,4.37-2.06,4.88-3.53s.36-6.3-.11-8.28c-.39-1.66-3.71-2.08-5-1.9a2.79,2.79,0,0,0-1.67.88l-1-.31c.31-1,2-1.57,2.57-1.65,1.6-.22,5.67.24,6.25,2.73.48,2,.7,7.13.1,8.85s-1.23,3.5-5.74,4.29A3,3,0,0,1,37.64,29.75Z" style="fill:#563d33"/><path d="M43.79,15.74c1.6,2.42,1.22,7.48,1.07,8.63a7,7,0,0,1-5,6.32,4.93,4.93,0,0,1-3.34-.34c-.42-.27-.77-1.15-.18-1.27a2.54,2.54,0,0,1,1.27.28c.44.05,5.35.08,6-4.88.71-5.51,0-7.33-.41-8.17-.75-.73-1.38-1-1.34-1.29C41.87,14.58,43.18,14.81,43.79,15.74Z" style="fill:#ede2d2"/><path d="M36.77,11.47c-.48.08-.34.84,0,1,.58.2,3.46-.92,6.68,1.09.58.45,1.19.58,1,0C43.93,12.33,41.2,10.76,36.77,11.47Z" style="fill:#ede2d2"/><path d="M44.28,15.51C46.15,17,47.21,27.8,42.75,30,45.84,27.39,45.88,18.74,44.28,15.51Z" style="fill:#fffdf3"/><path d="M43.14,16.31c-.75-.73-1.6-1.25-1.34-1.29a1.85,1.85,0,0,1,2,.72" style="fill:#e2d3ad"/><path d="M30.34,31.13a13.64,13.64,0,0,0,4.28-2.34,28.74,28.74,0,0,1,.32,6.49c-.26,2.39-4.2,4.54-13,4.54,4.07-.71,8.85-2.64,8.62-5.58A18.6,18.6,0,0,1,30.34,31.13Z" style="fill:#f89f27"/><path d="M21.46,46.45a28.28,28.28,0,0,1-8.59-1c-1.18-.39-7-2.55-7-6.62L6.94,6.31a8.85,8.85,0,0,1,.06-1l1.35.15a8.69,8.69,0,0,0,0,.89L7.21,38.83c0,3.18,5.46,5.09,6.09,5.3a27.56,27.56,0,0,0,8.16,1,27.53,27.53,0,0,0,8.15-1c.62-.21,6.09-2.12,6.09-5.32L34.6,6.36a7.63,7.63,0,0,0-.07-1.1l1.35-.2A8.83,8.83,0,0,1,36,6.33l1.09,32.45c0,4.1-5.85,6.26-7,6.65A28.29,28.29,0,0,1,21.46,46.45Z" style="fill:#563d33"/><path d="M21.46,40.48a27.92,27.92,0,0,1-8.59-1c-1-.32-5.8-2.07-6.83-5.36l1.3-.4c.65,2.05,3.61,3.69,6,4.47a27.56,27.56,0,0,0,8.16,1,27.53,27.53,0,0,0,8.15-1c2.33-.78,5.29-2.41,6-4.45l1.3.42c-1.06,3.26-5.86,5-6.82,5.32A27.93,27.93,0,0,1,21.46,40.48Z" style="fill:#563d33"/><path d="M14.93,36.4c1.3,1.79,3.13,1.89,4.16,2.12-3.18.15-9.6-2.19-10.41-4.6a6.25,6.25,0,0,1-.08-1.87,26.45,26.45,0,0,0,5,1.84C14.74,34.3,14,35.05,14.93,36.4Z" style="fill:#fde165"/><circle cx="17.59" cy="21.13" r="0.78" style="fill:#fff"/><circle cx="17.59" cy="28.04" r="0.64" style="fill:#fff"/><path d="M35.2,37.52c-2.56,3.61-9.58,4.67-16.11,3.75,0,.61,1,1.45,1.6,1.62,5.63,1.72,12.66-1.35,13.86-2.65a2.53,2.53,0,0,0,.68-1.09A3.11,3.11,0,0,0,35.2,37.52Z" style="fill:#ede2d2"/><path d="M37.68,29.88a2.54,2.54,0,0,1-2.22-1.05l1.14-.75a1.47,1.47,0,0,0,1.45.41c3.74-.53,4.21-1.89,4.71-3.32l.06-.17c.47-1.35.32-6.22-.13-8.16-.37-1.56-3.64-2-4.89-1.79a2.73,2.73,0,0,0-1.56.79l-1.31-.39c.33-1.1,2.08-1.67,2.68-1.75,1.64-.23,5.8.26,6.41,2.83.47,2,.7,7.19.09,8.93l-.06.16c-.55,1.59-1.24,3.57-5.81,4.22A3.6,3.6,0,0,1,37.68,29.88Z" style="fill:#563d33"/><path d="M21.46,9.91c-6.94,0-14.32-1.59-14.32-4.54S14.52.82,21.46.82,35.78,2.41,35.78,5.37,28.4,9.91,21.46,9.91Zm0-8c-8.19,0-13.22,2-13.22,3.46s5,3.45,13.22,3.45,13.23-2,13.23-3.45S29.65,1.91,21.46,1.91Z" style="fill:#563d33"/><path d="M8.18,6c-.32.94.26.9.53.66C10,5.48,15.27,3.36,23.91,3.89c.68,0,1.33-.74.11-.86C18.1,2.41,8.89,3.91,8.18,6Z" style="fill:#ede2d2"/><path d="M21.46,10.05C14.28,10.05,7,8.44,7,5.37S14.28.68,21.46.68,35.91,2.29,35.91,5.37,28.64,10.05,21.46,10.05Zm0-8c-8,0-13.09,2-13.09,3.32s5.1,3.32,13.09,3.32,13.09-2,13.09-3.32S29.45,2.05,21.46,2.05Z" style="fill:#563d33"/><circle cx="29.61" cy="20.87" r="1.17" style="fill:#fff"/><path d="M10.28,12c.29-2.59,2.17-2.1,2.08-.32-.17,3.17-.46,24.53-.46,25.57a6.2,6.2,0,0,0,3.73,5.95c-4.46-.35-5.73-2.33-6.1-5.26C9.23,35.49,10,14.16,10.28,12Z" style="fill:#fffdf3"/><path d="M14.92,46.79a1.92,1.92,0,0,0-1.55-2.28,1.41,1.41,0,0,0-.7.19,4.2,4.2,0,0,0-2.26-1.36c-1.77-.45-3.45.11-3.74,1.25S7.58,47,9.35,47.48l.65.12a2.11,2.11,0,0,0,1.33.89,1.91,1.91,0,0,0,1.73-.25,1.06,1.06,0,0,0,.31,0A1.43,1.43,0,0,0,14,48.1a.81.81,0,0,0,.46.15.79.79,0,0,0,.79-.79A.8.8,0,0,0,14.92,46.79Z" style="fill:#fff"/><path d="M12,49.26a3.5,3.5,0,0,1-.84-.1,3,3,0,0,1-1.55-.93,3.29,3.29,0,0,1-.43-.09,5,5,0,0,1-2.44-1.38,2.33,2.33,0,0,1,1-4,5,5,0,0,1,2.81,0,5.22,5.22,0,0,1,2.28,1.21,2.09,2.09,0,0,1,.51-.07,2.44,2.44,0,0,1,2.27,2.57v.14a1.47,1.47,0,0,1-1.14,2.4,1.34,1.34,0,0,1-.48-.08,1.92,1.92,0,0,1-.79.11A2.44,2.44,0,0,1,12,49.26Zm-2.81-5.4a3.16,3.16,0,0,0-1,.15c-.27.1-.75.32-.86.75a1.22,1.22,0,0,0,.4,1.07,3.8,3.8,0,0,0,1.78,1c.19,0,.38.08.56.1a.71.71,0,0,1,.52.35,1.5,1.5,0,0,0,.9.56,1.32,1.32,0,0,0,1.1-.09.7.7,0,0,1,.62-.16.66.66,0,0,0,.49-.08.67.67,0,0,1,.73,0l.06,0a.11.11,0,0,0,.11-.11.1.1,0,0,0,0-.09.68.68,0,0,1-.31-.7,1.27,1.27,0,0,0,0-.28c0-.8-.63-1.46-1.26-1.1a.68.68,0,0,1-.88-.17A3.52,3.52,0,0,0,10.24,44,4.27,4.27,0,0,0,9.19,43.86Z" style="fill:#573e34"/><path d="M9.68,46.66a6.15,6.15,0,0,0,.32.94" style="fill:#fff"/><path d="M10,48.28a.69.69,0,0,1-.62-.39A6.93,6.93,0,0,1,9,46.81a.68.68,0,1,1,1.33-.3,6.48,6.48,0,0,0,.28.8.69.69,0,0,1-.33.91A.72.72,0,0,1,10,48.28Z" style="fill:#573e34"/><path d="M11.69,44.37c.44.22,1,.71.92,1a1.23,1.23,0,0,1,1.45,1.44c-.05.39.15.49.25.65.27.35.64,0,.43.25.35-.36.15-.56.18-1s.43-1.4-.72-1.82A8.89,8.89,0,0,0,11.69,44.37Z" style="fill:#e2d3af"/><path d="M12.92,47.24c-.61.06-1.4,1.09-2.92-1,.43,2.49,1.48,2.36,1.84,2.36s4.06-.64,2.51-1.8C14.32,47.65,13.53,47.18,12.92,47.24Z" style="fill:#e2d3af"/><path d="M12,49.26a3.5,3.5,0,0,1-.84-.1,3,3,0,0,1-1.55-.93,3.29,3.29,0,0,1-.43-.09,5,5,0,0,1-2.44-1.38,2.33,2.33,0,0,1,1-4,5,5,0,0,1,2.81,0,5.22,5.22,0,0,1,2.28,1.21,2.09,2.09,0,0,1,.51-.07,2.44,2.44,0,0,1,2.27,2.57v.14a1.47,1.47,0,0,1-1.14,2.4,1.34,1.34,0,0,1-.48-.08,1.92,1.92,0,0,1-.79.11A2.44,2.44,0,0,1,12,49.26Zm-2.81-5.4a3.16,3.16,0,0,0-1,.15c-.27.1-.75.32-.86.75a1.22,1.22,0,0,0,.4,1.07,3.8,3.8,0,0,0,1.78,1c.19,0,.38.08.56.1a.71.71,0,0,1,.52.35,1.5,1.5,0,0,0,.9.56,1.32,1.32,0,0,0,1.1-.09.7.7,0,0,1,.62-.16.66.66,0,0,0,.49-.08.67.67,0,0,1,.73,0l.06,0a.11.11,0,0,0,.11-.11.1.1,0,0,0,0-.09.68.68,0,0,1-.31-.7,1.27,1.27,0,0,0,0-.28c0-.8-.63-1.46-1.26-1.1a.68.68,0,0,1-.88-.17A3.52,3.52,0,0,0,10.24,44,4.27,4.27,0,0,0,9.19,43.86Z" style="fill:#573e34"/><path d="M9.68,46.66a6.15,6.15,0,0,0,.32.94" style="fill:#fff"/><path d="M10,48.28a.69.69,0,0,1-.62-.39A6.93,6.93,0,0,1,9,46.81a.68.68,0,1,1,1.33-.3,6.48,6.48,0,0,0,.28.8.69.69,0,0,1-.33.91A.72.72,0,0,1,10,48.28Z" style="fill:#573e34"/></svg>
