<svg id="Layer_1" data-name="Layer 1" xmlns="http://www.w3.org/2000/svg" viewBox="0 0 50 50"><title>Пивная кружка</title><path d="M36.39,5.7C36.39,2,29.6,0,20.6,0,11.23,0,4.71,2,4.71,5.7L3,41.8c.51,3.79,5.82,6.38,8,7.09A32.61,32.61,0,0,0,20.57,50a32.64,32.64,0,0,0,9.59-1.11C32.37,48.18,38,45.1,38,41.44Z" style="fill:#fff"/><path d="M48,14.51c-1.09-2.1-2.85-5.14-9.44-5-.81,0-2.34.43-2.68-.38l1.59,27.29c1.36-.14,5.69-1.17,7.31-2.37A11.58,11.58,0,0,0,49,25.42C49.07,20.65,49.06,16.61,48,14.51Zm-5.7,11.13C42,26.94,41.65,28.31,39,29c-.64.16-1.38.19-1.62-.25L37,17.56c.11-.54.93-.76,1.33-.84.85-.18,3.32.06,3.69,1.82A26.06,26.06,0,0,1,42.28,25.64Z" style="fill:#fff"/><path d="M35.21,11.09c.17,2,0,4.48.14,4.68s1.24-.59,2.36-.63,3-.35,4.3.68,2.49,3.82,2.1,8.86a6.59,6.59,0,0,1-6.57,6c-1.31-.13-1.63-1.6-1.59-.79s.42,4.71.42,4.71L38,34.17l5-.78a23,23,0,0,0,2.8-3.11,13.23,13.23,0,0,0,1.57-5.6,58.5,58.5,0,0,0-.13-6.22c-.21-1.57-.26-3.4-1.47-4.61s-1.72-2.1-3.84-2.39-4.9-.24-5.82-.3Z" style="fill:#f7ecf4"/><path d="M6.15,5.28a8.75,8.75,0,0,0-.1,1.37L4.9,40.76c0,3.45,4.85,5.6,6.88,6.27a29.14,29.14,0,0,0,8.79,1,29.17,29.17,0,0,0,8.8-1c2-.67,6.88-2.82,6.88-6.27L35.1,6.65A9.9,9.9,0,0,0,35,5.42" style="fill:#f7ecf4"/><path d="M20.58,48.79a29.55,29.55,0,0,1-9-1.08c-1.23-.41-7.37-2.67-7.37-7L5.33,6.63a9,9,0,0,1,.12-1.47l1.41.23a8.68,8.68,0,0,0-.1,1.26L5.61,40.78c0,3.35,5.74,5.35,6.4,5.57a28.93,28.93,0,0,0,8.57,1,29,29,0,0,0,8.56-1c.66-.22,6.39-2.22,6.39-5.59L34.39,6.68a8.57,8.57,0,0,0-.08-1.16l1.42-.2a9.69,9.69,0,0,1,.09,1.33L37,40.73c0,4.31-6.14,6.57-7.38,7A29.49,29.49,0,0,1,20.58,48.79Z" style="fill:#573e34"/><path d="M37.93,33.34c0,.73,1,.33,1.32-.11C38.59,33.11,37.93,32.6,37.93,33.34Z" style="fill:#fff"/><path d="M6.15,5.28c.3-2.08,5.7-3.66,14.43-3.85C34.16,1.14,35,5.64,35,5.64" style="fill:#f7ecf4"/><path d="M34.34,5.78S33.17,1.87,20.6,2.15C10.89,2.36,7,4.24,6.86,5.38l-1.42-.2C6,1.33,17.15.79,20.57.72,34.35.41,35.65,5,35.75,5.5Z" style="fill:#573e34"/><path d="M35.86,36.26c0-2-6.75-3.59-15.09-3.59S5.68,34.27,5.68,36.26a2.92,2.92,0,0,0,.91,1.6c1.89,2,5.85,3.94,14.18,3.94s13.73-3.13,14.17-4.33C35.22,36.71,35.86,36.51,35.86,36.26Z" style="fill:#e5d6c1"/><path d="M36.37,35.31l-.14-1.42c3.2-.33,5.65-.93,6.56-1.61a8.76,8.76,0,0,0,3.78-7c.11-4.22.13-8.18-.84-10.08-.85-1.67-2.66-3.83-8.59-3.24h-.07a2.3,2.3,0,0,1-2.45-1.3L36,10.1c.12.29.29.41,1.08.4,5.09-.5,8.36.82,10,4,1.12,2.21,1.11,6.18,1,10.77a10.09,10.09,0,0,1-4.35,8.13C42.11,34.58,38.43,35.1,36.37,35.31Z" style="fill:#563d33"/><path d="M37.58,31.25A2.53,2.53,0,0,1,35.4,30.2l1-.63a1.57,1.57,0,0,0,1.65.5c4.07-.72,4.58-2.18,5.12-3.72s.38-6.61-.11-8.69c-.42-1.75-3.89-2.19-5.29-2-.67.1-1.67.62-1.76.93l-1.1-.33c.32-1.07,2.11-1.65,2.7-1.73,1.67-.24,6,.25,6.56,2.86.5,2.11.73,7.49.1,9.3s-1.29,3.68-6,4.51A4.7,4.7,0,0,1,37.58,31.25Z" style="fill:#563d33"/><path d="M44,16.53c1.68,2.55,1.28,7.86,1.11,9.07a7.3,7.3,0,0,1-5.28,6.63,5,5,0,0,1-3.51-.36c-.45-.28-.81-1.2-.19-1.32a2.65,2.65,0,0,1,1.33.28c.46.06,5.62.09,6.29-5.12.74-5.79,0-7.7-.44-8.58-.78-.77-1.44-1.08-1.4-1.35C42,15.31,43.4,15.56,44,16.53Z" style="fill:#e5d6c1"/><path d="M36.66,12.05c-.51.08-.36.88,0,1,.61.21,3.63-1,7,1.14.61.47,1.25.61,1,0C44.18,13,41.31,11.3,36.66,12.05Z" style="fill:#e5d6c1"/><path d="M42.18,14.25c-.24.09,1.37.58,2.12,1.68a1.76,1.76,0,0,0-2.12-1.68" style="fill:#fffdf3"/><path d="M36.72,32.69c0,.7,1,.32,1.23-.1C37.33,32.48,36.72,32,36.72,32.69Z" style="fill:#fffdf3"/><path d="M44.55,16.29c2,1.53,3.07,12.9-1.61,15.2C46.19,28.77,46.23,19.69,44.55,16.29Z" style="fill:#fffdf3"/><path d="M43.35,17.13c-.78-.77-1.67-1.31-1.4-1.35a1.94,1.94,0,0,1,2.09.75" style="fill:#e2d3ad"/><path d="M34.29,34.66c.78.4,1.73.86,1.3,1.94C35,38.17,30.33,41.71,21,41.71,28.66,40.77,35.14,36.08,34.29,34.66Z" style="fill:#d1c3b2"/><path d="M20.58,48.65a29.92,29.92,0,0,1-9-1.07c-1.22-.41-7.28-2.64-7.28-6.82L5.47,6.63a9.55,9.55,0,0,1,.06-1.06l1.14.13c0,.31,0,.63,0,1L5.47,40.78c0,3.45,5.83,5.49,6.49,5.71a28.6,28.6,0,0,0,8.62,1,28.57,28.57,0,0,0,8.61-1c.66-.22,6.49-2.26,6.49-5.73L34.53,6.67a8.72,8.72,0,0,0-.08-1.17l1.13-.16a8,8,0,0,1,.1,1.31l1.14,34.09c0,4.2-6.06,6.43-7.27,6.84A29.89,29.89,0,0,1,20.58,48.65Z" style="fill:#563d33"/><path d="M20.58,42.38a29.55,29.55,0,0,1-9-1.08c-1-.33-6-2.15-7.08-5.53l1.1-.35c.69,2.21,3.85,4,6.34,4.79a28.55,28.55,0,0,0,8.62,1,28.94,28.94,0,0,0,8.61-1c2.48-.82,5.62-2.56,6.33-4.76l1.1.35c-1.09,3.36-6.08,5.17-7.07,5.5A29.52,29.52,0,0,1,20.58,42.38Z" style="fill:#563d33"/><path d="M11.8,33.34c-2.22,2.62-.58,7.22,6.29,8.14C14.76,41.59,6.46,39.41,5.61,36,6.41,34.51,9.58,33.61,11.8,33.34Z" style="fill:#ede3d6"/><path d="M8.84,13.77c.31-2.62,2.28-2.12,2.18-.32-.18,3.21-.48,24.82-.48,25.87,0,4.19,2.87,5.38,3.92,6C9.77,45,8.44,43,8.05,40,7.74,37.58,8.58,16,8.84,13.77Z" style="fill:#fffdf3"/><path d="M35,39.41C32.32,43.2,25,44.31,18.09,43.34c0,.65,1.07,1.53,1.68,1.71,5.92,1.81,13.3-1.42,14.55-2.78A2.63,2.63,0,0,0,35,41.12,3.31,3.31,0,0,0,35,39.41Z" style="fill:#e5d6c1"/><path d="M37.61,31.38a2.69,2.69,0,0,1-2.33-1.1l1.2-.79a1.53,1.53,0,0,0,1.53.43c3.92-.56,4.42-2,4.94-3.48l.06-.18c.5-1.42.35-6.54-.13-8.57-.41-1.73-3.74-2.17-5.09-1.89a3.22,3.22,0,0,0-1.68.83l-1.38-.41c.39-1.31,2.75-1.82,2.78-1.83,2-.4,6.12.26,6.76,3,.5,2.12.74,7.55.1,9.38l-.06.17c-.58,1.67-1.31,3.75-6.1,4.43A4.12,4.12,0,0,1,37.61,31.38Z" style="fill:#563d33"/><path d="M20.58,10.41c-7.29,0-15-1.67-15-4.77S13.29.86,20.58.86s15,1.67,15,4.78S27.87,10.41,20.58,10.41Zm0-8.4C12,2,6.69,4.12,6.69,5.64S12,9.27,20.58,9.27,34.47,7.15,34.47,5.64,29.19,2,20.58,2Z" style="fill:#563d33"/><path d="M20.58,48.79a29.55,29.55,0,0,1-9-1.08c-1.23-.41-7.37-2.67-7.37-7L5.33,6.63a9.91,9.91,0,0,1,.06-1.08l1.43.17a7.14,7.14,0,0,0-.06.93L5.61,40.78c0,3.35,5.74,5.35,6.4,5.57a28.93,28.93,0,0,0,8.57,1,29,29,0,0,0,8.56-1c.66-.22,6.39-2.22,6.39-5.59L34.39,6.68a8.57,8.57,0,0,0-.08-1.16l1.42-.2a9.69,9.69,0,0,1,.09,1.33L37,40.73c0,4.31-6.14,6.57-7.38,7A29.49,29.49,0,0,1,20.58,48.79Z" style="fill:#563d33"/><path d="M20.58,42.52a30,30,0,0,1-9-1.08c-1-.34-6.08-2.18-7.16-5.63l1.36-.43c.68,2.16,3.8,3.88,6.26,4.7a29,29,0,0,0,8.57,1,29,29,0,0,0,8.56-1c2.45-.82,5.55-2.53,6.25-4.67l1.36.44c-1.1,3.42-6.15,5.26-7.16,5.59A29.81,29.81,0,0,1,20.58,42.52Z" style="fill:#563d33"/><path d="M7.31,6.72c-.34,1,.27.94.55.7,1.4-1.22,6.89-3.45,16-2.89.72,0,1.4-.78.12-.91C17.73,3,8.05,4.55,7.31,6.72Z" style="fill:#e5d6c1"/><path d="M20.58,10.56C13,10.56,5.4,8.87,5.4,5.64S13,.72,20.58.72,35.76,2.41,35.76,5.64,28.12,10.56,20.58,10.56Zm0-8.41c-8.39,0-13.75,2.07-13.75,3.49s5.36,3.48,13.75,3.48S34.33,7.06,34.33,5.64,29,2.15,20.58,2.15Z" style="fill:#563d33"/></svg>
