<svg xmlns="http://www.w3.org/2000/svg" xmlns:xlink="http://www.w3.org/1999/xlink" version="1.1" style="" xml:space="preserve" width="304" height="304"><rect id="backgroundrect" width="100%" height="100%" x="0" y="0" fill="none" stroke="none"/>
<style type="text/css">
	.st0{fill:#252F3E;}
	.st1{fill-rule:evenodd;clip-rule:evenodd;fill:#FF9900;}
</style>

<g class="currentLayer" style=""><title>Layer 1</title><g id="svg_1" class="">
	<path class="st0" d="M98.94958150616237,132.10714910437616 c0,2.9920150921595083 0.32346109104427173,5.417973274991542 0.889518000371746,7.1970092757350335 c0.6469221820885427,1.779036000743492 1.45557490969922,3.719802547009118 2.5876887283541694,5.82229963879688 c0.4043263638053393,0.6469221820885427 0.5660569093274751,1.2938443641770851 0.5660569093274751,1.8599012735045597 c0,0.8086527276106781 -0.4851916365664064,1.6173054552213557 -1.5364401824602878,2.4259581828320336 l-5.0945121839472725,3.3963414559648473 c-0.72778745484961,0.4851916365664064 -1.45557490969922,0.72778745484961 -2.1024970917877623,0.72778745484961 c-0.8086527276106781,0 -1.6173054552213557,-0.4043263638053393 -2.4259581828320336,-1.1321138186549489 C90.70132368453345,151.19135347598814 89.73094041140064,149.89750911181108 88.92228768378996,148.60366474763396 c-0.8086527276106781,-1.3747096369381524 -1.6173054552213557,-2.91114981939844 -2.5068234555931017,-4.771051092903 c-6.3074912753632875,7.439605094018236 -14.23228800594793,11.159407641027355 -23.774390191753927,11.159407641027355 c-6.7926829119296945,0 -12.210656186921236,-1.940766546265627 -16.173054552213557,-5.82229963879688 c-3.962398365292322,-3.881533092531254 -5.984030184319017,-9.056910549239591 -5.984030184319017,-15.526132370125016 c0,-6.873548184690762 2.4259581828320336,-12.453252005204439 7.358739821257168,-16.658246188779966 c4.932781638425134,-4.204994183575525 11.482868732071625,-6.3074912753632875 19.811991826461608,-6.3074912753632875 c2.749419273876306,0 5.5797038205136795,0.24259581828320348 8.571718912673186,0.6469221820885427 c2.9920150921595083,0.4043263638053393 6.064895457080084,1.0512485458938812 9.299506367522795,1.779036000743492 v-5.9031649115579485 c0,-6.145760729841151 -1.2938443641770851,-10.431620186177744 -3.800667819770186,-12.938443641770846 c-2.5876887283541694,-2.5068234555931017 -6.954413457451829,-3.719802547009118 -13.18103946005405,-3.719802547009118 c-2.8302845466373725,0 -5.741434366035812,0.32346109104427173 -8.733449458195322,1.0512485458938812 c-2.9920150921595083,0.72778745484961 -5.9031649115579485,1.6173054552213557 -8.733449458195322,2.749419273876306 c-1.2938443641770851,0.5660569093274751 -2.2642276373098977,0.889518000371746 -2.8302845466373725,1.0512485458938812 c-0.5660569093274751,0.16173054552213584 -0.9703832731328135,0.24259581828320348 -1.2938443641770851,0.24259581828320348 c-1.1321138186549489,0 -1.6981707279824236,-0.8086527276106781 -1.6981707279824236,-2.5068234555931017 v-3.962398365292322 c0,-1.2938443641770851 0.16173054552213584,-2.2642276373098977 0.5660569093274751,-2.8302845466373725 c0.4043263638053393,-0.5660569093274751 1.1321138186549489,-1.1321138186549489 2.2642276373098977,-1.6981707279824236 c2.8302845466373725,-1.45557490969922 6.226626002602218,-2.6685540011152367 10.189024367894543,-3.6389372742480504 c3.962398365292322,-1.0512485458938812 8.167392548867847,-1.5364401824602878 12.614982550726575,-1.5364401824602878 c9.622967458567066,0 16.658246188779966,2.1833623645488305 21.18670146339976,6.550087093646489 c4.447590001858728,4.366724729097661 6.711817639168626,10.99767709550522 6.711817639168626,19.892857099222677 V132.10714910437616 zM66.11828076516885,144.39867056405842 c2.6685540011152367,0 5.417973274991542,-0.4851916365664064 8.329123094389983,-1.45557490969922 c2.91114981939844,-0.9703832731328135 5.4988385477526105,-2.749419273876306 7.6822009123014405,-5.175377456708339 c1.2938443641770851,-1.5364401824602878 2.2642276373098977,-3.2346109104427114 2.749419273876306,-5.175377456708339 c0.4851916365664064,-1.940766546265627 0.8086527276106781,-4.285859456336595 0.8086527276106781,-7.035278730212897 v-3.3963414559648473 c-2.3450929100709663,-0.5660569093274751 -4.851916365664067,-1.0512485458938812 -7.439605094018236,-1.3747096369381524 c-2.5876887283541694,-0.32346109104427173 -5.0945121839472725,-0.4851916365664064 -7.601335639540372,-0.4851916365664064 c-5.417973274991542,0 -9.380371640283863,1.0512485458938812 -12.0489256413991,3.2346109104427114 c-2.6685540011152367,2.1833623645488305 -3.962398365292322,5.256242729469406 -3.962398365292322,9.299506367522795 c0,3.800667819770186 0.9703832731328135,6.630952366407558 2.9920150921595083,8.571718912673186 C59.568193671522366,143.42828729092565 62.39847821815974,144.39867056405842 66.11828076516885,144.39867056405842 zM131.05309479230624,153.13212002225376 c-1.45557490969922,0 -2.4259581828320336,-0.24259581828320348 -3.0728803649205756,-0.8086527276106781 c-0.6469221820885427,-0.4851916365664064 -1.2129790914160168,-1.6173054552213557 -1.6981707279824236,-3.1537456376816437 L107.27870460055235,86.66086581265604 c-0.4851916365664064,-1.6173054552213557 -0.72778745484961,-2.6685540011152367 -0.72778745484961,-3.2346109104427114 c0,-1.2938443641770851 0.6469221820885427,-2.0216318190266946 1.940766546265627,-2.0216318190266946 h7.924796730584644 c1.5364401824602878,0 2.5876887283541694,0.24259581828320348 3.1537456376816437,0.8086527276106781 c0.6469221820885427,0.4851916365664064 1.1321138186549489,1.6173054552213557 1.6173054552213557,3.1537456376816437 l13.585365823859389,53.53281056782688 l12.614982550726575,-53.53281056782688 c0.4043263638053393,-1.6173054552213557 0.889518000371746,-2.6685540011152367 1.5364401824602878,-3.1537456376816437 c0.6469221820885427,-0.4851916365664064 1.779036000743492,-0.8086527276106781 3.2346109104427114,-0.8086527276106781 h6.469221820885423 c1.5364401824602878,0 2.5876887283541694,0.24259581828320348 3.2346109104427114,0.8086527276106781 c0.6469221820885427,0.4851916365664064 1.2129790914160168,1.6173054552213557 1.5364401824602878,3.1537456376816437 l12.776713096248711,54.179732749915416 l13.989692187664728,-54.179732749915416 c0.4851916365664064,-1.6173054552213557 1.0512485458938812,-2.6685540011152367 1.6173054552213557,-3.1537456376816437 c0.6469221820885427,-0.4851916365664064 1.6981707279824236,-0.8086527276106781 3.1537456376816437,-0.8086527276106781 h7.520470366779304 c1.2938443641770851,0 2.0216318190266946,0.6469221820885427 2.0216318190266946,2.0216318190266946 c0,0.4043263638053393 -0.08086527276106788,0.8086527276106781 -0.16173054552213584,1.2938443641770851 c-0.08086527276106788,0.4851916365664064 -0.24259581828320348,1.1321138186549489 -0.5660569093274751,2.0216318190266946 l-19.48853073541734,62.5088558443054 c-0.4851916365664064,1.6173054552213557 -1.0512485458938812,2.6685540011152367 -1.6981707279824236,3.1537456376816437 c-0.6469221820885427,0.4851916365664064 -1.6981707279824236,0.8086527276106781 -3.0728803649205756,0.8086527276106781 h-6.954413457451829 c-1.5364401824602878,0 -2.5876887283541694,-0.24259581828320348 -3.2346109104427114,-0.8086527276106781 c-0.6469221820885427,-0.5660569093274751 -1.2129790914160168,-1.6173054552213557 -1.5364401824602878,-3.2346109104427114 L155.23181134786554,97.01162072607272 l-12.453252005204439,52.077235658127655 c-0.4043263638053393,1.6173054552213557 -0.889518000371746,2.6685540011152367 -1.5364401824602878,3.2346109104427114 c-0.6469221820885427,0.5660569093274751 -1.779036000743492,0.8086527276106781 -3.2346109104427114,0.8086527276106781 H131.05309479230624 zM234.9649702902784,155.31548238680259 c-4.204994183575525,0 -8.40998836715105,-0.4851916365664064 -12.453252005204439,-1.45557490969922 c-4.043263638053389,-0.9703832731328135 -7.1970092757350335,-2.0216318190266946 -9.299506367522795,-3.2346109104427114 c-1.2938443641770851,-0.72778745484961 -2.1833623645488305,-1.5364401824602878 -2.5068234555931017,-2.2642276373098977 c-0.32346109104427173,-0.72778745484961 -0.4851916365664064,-1.5364401824602878 -0.4851916365664064,-2.2642276373098977 v-4.1241289108144565 c0,-1.6981707279824236 0.6469221820885427,-2.5068234555931017 1.8599012735045597,-2.5068234555931017 c0.4851916365664064,0 0.9703832731328135,0.08086527276106788 1.45557490969922,0.24259581828320348 c0.4851916365664064,0.16173054552213584 1.2129790914160168,0.4851916365664064 2.0216318190266946,0.8086527276106781 c2.749419273876306,1.2129790914160168 5.741434366035812,2.1833623645488305 8.895180003717456,2.8302845466373725 c3.2346109104427114,0.6469221820885427 6.3883565481243565,0.9703832731328135 9.622967458567066,0.9703832731328135 c5.0945121839472725,0 9.056910549239591,-0.889518000371746 11.806329823115897,-2.6685540011152367 c2.749419273876306,-1.779036000743492 4.204994183575525,-4.366724729097661 4.204994183575525,-7.6822009123014405 c0,-2.2642276373098977 -0.72778745484961,-4.1241289108144565 -2.1833623645488305,-5.660569093274745 c-1.45557490969922,-1.5364401824602878 -4.204994183575525,-2.91114981939844 -8.167392548867847,-4.204994183575525 L228.01055683282655,120.46254982678238 c-5.9031649115579485,-1.8599012735045597 -10.269889640655608,-4.6093205473808645 -12.938443641770846,-8.248257821628913 c-2.6685540011152367,-3.558072001486983 -4.043263638053389,-7.520470366779304 -4.043263638053389,-11.725464550354829 c0,-3.3963414559648473 0.72778745484961,-6.3883565481243565 2.1833623645488305,-8.976045276478525 c1.45557490969922,-2.5876887283541694 3.3963414559648473,-4.851916365664067 5.82229963879688,-6.630952366407558 c2.4259581828320336,-1.8599012735045597 5.175377456708339,-3.2346109104427114 8.40998836715105,-4.204994183575525 c3.2346109104427114,-0.9703832731328135 6.630952366407558,-1.3747096369381524 10.189024367894543,-1.3747096369381524 c1.779036000743492,0 3.6389372742480504,0.08086527276106788 5.417973274991542,0.32346109104427173 c1.8599012735045597,0.24259581828320348 3.558072001486983,0.5660569093274751 5.256242729469406,0.889518000371746 c1.6173054552213557,0.4043263638053393 3.1537456376816437,0.8086527276106781 4.6093205473808645,1.2938443641770851 c1.45557490969922,0.4851916365664064 2.5876887283541694,0.9703832731328135 3.3963414559648473,1.45557490969922 c1.1321138186549489,0.6469221820885427 1.940766546265627,1.2938443641770851 2.4259581828320336,2.0216318190266946 c0.4851916365664064,0.6469221820885427 0.72778745484961,1.5364401824602878 0.72778745484961,2.6685540011152367 v3.800667819770186 c0,1.6981707279824236 -0.6469221820885427,2.5876887283541694 -1.8599012735045597,2.5876887283541694 c-0.6469221820885427,0 -1.6981707279824236,-0.32346109104427173 -3.0728803649205756,-0.9703832731328135 c-4.6093205473808645,-2.1024970917877623 -9.784698004089202,-3.1537456376816437 -15.526132370125016,-3.1537456376816437 c-4.6093205473808645,0 -8.248257821628913,0.72778745484961 -10.755081277222017,2.2642276373098977 c-2.5068234555931017,1.5364401824602878 -3.800667819770186,3.881533092531254 -3.800667819770186,7.1970092757350335 c0,2.2642276373098977 0.8086527276106781,4.204994183575525 2.4259581828320336,5.741434366035812 c1.6173054552213557,1.5364401824602878 4.6093205473808645,3.0728803649205756 8.895180003717456,4.447590001858728 l11.482868732071625,3.6389372742480504 c5.82229963879688,1.8599012735045597 10.027293822372405,4.447590001858728 12.534117277965507,7.763066185062508 c2.5068234555931017,3.315476183203779 3.719802547009118,7.116144002973965 3.719802547009118,11.32113818654949 c0,3.4772067287259145 -0.72778745484961,6.630952366407558 -2.1024970917877623,9.380371640283863 c-1.45557490969922,2.749419273876306 -3.3963414559648473,5.175377456708339 -5.9031649115579485,7.116144002973965 c-2.5068234555931017,2.0216318190266946 -5.4988385477526105,3.4772067287259145 -8.976045276478525,4.5284552746197955 C242.88976702086302,154.7494254774751 239.08909920109284,155.31548238680259 234.9649702902784,155.31548238680259 z" id="svg_2"/>
	<g id="svg_3">
		<path class="st1" d="M250.2485068421202,194.6160049486815 c-26.6046747383913,19.65026128093947 -65.2582751181817,30.081881467117217 -98.49390222298057,30.081881467117217 c-46.57839711037504,0 -88.54747367336923,-17.224303098107438 -120.2466605957078,-45.85060965552544 c-2.5068234555931017,-2.2642276373098977 -0.24259581828320348,-5.337108002230473 2.749419273876306,-3.558072001486983 c34.28687565069274,19.892857099222677 76.57941330473119,31.941782740621775 120.32752586846887,31.941782740621775 c29.515824557789742,0 61.942798934977915,-6.145760729841151 91.78208458381194,-18.760743280567727 C250.81456375144765,186.4486123998137 254.6152315712179,191.3813940382388 250.2485068421202,194.6160049486815 z" id="svg_4"/>
		<path class="st1" d="M261.32704921038646,182.00102239795493 c-3.3963414559648473,-4.366724729097661 -22.480545827576844,-2.1024970917877623 -31.133130013011098,-1.0512485458938812 c-2.5876887283541694,0.32346109104427173 -2.9920150921595083,-1.940766546265627 -0.6469221820885427,-3.6389372742480504 c15.202671279080745,-10.674216004460947 40.190040562250694,-7.601335639540372 43.101190381649126,-4.043263638053389 c2.91114981939844,3.6389372742480504 -0.8086527276106781,28.626306557417994 -15.040940733558608,40.59436692605603 c-2.1833623645488305,1.8599012735045597 -4.285859456336595,0.889518000371746 -3.315476183203779,-1.5364401824602878 C257.5263813906163,204.31983768000964 264.72339066635135,186.28688185429155 261.32704921038646,182.00102239795493 z" id="svg_5"/>
	</g>
</g></g></svg>