<svg xmlns:dc="http://purl.org/dc/elements/1.1/" xmlns:cc="http://creativecommons.org/ns#" xmlns:rdf="http://www.w3.org/1999/02/22-rdf-syntax-ns#" xmlns:svg="http://www.w3.org/2000/svg" xmlns="http://www.w3.org/2000/svg" preserveAspectRatio="xMidYMid meet" version="1.1" height="156.98515" width="160.10664"><rect id="backgroundrect" width="100%" height="100%" x="0" y="0" fill="none" stroke="none"/>
      <metadata id="metadata26">
        <rdf:rdf xmlns="http://www.w3.org/1999/xhtml">
          <cc:work rdf:about="">
            <dc:format>image/svg+xml</dc:format>
            <dc:type rdf:resource="http://purl.org/dc/dcmitype/StillImage"/>
            <dc:title/>
          </cc:work>
        </rdf:rdf>
      </metadata>
      <defs id="defs24"/>
      
    <g class="currentLayer" style=""><title>Layer 1</title><g id="g6" style="fill:#de4f4f" class="">
        <path style="fill:#de4f4f; fill-opacity:1; stroke:none" d="M26.954076768828173,26.428575996183294 L117.9022325311458,122.76469618724533 c0,0 3.0984369650585823,2.1853184634705416 5.4678277383647185,-0.36421766615857615 c2.3693907733061343,-2.5495402851354805 0.5467815271845632,-5.0990764147646 0.5467815271845632,-5.0990764147646 L26.954076768828173,26.428575996183294 l0,0 z" id="path8" stroke-width="0"/>
        <path style="fill:#de4f4f; fill-opacity:1; stroke:none" d="M55.751288820248526,35.5340693903574 L125.01040485106421,110.1991181389195 c0,0 3.0984369650585823,2.1853143079641795 5.4678277383647185,-0.3642218216649388 c2.3693907733061343,-2.5495402851354805 0.5467815271845632,-5.0990764147646 0.5467815271845632,-5.0990764147646 L55.751288820248526,35.5340693903574 l0,0 z" id="path10" stroke-width="0"/>
        <path style="fill:#de4f4f; fill-opacity:1; stroke:none" d="M35.520336161514344,55.01982548186109 L104.77945510118447,129.68487339932193 c0,0 3.0984328095522202,2.1853184634705416 5.4678235828583555,-0.3642218216649388 c2.3693907733061343,-2.549536129629118 0.5467815271845632,-5.0990764147646 0.5467815271845632,-5.0990764147646 L35.520336161514344,55.01982548186109 l0,0 z" id="path12" stroke-width="0"/>
        <path style="fill:#de4f4f; fill-opacity:1; stroke:none" d="M80.0955935538915,43.36479367668486 L128.4827999891952,95.52880520650571 c0,0 2.1646946853931976,1.5267496596269736 3.8200448004220613,-0.25445827660449616 c1.6553501150288636,-1.7812120917378311 0.38200323339029746,-3.562424183475663 0.38200323339029746,-3.562424183475663 L80.0955935538915,43.36479367668486 l0,0 z" id="path14" stroke-width="0"/>
        <path style="fill:#de4f4f; fill-opacity:1; stroke:none" d="M42.185338272138864,77.60144794218749 L90.57254761629702,129.76545697870452 c0,0 2.1646905298868346,1.5267538151333362 3.8200448004220613,-0.25445827660449616 c1.6553501150288636,-1.7812079362314692 0.38200323339029746,-3.5624200279693006 0.38200323339029746,-3.5624200279693006 L42.185338272138864,77.60144794218749 l0,0 z" id="path16" stroke-width="0"/>
        <path style="fill:#de4f4f; fill-opacity:1; stroke:none" d="m104.961715610246,54.65560573794933 l21.930709761405186,23.714295062826668 c0,0 1.07080334602143,0.7153953533514642 1.8896541857749831,-0.11923394406069825 c0.8188466842471906,-0.8346292974121626 0.18896334082431732,-1.6692627503306867 0.18896334082431732,-1.6692627503306867 l-24.009327288004485,-21.925798368435288 l0,0 z" id="path18" stroke-width="0"/>
        <path style="fill:#de4f4f; fill-opacity:1; stroke:none" d="m54.293202254452545,101.63995104036344 l21.930714332462184,23.714294647276034 c0,0 1.0707991905150676,0.7153953533514642 1.88965003026862,-0.11923394406069825 c0.8188466842471906,-0.8346292974121626 0.18896334082431732,-1.6692585948243246 0.18896334082431732,-1.6692585948243246 l-24.009327703555122,-21.92580210839101 l0,0 z" id="path20" stroke-width="0"/>
      </g></g></svg>