<svg xmlns="http://www.w3.org/2000/svg" enable-background="new 0 0 765 359" height="120" width="120" style=""><rect id="backgroundrect" width="100%" height="100%" x="0" y="0" fill="none" stroke="none"/><g class="currentLayer" style=""><title>Layer 1</title><g stroke-width=".136657" id="svg_1" class=""><g id="svg_2"><path d="m16.147331140514126,39.667593971691176 c0.31177294497060026,0.5790073634018 0.7348946506858006,1.49205937944 1.0912077517932002,2.0487966647734 c0.24496434036280015,0.37858317917580037 0.5121987587940001,0.7126262022148006 0.8239733333620003,1.0243991471854004 c0.9130503864408,0.9130520160382003 1.7815622463421996,1.8706425586158006 2.5609970531648,2.8950400762038004 c1.8483708509499999,2.4273798439492 3.0954658900272003,5.1219941063296 3.986247827997,8.0393042606018 c0.5344688368624002,1.7815638759395998 0.8239717037646004,3.6076662784186 0.8462417818330001,5.4560371293686 c0.08907379388400007,5.5228473635738 -1.8038323244106,10.266258290727599 -5.634194494721,14.207967592185199 c-0.6235458899412001,0.6235475195386002 -1.2916319360192001,1.2025548829404002 -2.004258138234,1.7147536417344 c-0.3785815495784001,0 -0.5567389149308003,-0.28950286690220023 -0.7126245726174005,-0.5567372853334003 c-0.28950449649960025,-0.4899303103230001 -0.4676602322546003,-1.0466692252538001 -0.5567389149308003,-1.6034081401845999 c-0.13361069082600008,-0.6680860460780004 -0.2226958918918001,-1.336172092156 -0.17815573575500004,-2.026526586705 c0,-0.11135039034199999 0,-0.20042744342080013 0,-0.3117745745680001 c-0.022276596458000016,-0.0668134934 -0.3563131011074002,-30.731964637977597 -0.2226958918918001,-30.8878519252616 z" fill="#599636" stroke-width="0" id="svg_3"/><path d="m16.147331140514126,39.600785367083375 c-0.04453689694200003,-0.08907379388400007 -0.08907379388400007,-0.022276596458000016 -0.13361069082600008,0.022260300484000017 c0.022276596458000016,0.4453917837836003 -0.13361069082600008,0.8462434114304002 -0.3785815495784001,1.2248249610088 c-0.26723604802859996,0.37858317917580037 -0.6235475195386002,0.6680860460780004 -0.9798606206460001,0.9798606206460001 c-1.981989689763,1.7147536417344 -3.5408560442134,3.7858220141736 -4.7879510832906,6.1018530973782 c-1.6479466667240001,3.1177359680956 -2.5164585266254003,6.458167828083 -2.7614228669882004,9.976755423825399 c-0.11135039034199999,1.2693634875482 0.40085162764680016,5.7455399962708 0.8017032552936003,7.0371735618874 c1.0912077517932002,3.4295089130661998 3.0509273634878,6.302280540799 5.5896543385842,8.796468989356 c0.6235475195386002,0.6012774414702001 1.2916335656166003,1.1580163564010002 1.981989689763,1.6924851932634004 c0.20042581382340008,0 0.2226958918918001,-0.17815736535240012 0.2672344184312,-0.3117745745680001 c0.08907379388400007,-0.28950286690220023 0.15588728728400014,-0.5790073634018 0.20042581382340008,-0.8685118599014 c0.20042581382340008,-1.1134762002642 0.31177294497060026,-2.2269540301258 0.44539015418620015,-3.3404302303900004 c0,-0.13361069082600008 -0.17815573575500004,-31.1996264998296 -0.24496434036280015,-31.3109736309768 z" fill="#6cac48" stroke-width="0" id="svg_4"/><path d="m17.238538892307325,76.41233465396817 c0.04453689694200003,-0.5121987587940001 0.28950286690220023,-0.9353204645092001 0.5567389149308003,-1.3584421702244 c-0.26723604802859996,-0.11135039034199999 -0.4676618618520003,-0.3340430230390002 -0.6235475195386002,-0.5790073634018 c-0.13361069082600008,-0.2226958918918001 -0.24496596996020006,-0.4899303103230001 -0.3340430230390002,-0.7348946506858006 c-0.3117745745680001,-0.9353204645092001 -0.37858317917580037,-1.9151810851551998 -0.4676602322546003,-2.8727716277328 c0,-0.08907379388400007 0,-0.20042581382340008 0,-0.28950286690220023 c0,-0.08907379388400007 0,-0.20042581382340008 0,-0.28950449649960025 c-0.11135039034199999,0.08907379388400007 -0.13361069082600008,0.8462434114304002 -0.13361069082600008,0.9575905425776002 c-0.0668134934,1.0243991471854004 -0.20042581382340008,2.0265282163024 -0.40085162764680016,3.006387207351 c-0.0668134934,0.40085162764680016 -0.11135039034199999,0.8017032552936003 -0.3563131011074002,1.1580163564010002 c0,0.04453689694200003 0,0.08907379388400007 0.022276596458000016,0.15588728728400014 c0.40085162764680016,1.180284804872 0.5121987587940001,2.3828413174097998 0.5790073634018,3.6076646488212 v0.4453917837836003 c0,0.5344688368624002 -0.022276596458000016,0.42312170571519997 0.42312170571519997,0.6012774414702001 c0.17815573575500004,0.0668134934 0.3785815495784001,0.08907379388400007 0.5567372853334003,0.2226958918918001 c0.13361069082600008,0 0.15588728728400014,-0.11135039034199999 0.15588728728400014,-0.20042581382340008 c-0.022276596458000016,-0.24496596996020006 -0.0668134934,-0.4899303103230001 -0.0668134934,-0.7348962802832003 c0,-0.6903544945490004 -0.022276596458000016,-1.3584405406270001 0,-2.0487966647734 c-0.022276596458000016,-0.3563131011074002 0.04453689694200003,-0.7126262022148006 0.08907379388400007,-1.0466692252538001 z" fill="#c2bfbf" stroke-width="0" id="svg_5"/></g><g id="svg_6"><path d="m34.15127718270232,67.10048448984779 v2.1210589560078 c0,0.08372194036200009 0,0.16745204971440017 0.013958762346000008,0.2511780745716 c0.027907313454000028,0.2511780745716 0.18140672756520013,0.40467646755900033 0.41863012428600005,0.4744478145654001 c0.20931506214300008,0.05581462690800004 0.43258480213680023,0.09768070270800013 0.6418998642798008,0.1255890372858 c0.1255890372858,0.013958762346000008 0.16745204971440017,0.06977338925400005 0.18140672756520013,0.19536140541600014 c0.013958762346000008,0.4744467934416001 -0.027907313454000028,0.5302644837209999 -0.4884024924162001,0.5023561491431997 c-1.0744836452928002,-0.05581462690800004 -2.1489683117094,-0.06977338925400005 -3.2234529781259997,0 c-0.041866075800000006,0 -0.08372194036200009,0 -0.11163435943500007,0 c-0.3349040994288004,0.013948551108000007 -0.3628124340066002,-0.013958762346000008 -0.3628124340066002,-0.3488587772796006 c0,-0.05581462690800004 0.013958762346000008,-0.1255890372858 0.013958762346000008,-0.18140672756520013 c0,-0.11163435943500007 0.06977338925400005,-0.15349737186360013 0.16745204971440017,-0.15349737186360013 c0.22326973999380006,-0.027907313454000028 0.43258480213680023,-0.08372194036200009 0.6418998642798008,-0.1255890372858 c0.29304108700020015,-0.06977338925400005 0.4604931367146,-0.2511780745716 0.4884024924162001,-0.5442191615718001 c0.041866075800000006,-0.3209504427018002 0.041866075800000006,-0.6558545421306002 0.041866075800000006,-0.9768039637085999 c0.041866075800000006,-1.241936716131 0.027907313454000028,-2.497827088989 0.013948551108000007,-3.73976380512 c0,-0.2372233967208001 -0.09768070270800013,-0.41863012428600005 -0.30699474372720026,-0.5302644837209999 c-0.2511780745716,-0.13954371513660005 -0.516310826994,-0.2511780745716 -0.7953982572672001,-0.3349040994288004 c-0.08372194036200009,-0.027907313454000028 -0.16745204971440017,-0.041866075800000006 -0.2372233967208001,-0.08372194036200009 c-0.19536038429220018,-0.09768070270800013 -0.20931506214300008,-0.27908743027320015 -0.013958762346000008,-0.39072178970820026 c0.06977338925400005,-0.041866075800000006 0.1534983929874002,-0.06977338925400005 0.23722441784460008,-0.08372194036200009 c0.8512149264228003,-0.1255890372858 1.6745204971440006,-0.3349040994288004 2.4838724111382002,-0.6279451864290007 c0.16745204971440017,-0.05581462690800004 0.20931506214300008,-0.041866075800000006 0.22326973999380006,0.1255890372858 c0.013958762346000008,0.11163435943500007 0,0.22326973999380006 -0.013958762346000008,0.3209494215780002 c-0.027907313454000028,0.18140672756520013 -0.027907313454000028,0.3628134551304003 -0.027907313454000028,0.5302655048448 c0,0.06977338925400005 0.013948551108000007,0.13954269401280006 0.08372194036200009,0.1814057064414001 c0.06977338925400005,0.041866075800000006 0.13954269401280006,0 0.19536038429220018,-0.041866075800000006 c0.29304108700020015,-0.22326871887000013 0.5860821740004001,-0.4325837810130002 0.9070326167021999,-0.6139905085782005 c0.4604931367146,-0.2511780745716 0.9488946080070002,-0.4744478145654001 1.4791601128518002,-0.5442191615718001 c0.6418988431560007,-0.08372194036200009 1.2000726825786001,0.08372194036200009 1.6884751749948004,0.5023561491431997 c0.20931506214300008,0.18140672756520013 0.3767671118574003,0.39072178970820026 0.5302644837209999,0.6139905085782005 c0.13954371513660005,0.19536140541600014 0.1534983929874002,0.20931506214300008 0.3349040994288004,0.06977338925400005 c0.5302655048448,-0.39072178970820026 1.0884393442674,-0.7395805669878001 1.6884751749948004,-0.9907586415594001 c0.6279451864290007,-0.2651327524224 1.2698450507088,-0.3069957648510001 1.9117449149886,-0.08372194036200009 c0.6558545421306002,0.23722441784460008 1.1023930009944,0.6977175545592005 1.3675257534168002,1.3256627409882 c0.22326973999380006,0.5023561491431997 0.3209494215780002,1.0326206328642 0.3209494215780002,1.5628861377090002 v2.4838724111382002 v1.255890372858 c0,0.2511780745716 0.11163538055880008,0.41863012428600005 0.3488587772796006,0.5302655048448 c0.2651327524224,0.11163435943500007 0.5581738394226001,0.15349737186360013 0.8372602485720001,0.20931506214300008 c0.18140672756520013,0.041866075800000006 0.18140672756520013,0.041866075800000006 0.18140672756520013,0.22326973999380006 c-0.027907313454000028,0.4604931367146 -0.06977338925400005,0.4884014712924003 -0.516310826994,0.4604931367146 c-1.1163476788452,-0.06977338925400005 -2.2466490144174003,-0.05581462690800004 -3.3629956721388004,0 c-0.22326973999380006,0.013948551108000007 -0.22326973999380006,0.013948551108000007 -0.23722441784460008,-0.20931506214300008 c0,-0.027907313454000028 0,-0.041866075800000006 0,-0.06977338925400005 c-0.013958762346000008,-0.3767671118574003 -0.013958762346000008,-0.3767671118574003 0.3488587772796006,-0.4604931367146 c0.1255890372858,-0.027907313454000028 0.2372233967208001,-0.05581462690800004 0.3628124340066002,-0.09768070270800013 c0.27908743027320015,-0.08372194036200009 0.41863012428600005,-0.2651327524224 0.43258480213680023,-0.5442201826956 c0.013958762346000008,-0.3488577561558003 0.027907313454000028,-0.6977165334354005 0.041866075800000006,-1.0465753107150002 c0,-0.9070315955784003 0.027907313454000028,-1.8280188901314 -0.027907313454000028,-2.7350504857098 c-0.013958762346000008,-0.23722441784460008 -0.05581462690800004,-0.4744478145654001 -0.1534983929874002,-0.7116712112862007 c-0.3488577561558003,-0.8512149264228003 -1.1163466577214,-1.1582106912738 -1.8559272247092,-1.0744846664166001 c-0.5581728182988004,0.05581462690800004 -1.0465753107150002,0.2790864091494003 -1.5070684474295999,0.6000368518511999 c-0.09768070270800013,0.06977338925400005 -0.16745204971440017,0.15349737186360013 -0.15349737186360013,0.29304108700020015 c0.1255890372858,0.8930779388514004 0.041866075800000006,1.7861558777028002 0.05581462690800004,2.6792338165542002 c0.013958762346000008,0.6418988431560007 0,1.2977533852866001 0,1.9396532495664 c0,0.3488577561558003 0.13954371513660005,0.516310826994 0.4744478145654001,0.6000368518511999 c0.20931506214300008,0.05581462690800004 0.41863012428600005,0.09768070270800013 0.6418998642798008,0.13954269401280006 c0.09768070270800013,0.013958762346000008 0.15349737186360013,0.05581462690800004 0.15349737186360013,0.16745204971440017 v0.11163538055880008 c-0.013958762346000008,0.3907207685844003 -0.041866075800000006,0.41863012428600005 -0.4325837810130002,0.4046754464352001 c-1.1163476788452,-0.05581462690800004 -2.2326953576904,-0.041866075800000006 -3.3350883586848004,0 c-0.3767671118574003,0.013958762346000008 -0.41863012428600005,-0.027907313454000028 -0.3907207685844003,-0.41863012428600005 c0.013958762346000008,-0.22326973999380006 0.041866075800000006,-0.2372233967208001 0.2511780745716,-0.2790864091494003 c0.15349737186360013,-0.027907313454000028 0.30699474372720026,-0.05581462690800004 0.4604931367146,-0.08372194036200009 c0.41863012428600005,-0.08372194036200009 0.5581738394226001,-0.23722441784460008 0.5860821740004001,-0.6698092199814005 c0.013958762346000008,-0.30699474372720026 0.041866075800000006,-0.6279451864290007 0.041866075800000006,-0.9349399301562 c0.013958762346000008,-0.9349409512800003 0.041866075800000006,-1.8698819025600004 -0.027907313454000028,-2.8048228538400006 c-0.027907313454000028,-0.3488587772796006 -0.11163538055880008,-0.6837628767084006 -0.29304108700020015,-1.0047122982864 c-0.27908743027320015,-0.516310826994 -0.7256258891370003,-0.7814435794164002 -1.3117080631374,-0.8093519139942001 c-0.6000368518511999,-0.041866075800000006 -1.1303023566960002,0.1814057064414001 -1.6326585058392,0.4604931367146 c-0.3488587772796006,0.19536038429220018 -0.5023561491431997,0.44653845886380017 -0.4744478145654001,0.8512149264228003 c0.013958762346000008,0.6977165334354005 -0.013948551108000007,1.367524732293 0,2.0373339522744 c-0.013948551108000007,0 0,0 0,0 z" fill="#47474a" stroke-width="0" id="svg_7"/><path d="m60.441256135729724,67.18421051470497 v1.9675615841442 c0,0.13954371513660005 0.013948551108000007,0.2790864091494003 0.027907313454000028,0.41863012428600005 c0.027907313454000028,0.20931506214300008 0.13954371513660005,0.3349040994288004 0.3349040994288004,0.39072178970820026 c0.2372233967208001,0.06977338925400005 0.4884024924162001,0.11163435943500007 0.7395805669878001,0.1255890372858 c0.13954269401280006,0.013958762346000008 0.16745204971440017,0.06977338925400005 0.1814057064414001,0.18140672756520013 v0.09768070270800013 c-0.013958762346000008,0.4884024924162001 -0.06977338925400005,0.5442191615718001 -0.5442191615718001,0.516310826994 c-1.0605299885658002,-0.06977338925400005 -2.1210599771316003,-0.05581462690800004 -3.1815899656974,0 c-0.13954269401280006,0 -0.2790864091494003,0.013958762346000008 -0.41863012428600005,0.013958762346000008 c-0.08372194036200009,0 -0.11163435943500007,-0.041866075800000006 -0.1255890372858,-0.09768070270800013 c-0.041866075800000006,-0.19536038429220018 -0.041866075800000006,-0.39072178970820026 0,-0.5860821740004001 c0.013958762346000008,-0.08372194036200009 0.06977338925400005,-0.11163435943500007 0.1534983929874002,-0.1255890372858 c0.19536038429220018,-0.027907313454000028 0.3767671118574003,-0.06977338925400005 0.5721274961496002,-0.11163435943500007 c0.3488587772796006,-0.08372194036200009 0.4744478145654001,-0.22326973999380006 0.4884024924162001,-0.5860831951242002 c0.027907313454000028,-0.3907207685844003 0.041866075800000006,-0.7814425582925999 0.041866075800000006,-1.1721643480008 c0,-1.144256013423 0,-2.288512026846 0,-3.432768040269 c0,-0.2511780745716 -0.09768070270800013,-0.4046754464352001 -0.3209504427018002,-0.5163098058701999 c-0.2511780745716,-0.13954371513660005 -0.516310826994,-0.23722441784460008 -0.7953972361434005,-0.3349051205526003 c-0.08372194036200009,-0.027907313454000028 -0.16745204971440017,-0.05581462690800004 -0.2372233967208001,-0.09768070270800013 c-0.18140672756520013,-0.1255890372858 -0.19536140541600014,-0.3069957648510001 -0.027907313454000028,-0.4465394799876004 c0.08372194036200009,-0.06977338925400005 0.16745204971440017,-0.09768070270800013 0.27908743027320015,-0.11163435943500007 c0.8930779388514004,-0.13954371513660005 1.7582465220012002,-0.3349040994288004 2.5955067705732002,-0.6698081988576001 c0.09768070270800013,-0.041866075800000006 0.13954371513660005,-0.013958762346000008 0.18140672756520013,0.06977338925400005 c0.041866075800000006,0.08372194036200009 0.05581462690800004,0.18140672756520013 0.041866075800000006,0.27908743027320015 c-0.013958762346000008,0.22326871887000013 -0.027907313454000028,0.4325837810130002 -0.041866075800000006,0.6558535210068 c0,0.08372194036200009 -0.041866075800000006,0.19536038429220018 0.027907313454000028,0.2372233967208001 c0.08372194036200009,0.05581462690800004 0.13954371513660005,-0.06977338925400005 0.20931506214300008,-0.11163435943500007 c0.41863012428600005,-0.3349040994288004 0.8651696042736002,-0.6418998642798008 1.3535710755660002,-0.8651685831498004 c0.43258480213680023,-0.19536140541600014 0.8791242821244005,-0.3349051205526003 1.3814804312676006,-0.3069957648510001 c0.9349409512800003,0.05581462690800004 1.6047491501376001,0.5302644837209999 2.0373339522744,1.3535710755660002 c0.22326871887000013,0.43258480213680023 0.3209494215780002,0.9070315955784003 0.3628124340066002,1.3954340879946003 c0.027907313454000028,0.3349040994288004 0.041866075800000006,0.6837628767084006 0.041866075800000006,1.0326206328642 c0,0.9628503069816 0.013958762346000008,1.9117449149886 0.013958762346000008,2.8745942008464 v0.20931506214300008 c0.013958762346000008,0.23722441784460008 0.09768070270800013,0.39072178970820026 0.3349040994288004,0.4744478145654001 c0.2511780745716,0.08372194036200009 0.4884014712924003,0.13954371513660005 0.7535342237148004,0.18140672756520013 c0.22326973999380006,0.027907313454000028 0.2372233967208001,0.06977338925400005 0.2511780745716,0.2790864091494003 v0.06977338925400005 c-0.027907313454000028,0.4744467934416001 -0.05581462690800004,0.4884014712924003 -0.5302655048448,0.4604931367146 c-1.0465753107150002,-0.05581462690800004 -2.0931506214300004,-0.05581462690800004 -3.1257722754180004,0 c-0.13954269401280006,0.013948551108000007 -0.2790864091494003,0 -0.41863012428600005,0.013948551108000007 c-0.08372194036200009,0 -0.13954269401280006,-0.013948551108000007 -0.15349737186360013,-0.09768070270800013 c-0.027907313454000028,-0.18140672756520013 -0.05581462690800004,-0.3628134551304003 -0.013958762346000008,-0.5581738394226001 c0.013958762346000008,-0.08372194036200009 0.05581462690800004,-0.1255890372858 0.1534983929874002,-0.13954371513660005 c0.20931506214300008,-0.027907313454000028 0.4325837810130002,-0.05581462690800004 0.6418988431560007,-0.11163435943500007 c0.22326973999380006,-0.05581462690800004 0.3488587772796006,-0.19536038429220018 0.3767681329812002,-0.41863012428600005 c0.013958762346000008,-0.1255890372858 0.027907313454000028,-0.2651327524224 0.027907313454000028,-0.39072178970820026 c0,-0.9768039637085999 0,-1.9536079274172 -0.013958762346000008,-2.916457213275 c0,-0.3349040994288004 -0.013958762346000008,-0.6698081988576001 -0.08372194036200009,-1.0047122982864 c-0.16745204971440017,-0.7256258891370003 -0.7116712112862007,-1.2140283815532 -1.451251778274,-1.2977544064103999 c-0.6418988431560007,-0.06977338925400005 -1.2140273604294,0.09768070270800013 -1.7582465220012002,0.4465394799876004 c-0.2651327524224,0.16745204971440017 -0.3767671118574003,0.4046754464352001 -0.3767671118574003,0.6977165334354005 v1.4791601128518002 v0.6279462075528005 c0,-0.041866075800000006 0,-0.041866075800000006 0.013958762346000008,-0.041866075800000006 z" fill="#47474a" stroke-width="0" id="svg_8"/><path d="m101.31351911288453,63.235131647441975 c-0.15349532961600007,-1.0186669761372 -0.5302593781020001,-1.9256995928394 -1.1861169836040002,-2.7210968289828 c-0.5860842162480004,-0.7116712112862007 -1.297756448658,-1.2419356950072002 -2.148965248338,-1.5907944722868006 c-0.8791273454958004,-0.3628134551304003 -1.8140682967758002,-0.4744478145654001 -2.7629639259066003,-0.5023561491431997 c-0.3907207685844003,-0.013958762346000008 -5.7212790459912,0.06977338925400005 -6.1120008356994004,0 c-0.09768070270800013,-0.013958762346000008 -0.16745204971440017,0.013948551108000007 -0.22326973999380006,0.09768070270800013 c-0.06977338925400005,0.11163538055880008 -0.13954371513660005,0.20931608326680012 -0.18140672756520013,0.3209504427018002 c-0.16745204971440017,0.3767671118574003 -0.16745204971440017,0.3488587772796006 0.23722441784460008,0.4046754464352001 c0.3349040994288004,0.05581462690800004 0.6558535210068,0.08372194036200009 0.9768039637085999,0.18140672756520013 c0.29304108700020015,0.09768070270800013 0.5023561491431997,0.2651327524224 0.5721274961496002,0.5860821740004001 c0.027907313454000028,0.1534983929874002 0.05581462690800004,5.0654255249844 0.05581462690800004,7.3539375518304 c0,0.5442191615718001 -0.013958762346000008,1.0884393442674 -0.05581462690800004,1.6326585058392 c-0.013958762346000008,0.1255890372858 -0.027907313454000028,0.2511780745716 -0.06977338925400005,0.3628124340066002 c-0.05581462690800004,0.16745204971440017 -0.1534983929874002,0.3069957648510001 -0.3209504427018002,0.3767671118574003 c-0.1814057064414001,0.08372194036200009 -0.3767671118574003,0.13954371513660005 -0.5860821740004001,0.1534983929874002 c-0.3767671118574003,0.041866075800000006 -0.43258480213680023,0.05581462690800004 -0.5581738394226001,0.4744467934416001 c-0.013948551108000007,0.05581462690800004 -0.027907313454000028,0.11163538055880008 -0.041866075800000006,0.1534983929874002 c-0.027907313454000028,0.1814057064414001 -0.013958762346000008,0.20931506214300008 0.16745204971440017,0.20931506214300008 c0.8372612696958004,0.013958762346000008 3.4746310526976,0.041866075800000006 4.1723486072568,0.041866075800000006 c0.39072178970820026,-0.013958762346000008 1.0186669761372,0.027907313454000028 1.6326574847154,-0.027907313454000028 c0.3767671118574003,-0.041866075800000006 0.7535342237148004,-0.06977338925400005 1.1303013355722,-0.13954269401280006 c1.2837997285596,-0.23722441784460008 2.4280577842302002,-0.7674889015656001 3.4048648113102002,-1.6187038279884 c0.5721152426640004,-0.5023561491431997 1.004714340534,-1.0884383231436001 1.3396021019820006,-1.7582465220012002 c0.3907228108320003,-0.7814435794164002 0.5581769027940001,-1.6326585058392 0.600053189832,-2.497827088989 c0.06974275554000009,-0.4884024924162001 0.041866075800000006,-0.9907586415594001 -0.041866075800000006,-1.4931147907026001 zm-2.023377232176,1.9815162619949998 c-0.055855471860000006,0.8930779388514004 -0.23722748121600007,1.7582465220012002 -0.6977134700640005,2.5396901014176 c-0.5860842162480004,1.0186669761372 -1.4233475281914,1.7303381874234005 -2.5815582194652,1.9815162619949998 c-0.5023561491431997,0.11163538055880008 -1.0047122982864,0.1534983929874002 -1.5210231252804003,0.08372194036200009 c-0.3767671118574003,-0.041866075800000006 -0.7395795458640001,-0.08372194036200009 -1.0884383231436001,-0.20931506214300008 c-0.6279451864290007,-0.22326973999380006 -0.8512149264228003,-0.6139905085782005 -0.8651685831498004,-1.2140273604294 c-0.027907313454000028,-0.8791232610006001 0,-7.0329881302524 -0.013958762346000008,-8.4144675403962 c0,-0.5023561491431997 0.22326973999380006,-0.6139915297020001 0.5860821740004001,-0.6279451864290007 c0.5442191615718001,-0.041866075800000006 1.1023930009944,-0.027907313454000028 1.6466121625662,0.027907313454000028 c0.5860821740004001,0.05581462690800004 1.144256013423,0.19536038429220018 1.6884751749948004,0.41863012428600005 c0.40467646755900033,0.16745204971440017 0.7814435794164002,0.40467646755900033 1.1023930009944,0.6837628767084006 c0.7535423927052002,0.6418998642798008 1.2558944573532,1.451251778274 1.5210292520232,2.400146386281 c0.22326871887000013,0.7674889015656001 0.26513479467,1.5489324809820002 0.22326871887000013,2.3303750392746 z" fill="#c2bfbf" stroke-width="0" id="svg_9"/><path d="m112.90957457673053,66.58417366285377 c0,-0.08372194036200009 0,-0.1534983929874002 -0.013989396060000008,-0.23722441784460008 c-0.12558801616200008,-0.7674889015656001 -0.5302695893399998,-1.3535710755660002 -1.15820967015,-1.8001095344298006 c-0.40468157317800035,-0.29304108700020015 -0.8651675620260001,-0.4884024924162001 -1.3396225244580002,-0.6279451864290007 c-0.08373215160000008,-0.027907313454000028 -0.15349532961600007,-0.05581462690800004 -0.23721726997800008,-0.06977338925400005 c0.013989396060000008,-0.06977338925400005 0.055855471860000006,-0.08372194036200009 0.09772154766000012,-0.09768070270800013 c0.27908334577800015,-0.13954371513660005 0.544218140448,-0.29304108700020015 0.7814354104260004,-0.5023561491431997 c0.43258888663200024,-0.3628134551304003 0.7256309947560001,-0.8093519139942001 0.8651675620260001,-1.3535710755660002 c0.08373215160000008,-0.29304108700020015 0.08373215160000008,-0.5860831951242002 0.055855471860000006,-0.8930779388514004 c-0.06974275554000009,-0.7674889015656001 -0.40468157317800035,-1.3675257534168002 -1.01867310288,-1.8140642122806 c-0.6418988431560007,-0.4744478145654001 -1.3954269401280004,-0.6698092199814005 -2.176872561792,-0.6837628767084006 c-1.507066405182,-0.027907313454000028 -3.02809157271,0 -4.535157977892,0 c-0.43258888663200024,0 -0.8651777732640002,0.027907313454000028 -1.311715211004,-0.041866075800000006 c-0.08373215160000008,-0.013958762346000008 -0.19536140541600014,-0.041866075800000006 -0.26512458343199996,0.05581462690800004 c-0.11163946505400002,0.18140672756520013 -0.22327893010800012,0.3628134551304003 -0.26513479467,0.5721285172734005 c-0.013989396060000008,0.09768070270800013 0.013989396060000008,0.15349737186360013 0.12558801616200008,0.16745204971440017 c0.3209494215780002,0.041866075800000006 0.6418988431560007,0.09768070270800013 0.9628482647340003,0.13954371513660005 c0.3767640484860001,0.05581462690800004 0.6418988431560007,0.26513173129859985 0.6698061566100006,0.6000368518511999 c0.027876679740000018,0.2372233967208001 0.041866075800000006,0.4604931367146 0.041866075800000006,0.6977165334354005 c0,0.8651696042736002 -0.013989396060000008,1.7442928652742002 -0.027876679740000018,2.609461448424 c-0.027876679740000018,1.7163845306964003 -0.013989396060000008,3.4467227181198004 -0.013989396060000008,5.1631062276924 c0,0.3069957648510001 -0.041866075800000006,0.6000368518511999 -0.09772154766000012,0.9070326167021999 c-0.041866075800000006,0.20931506214300008 -0.15349532961600007,0.3488577561558003 -0.36281549737800034,0.41863012428600005 c-0.27908334577800015,0.08372194036200009 -0.544218140448,0.16745204971440017 -0.8372602485720001,0.16745204971440017 c-0.18140264307000006,0 -0.29303189688600007,0.06977338925400005 -0.3628052861400002,0.2372233967208001 c-0.055855471860000006,0.1255890372858 -0.11163946505400002,0.2651327524224 -0.12558801616200008,0.39072178970820026 c-0.027876679740000018,0.16745204971440017 0.013989396060000008,0.22326973999380006 0.18140264307000006,0.19536038429220018 c0.12558801616200008,-0.013948551108000007 4.7305193833080015,0.09768070270800013 5.595686945334,0.013958762346000008 c0.516310826994,-0.05581462690800004 1.032621653988,-0.1255890372858 1.5349839298739996,-0.2790864091494003 c0.8791161131340003,-0.27908743027320015 1.6884690482520002,-0.6837628767084006 2.330367891408,-1.3675257534168002 c0.5302695893399998,-0.5581738394226001 0.8372602485720001,-1.2279820382802 0.8651777732640002,-2.0094245965728 c0.041866075800000006,-0.18140672756520013 0.041866075800000006,-0.3628134551304003 0.041866075800000006,-0.5581738394226001 zm-6.767855377830001,-5.7073253892642 c0.027876679740000018,-0.3767671118574003 0.027876679740000018,-0.7395805669878001 0.041866075800000006,-1.1163476788452 c0,-0.20931506214300008 0.08373215160000008,-0.3069957648510001 0.29304210812400017,-0.3488587772796006 c0.33490818392400046,-0.06977338925400005 0.6698061566100006,-0.041866075800000006 1.004714340534,-0.027907313454000028 c0.3348979726860003,0.027907313454000028 0.6558473942640005,0.06977338925400005 0.9907555781880002,0.16745204971440017 c0.6139915297020001,0.18140672756520013 1.088436280896,0.5302655048448 1.367529837912,1.1163476788452 c0.12558801616200008,0.26513173129859985 0.1953511941780001,0.5581728182988004 0.1953511941780001,0.8512149264228003 c0.013989396060000008,0.3907207685844003 -0.013989396060000008,0.7674878804418004 -0.16744388072400018,1.1442549922992 c-0.23722748121600007,0.516310826994 -0.6139915297020001,0.8512149264228003 -1.15820967015,0.9488956291308004 s-2.0931506214300004,0.05581462690800004 -2.3303781026459998,0.05581462690800004 c-0.2093201677620001,0 -0.22326871887000013,-0.027907313454000028 -0.22326871887000013,-0.23722441784460008 c0,-0.44653845886380017 0,-0.8930779388514004 0,-1.3256617198644 c-0.027876679740000018,-0.39072178970820026 -0.041866075800000006,-0.8093519139942001 -0.013989396060000008,-1.2279820382802 zm4.53516818913,7.507434923694 c-0.23722748121600007,0.6279451864290007 -0.6698163678480001,1.0605299885658002 -1.28380789755,1.2977533852866001 c-0.3348979726860003,0.12559005840960002 -0.6698061566100006,0.19536140541600014 -1.032621653988,0.18140672756520013 c-0.4325786753940004,-0.013958762346000008 -0.8651675620260001,0 -1.2977462374200002,-0.08372194036200009 c-0.5860842162480004,-0.1255890372858 -0.8512190109180003,-0.6837628767084006 -0.8930850867180004,-1.0884383231436001 c-0.06974275554000009,-0.7116712112862007 -0.027876679740000018,-1.4372971004232 -0.041866075800000006,-1.967562605268 c0,-0.7395795458640001 0,-1.2837987074358002 0,-1.8419725468584 c0,-0.22326973999380006 0.027876679740000018,-0.29304108700020015 0.26512458343199996,-0.29304108700020015 c0.43258888663200024,-0.013958762346000008 0.8651777732640002,-0.027907313454000028 1.311715211004,0.013958762346000008 c0.30699065923200025,0.027907313454000028 0.6000327673560002,0.05581462690800004 0.8930748754800006,0.11163435943500007 c0.6279502920480006,0.13954371513660005 1.2000757459500002,0.3767671118574003 1.6466131836900004,0.8651696042736002 c0.36281549737800034,0.3907207685844003 0.5581769027940001,0.8651685831498004 0.6000327673560002,1.3814794101438004 c0.041866075800000006,0.4884014712924003 0.013989396060000008,0.9628492858578 -0.16744388072400018,1.4233424225724 z" fill="#c2bfbf" stroke-width="0" id="svg_10"/><g fill="#47474a" stroke-width="0" id="svg_11"><path d="m75.21890258639692,64.17007259872197 c0.1255890372858,0.013948551108000007 0.2511780745716,0.041866075800000006 0.3628134551304003,0.05581462690800004 c0.3907207685844003,0.013948551108000007 0.8512139052990002,-0.12559005840960002 0.9907576204356,-0.6698092199814005 c0.06977338925400005,-0.26513173129859985 0.08372194036200009,-0.5163098058701999 0,-0.7953972361434005 c-0.08372194036200009,0 -0.1255890372858,0.06977338925400005 -0.16745204971440017,0.09768070270800013 c-0.20931506214300008,0.16745204971440017 -0.44653845886380017,0.2651327524224 -0.6977165334354005,0.29304108700020015 c-0.5023561491431997,0.05581462690800004 -1.0047133194102,0.027907313454000028 -1.4931147907026001,-0.15349737186360013 c-0.22326973999380006,-0.08372194036200009 -0.4465394799876004,-0.16745204971440017 -0.6837628767084006,-0.23722441784460008 c-0.4744478145654001,-0.15349737186360013 -0.9768039637085999,-0.22326973999380006 -1.4791601128518002,-0.19536038429220018 c-0.7116712112862007,0.05581462690800004 -1.3814794101438004,0.29304108700020015 -2.0094245965728,0.6279451864290007 c-0.6698092199814005,0.3628124340066002 -1.144256013423,0.9070315955784003 -1.3675257534168002,1.6466121625662 c-0.1255890372858,0.43258480213680023 -0.13954371513660005,0.8791232610006001 -0.08372194036200009,1.3256627409882 c0.13954371513660005,1.0186669761372 0.6698081988576001,1.7303381874234005 1.6187038279884,2.1071052992808 c0.05581462690800004,0.013958762346000008 0.09768070270800013,0.041866075800000006 0.15349737186360013,0.05581462690800004 c0.1255890372858,0.06977338925400005 0.13954371513660005,0.13954371513660005 0.027907313454000028,0.23722441784460008 c-0.11163435943500007,0.08372194036200009 -0.22326871887000013,0.16745204971440017 -0.3488577561558003,0.2372233967208001 c-0.27908743027320015,0.16745204971440017 -0.5581738394226001,0.3349040994288004 -0.8372612696958004,0.516310826994 c-0.20931506214300008,0.1255890372858 -0.2372233967208001,0.22326973999380006 -0.16745204971440017,0.44653845886380017 c0.08372194036200009,0.2651327524224 0.23722441784460008,0.4884024924162001 0.4465394799876004,0.6698092199814005 c0.19536038429220018,0.16745204971440017 0.4046754464352001,0.29304108700020015 0.6418998642798008,0.3907207685844003 c0.15349737186360013,0.06977338925400005 0.15349737186360013,0.11163538055880008 0.013958762346000008,0.22326973999380006 c-0.26513173129859985,0.19536140541600014 -0.5302644837209999,0.3767671118574003 -0.7953972361434005,0.5721285172734005 c-0.2651327524224,0.19536038429220018 -0.5302644837209999,0.41863012428600005 -0.7535342237148004,0.6698081988576001 c-0.3209494215780002,0.3628124340066002 -0.43258480213680023,0.7814425582925999 -0.3349040994288004,1.255890372858 c0.11163435943500007,0.5023561491431997 0.3488587772796006,0.9070326167021999 0.7256258891370003,1.255890372858 c0.3628124340066002,0.3349040994288004 0.7953972361434005,0.5721285172734005 1.2837987074358002,0.6977175545592005 c0.7814435794164002,0.22326973999380006 1.5907954934106006,0.2372233967208001 2.386192729554,0.08372194036200009 c1.144256013423,-0.20931506214300008 2.1350136338586,-0.7256258891370003 2.9304118911258,-1.5768408155598008 c0.5442191615718001,-0.5721274961496002 0.8651685831498004,-1.2419356950072002 0.8930769177276001,-2.0512876090014003 c0.041866075800000006,-0.9768039637085999 -0.5581728182988004,-1.8001105555536003 -1.5070684474295999,-2.0373339522744 c-0.2511780745716,-0.05581462690800004 -0.5023561491431997,-0.09768070270800013 -0.7535342237148004,-0.13954371513660005 c-0.7674889015656001,-0.09768070270800013 -1.5349778031312,-0.13954371513660005 -2.3024667046968,-0.19536038429220018 c-0.2511780745716,-0.013958762346000008 -0.5023561491431997,-0.05581462690800004 -0.7116712112862007,-0.18140672756520013 c-0.2651327524224,-0.16745204971440017 -0.3349040994288004,-0.4884014712924003 -0.16745204971440017,-0.6977165334354005 c0.1255890372858,-0.1534983929874002 0.27908743027320015,-0.2511780745716 0.4744478145654001,-0.2651327524224 c0.15349737186360013,-0.013958762346000008 0.29304108700020015,-0.027907313454000028 0.44653845886380017,-0.041866075800000006 c0.9070326167021999,-0.09768070270800013 1.6884751749948004,-0.4604931367146 2.3582843949762005,-1.0744846664166001 c0.3488577561558003,-0.3209494215780002 0.5860821740004001,-0.7256258891370003 0.7116712112862007,-1.1861190258516001 c0.16745204971440017,-0.6000368518511999 0.16745204971440017,-1.2140273604294 0.027907313454000028,-1.8280178690075999 c-0.041866075800000006,-0.1534983929874002 -0.027907313454000028,-0.16745307083820016 0.16745204971440017,-0.13954371513660005 zm-3.4188133624182,6.9492610842714 c0.08372194036200009,0.013958762346000008 0.16745204971440017,0 0.2511780745716,0 c0.5860821740004001,0.027907313454000028 1.1861190258516001,0.06977338925400005 1.7582475431250004,0.22326973999380006 c0.19536038429220018,0.05581462690800004 0.3628124340066002,0.1255890372858 0.5442191615718001,0.20931506214300008 c0.5581728182988004,0.3069957648510001 0.7674878804418004,0.8372602485720001 0.6977165334354005,1.4093887658454005 c-0.08372194036200009,0.6279451864290007 -0.43258480213680023,1.0744846664166001 -0.9768039637085999,1.3675257534168002 c-0.3628124340066002,0.19536038429220018 -0.7674889015656001,0.29304108700020015 -1.1861190258516001,0.3349040994288004 c-0.15349737186360013,0.013948551108000007 -0.29304108700020015,0 -0.44653845886380017,0 c-0.4884024924162001,0.013948551108000007 -0.9628492858578,-0.041866075800000006 -1.4233424225724,-0.23722441784460008 c-0.3209504427018002,-0.1255890372858 -0.5860831951242002,-0.30699474372720026 -0.8233065918449999,-0.5581738394226001 c-0.4884014712924003,-0.4884014712924003 -0.7256258891370003,-1.3814794101438004 0.013958762346000008,-2.1071052992808 c0.44653845886380017,-0.41863012428600005 0.9488946080070002,-0.6977165334354005 1.5907944722868006,-0.6418998642798008 zm1.5907944722868006,-4.3537543136982 c-0.29304108700020015,0.7395805669878001 -0.9349399301562,0.9628503069816 -1.5768397944360002,0.8651696042736002 c-0.5860821740004001,-0.08372194036200009 -1.0186669761372,-0.4046754464352001 -1.2977544064103999,-0.9349409512800003 c-0.3628124340066002,-0.7116712112862007 -0.4604931367146,-1.451251778274 -0.2511780745716,-2.2187396587158 c0.1534983929874002,-0.5721285172734005 0.5023561491431997,-1.0047133194102 1.1163476788452,-1.1023930009944 c0.7814425582925999,-0.13954371513660005 1.5210231252804003,0.13954269401280006 1.9256985717155999,0.9209862734292 c0.19536140541600014,0.3767671118574003 0.29304108700020015,0.8372602485720001 0.29304108700020015,1.4931147907026001 c-0.013958762346000008,0.26513173129859985 -0.06977338925400005,0.6279451864290007 -0.20931506214300008,0.9768029425848 z" stroke-width="0" id="svg_12"/><path d="m55.80841439175832,65.81668476128817 c-0.1255890372858,-0.7535342237148004 -0.4046754464352001,-1.4372971004232 -0.9209862734292,-2.0094256176966 c-0.7674889015656001,-0.8512139052990002 -1.7442928652742002,-1.2140273604294 -2.8466858662686008,-1.2279820382802 c-0.9628492858578,-0.013948551108000007 -1.8698808814362002,0.2651327524224 -2.6792327954304005,0.7674889015656001 s-1.3675257534168002,1.2140283815532 -1.6326585058392,2.1350146549824 c-0.2372233967208001,0.8093519139942001 -0.22326871887000013,1.6326574847154 -0.041866075800000006,2.4559640765604 c0.4884024924162001,2.2047860019888 2.1908313241379997,3.1536806099958 4.2281652764124,3.0141368948592 c0.6000368518511999,-0.041866075800000006 1.1721653691246001,-0.2372233967208001 1.7163845306964003,-0.5023561491431997 c0.8093519139942001,-0.3767671118574003 1.3954340879946003,-0.9768039637085999 1.8001095344298006,-1.7722011998520002 c0.3209504427018002,-0.6558535210068 0.4604931367146,-1.3535710755660002 0.4465394799876004,-2.1489683117094 c-0.013958762346000008,-0.19536038429220018 -0.027907313454000028,-0.4604931367146 -0.06977338925400005,-0.7116712112862007 zm-1.9815162619949998,3.0978639408402002 c-0.2511780745716,0.6698081988576001 -0.7256258891370003,1.0744836452928002 -1.4372971004232,1.1721643480008 c-0.6139905085782005,0.08372602485720011 -1.1861190258516001,-0.06977134700640007 -1.7024298528456003,-0.43258480213680023 c-0.3767671118574003,-0.2790864091494003 -0.6698081988576001,-0.6279451864290007 -0.8791232610006001,-1.0465753107150002 c-0.5721274961496002,-1.1721643480008 -0.6698081988576001,-2.400146386281 -0.3767671118574003,-3.6560377802628 c0.09768070270800013,-0.3907207685844003 0.29304108700020015,-0.7395795458640001 0.5860821740004001,-1.0186669761372 c0.516310826994,-0.4744467934416001 1.1163476788452,-0.5860821740004001 1.7861558777028002,-0.44653845886380017 c0.6418998642798008,0.13954371513660005 1.1303013355722,0.4884014712924003 1.5210231252804003,1.0186669761372 c0.39072178970820026,0.5302644837209999 0.5860821740004001,1.144256013423 0.6977165334354005,1.7861558777028002 c0.05581462690800004,0.3209494215780002 0.05581462690800004,0.6558535210068 0.06977338925400005,0.8651685831498004 c0,0.6698081988576001 -0.05581462690800004,1.2140273604294 -0.2651327524224,1.7582475431250004 z" stroke-width="0" id="svg_13"/><path d="m86.29864926549654,65.92831912072317 c-0.11163435943500007,-0.8093519139942001 -0.4046754464352001,-1.5489314598582 -0.9768039637085999,-2.1629229895602 c-0.7535342237148004,-0.8233055707211999 -1.7303381874234005,-1.1721643480008 -2.818776510567,-1.1861190258516001 c-0.9349409512800003,-0.013948551108000007 -1.8001105555536003,0.25117909569540015 -2.5955077916970004,0.7116722324100007 c-0.8930779388514004,0.5302644837209999 -1.5070684474295999,1.2837987074358002 -1.7442918441504005,2.302465683573 c-0.27908743027320015,1.144256013423 -0.16745204971440017,2.2606036922682002 0.3349040994288004,3.321133680834 c0.4604931367146,0.9768039637085999 1.2419356950072002,1.6047491501376001 2.2745573489952,1.8838355592870002 c1.144256013423,0.3069957648510001 2.2326943365666003,0.16745204971440017 3.2932243251324,-0.3488587772796006 c0.9209862734292,-0.44653845886380017 1.5768408155598008,-1.144256013423 1.9536079274172,-2.0931506214300004 c0.22326871887000013,-0.5581738394226001 0.30699474372720026,-1.1582106912738 0.3209494215780002,-1.8559272247092 c0.013958762346000008,-0.1255890372858 -0.013958762346000008,-0.3488587772796006 -0.041866075800000006,-0.5721285172734005 zm-1.9256985717155999,2.8048228538400006 c-0.22326973999380006,0.7535342237148004 -0.6977175545592005,1.241936716131 -1.4931147907026001,1.3535710755660002 c-0.5860821740004001,0.08372194036200009 -1.144256013423,-0.05581462690800004 -1.6466121625662,-0.39072178970820026 c-0.43258480213680023,-0.29304108700020015 -0.7395805669878001,-0.6837628767084006 -0.9628492858578,-1.144256013423 c-0.2511780745716,-0.4884014712924003 -0.39072178970820026,-1.0047122982864 -0.4465394799876004,-1.5349767820074 c-0.08372194036200009,-0.6558545421306002 -0.08372194036200009,-1.2977544064103999 0.06977338925400005,-1.9536079274172 c0.027907313454000028,-0.1255890372858 0.06977338925400005,-0.2511780745716 0.1255890372858,-0.3767671118574003 c0.3907207685844003,-0.9768039637085999 1.255890372858,-1.4233434436962 2.2745573489952,-1.2000737037024 c0.6837628767084006,0.15349737186360013 1.2000726825786001,0.5302644837209999 1.5907944722868006,1.1023930009944 c0.3767671118574003,0.5581738394226001 0.5581738394226001,1.1721643480008 0.6418998642798008,1.8280188901314 c0.041866075800000006,0.26513173129859985 0.05581462690800004,0.5442191615718001 0.041866075800000006,0.7814425582925999 c0,0.5442191615718001 -0.041866075800000006,1.0465753107150002 -0.19536038429220018,1.5349778031312 z" stroke-width="0" id="svg_14"/></g></g></g></g></svg>