<svg xmlns:dc="http://purl.org/dc/elements/1.1/" xmlns:cc="http://creativecommons.org/ns#" xmlns:rdf="http://www.w3.org/1999/02/22-rdf-syntax-ns#" xmlns:svg="http://www.w3.org/2000/svg" xmlns="http://www.w3.org/2000/svg" height="319.32001" width="319.32001" xml:space="preserve" version="1.1"><rect id="backgroundrect" width="100%" height="100%" x="0" y="0" fill="none" stroke="none"/><metadata id="metadata8"><rdf:RDF><cc:Work rdf:about=""><dc:format>image/svg+xml</dc:format><dc:type rdf:resource="http://purl.org/dc/dcmitype/StillImage"/></cc:Work></rdf:RDF></metadata><defs id="defs6"/><g class="currentLayer" style=""><title>Layer 1</title><g id="g12" stroke-width="0" class=""><path id="path14" style="fill:#ffffff;fill-opacity:1;fill-rule:nonzero;stroke:none" d="M319.31799701449114,270.3206675720215 H0.0020002392120659356 V48.99933647377665 H319.31799701449114 V270.3206675720215 " stroke-width="0"/><path id="path16" style="fill:#5b85a4;fill-opacity:1;fill-rule:evenodd;stroke:none" d="m197.02733158281828,104.56466924596464 c-1.0586666559753624,0 -1.8053333151015625,0.1279999987073487 -2.558666640827104,0.3133333301690304 v0.1253333320676122 h0.12133333210800754 c0.5039999949101853,0.9959999899415563 1.3786666527437341,1.68799998295316 1.9973333131625854,2.5599999741469723 c0.5026666615903167,0.9986666565812927 0.9399999905070917,1.9933333132029807 1.4386666521378033,2.9933333031041416 c0.06133333271393791,-0.06133333271393791 0.12133333210800754,-0.1266666653874804 0.12133333210800754,-0.1266666653874804 c0.8799999911130219,-0.6213333270585882 1.3159999867099281,-1.6186666503200127 1.3159999867099281,-3.118666635171754 c-0.3773333295227048,-0.4399999955565108 -0.4359999955969063,-0.8733333245136806 -0.750666659085805,-1.3119999867503231 c-0.37333332956310006,-0.6226666603784564 -1.1853333213628428,-0.9346666572276184 -1.6853333163134236,-1.4346666521781988 " stroke-width="0"/><path id="path18" style="fill:#2c7493;fill-opacity:1;fill-rule:nonzero;stroke:none" d="m97.7451992521192,227.74466800198965 h-8.644266579369608 c-0.30466666358988737,-14.590666519317873 -1.1467999884186515,-28.310399714097827 -2.5243999745064905,-41.16253291763953 h-0.07613333256447506 L73.33893283192752,227.74466800198965 h-6.581733266865467 l-13.081733201223013,-41.16253291763953 h-0.07706666588838289 C52.62799970775056,198.92480162637017 52.0175997139149,212.64466815448213 51.76399971647596,227.74466800198965 h-7.881733253736977 c0.5093333281896576,-18.364133147876906 1.7837333153196977,-35.578666307363434 3.8238666280500517,-51.64799947841516 h10.714133225133024 l12.471333207387344,37.94946628342111 h0.07653333256043555 l12.54786653994778,-37.94946628342111 h10.251599896470742 C96.01239926961848,194.91653500018236 97.33799925623147,212.1368014929443 97.7451992521192,227.74466800198965 " stroke-width="0"/><path id="path20" style="fill:#2c7493;fill-opacity:1;fill-rule:nonzero;stroke:none" d="M135.2366655401656,189.63946838680795 C131.71653224238153,208.73946819392012 127.07333228927244,222.61906805375224 121.31039901413806,231.27800129964044 c-4.490666621316147,6.671866599288559 -9.409999904969924,10.007733232266846 -14.766666517540477,10.007733232266846 c-1.4281333189108447,0 -3.1890666344607954,-0.43013332898948614 -5.278666613358262,-1.2847999870250115 v-4.604266620168918 c1.020799989691105,0.14946666515722695 2.218666644260709,0.2291999976853462 3.5962666303485484,0.2291999976853462 c2.4990666414289944,0 4.513066621089933,-0.6906666596917354 6.045333272282486,-2.069199979103482 c1.8349333148026368,-1.6797333163699772 2.753199972195876,-3.5677332973033686 2.753199972195876,-5.659999942840571 c0,-1.4290666522347526 -0.7161333261012182,-4.361466622620917 -2.1422666450322603,-8.79733324449048 l-9.486933237526321,-29.459866369156217 h8.492133247572646 l6.808933264571011,22.033333110822245 c1.5295999845528157,5.0025332828135545 2.167599978109757,8.494799914212381 1.9123999806869802,10.48533322744364 c3.723999962391923,-9.946799899548868 6.325599936118784,-20.786933123409437 7.8057332545044895,-32.51866633826588 h8.186799917322825 " stroke-width="0"/><path id="path22" style="fill:#f18513;fill-opacity:1;fill-rule:nonzero;stroke:none" d="m250.308664378072,227.74466800198965 h-24.558666418652646 v-51.64799947841516 h8.263999916543193 V221.3914680661496 H250.308664378072 V227.74466800198965 " stroke-width="0"/><path id="path24" style="fill:#f18513;fill-opacity:1;fill-rule:evenodd;stroke:none" d="m188.5659983349346,217.41280143966284 c-2.0919999788732286,-3.3666666326672416 -3.1399999682896453,-8.76919991144126 -3.1399999682896453,-16.218666502876964 c0,-13.005199868662578 3.9546666267291246,-19.512533136279398 11.859999880227768,-19.512533136279398 c4.133333291591465,0 7.166666594291653,1.5562666509501801 9.106666574699906,4.6655999528828564 c2.0893333122334923,3.3682666326510837 3.137333301649909,8.723999911897728 3.137333301649909,16.06933317105172 c0,13.109333200944285 -3.9546666267291246,19.666666468056164 -11.859999880227768,19.666666468056164 c-4.131999958271597,0 -7.166666594291653,-1.5546666509663383 -9.10399990806017,-4.670399952834382 m30.757333022719976,11.57719988308372 l-9.493333237461687,-4.681333286057301 c0.8453333247964478,-0.6931999929994854 1.647999983357113,-1.4410666521135662 2.3746666426852903,-2.306799976703998 c4.030666625961612,-4.738533285479648 6.047999938922222,-11.751999881318444 6.047999938922222,-21.037466454212677 c0,-17.086399827447195 -6.707999932256988,-25.634399741122323 -20.122666463451093,-25.634399741122323 c-6.579999933549639,0 -11.707999881762792,2.1666666447858485 -15.379999844679855,6.5062666009609265 c-4.031999959281481,4.7442666187550815 -6.045333272282486,11.731333214860486 -6.045333272282486,20.964666454947874 c0,9.078533241650685 1.7839999819836714,15.738533174392419 5.35466661259075,19.969199798334262 c3.2653333003572573,3.8239999613820395 8.187999917310705,5.738533275380809 14.769333184180212,5.738533275380809 c2.4573333085171196,0 4.7119999524142715,-0.3025333302780978 6.761333265051716,-0.9077333241662805 l12.362666541818085,7.194266594012926 l3.3706666326268464,-5.8051999413742195 " stroke-width="0"/><path id="path26" style="fill:#f18513;fill-opacity:1;fill-rule:nonzero;stroke:none" d="m173.1033318244229,213.42853481323266 c0,4.3801332890990725 -1.609333317080935,7.9759999194516595 -4.817333284683859,10.78946655770558 c-3.2106666342426604,2.801066638379145 -7.5239999240163336,4.205333290864349 -12.925333202802472,4.205333290864349 c-5.051999948980665,0 -9.947999899536748,-1.6162666503442498 -14.690666518307989,-4.822399951299358 l2.218666644260709,-4.436533288529497 c4.0813332921166054,2.040133312730355 7.774666588151559,3.058933302441658 11.09066655466381,3.058933302441658 c3.1106666352525445,0 5.545333277331905,-0.6922666596755774 7.306666592877815,-2.0599999791963914 c1.7573333155863067,-1.3775999860878394 2.8106666382821963,-3.2989333000179366 2.8106666382821963,-5.735866608741072 c0,-3.0666666356968935 -2.138666645068616,-5.687999942557803 -6.062666605440771,-7.88706658701645 c-3.6226666300819392,-1.987999979923508 -10.862666556966344,-6.138533271341274 -10.862666556966344,-6.138533271341274 c-3.9226666270522874,-2.8614666377691753 -5.889333273857904,-5.931733273429713 -5.889333273857904,-10.990533222341707 c0,-4.18386662441447 1.466666651855036,-7.56573325692821 4.395999955605503,-10.138533230945917 c2.9359999703498083,-2.5781333072971795 6.723999932095406,-3.8671999609457703 11.362666551916924,-3.8671999609457703 c4.7946666182461,0 9.154666574215161,1.2795999870775254 13.081333201227054,3.829599961325486 l-1.994666646522849,4.432399955237906 c-3.3599999660679005,-1.4245333189472007 -6.673333265940413,-2.139599978392524 -9.93999989961754,-2.139599978392524 c-2.6506666398980103,0 -4.693333285936116,0.6363999935730993 -6.117333271555369,1.9166666473105587 c-1.4319999855384624,1.2691999871825534 -2.317333309930957,2.902533304021116 -2.317333309930957,4.8931999505843615 c0,3.0587999691096712 2.185333311264004,5.7119999423154315 6.2199999371852215,7.953599919677874 c3.6679999629574587,1.9890666465794027 11.085333221384335,6.219866603853235 11.085333221384335,6.219866603853235 c4.034666625921218,2.8562666378216894 6.045333272282486,5.901466607068705 6.045333272282486,10.917199889748955 " stroke-width="0"/><path id="path28" style="fill:#2c7493;fill-opacity:1;fill-rule:evenodd;stroke:none" d="m260.67933094000693,158.79613536495646 c-4.994666616226332,-0.12493333207165173 -8.862666577164022,0.3734666628950871 -12.106666544403389,1.747466649019282 c-0.9359999905474868,0.3739999962230343 -2.431999975439623,0.3739999962230343 -2.5599999741469723,1.5598666509138241 c0.5026666615903167,0.4983999949667387 0.5626666609843866,1.3087999867826394 1.0026666565408973,1.9983999798184802 c0.7466666591262001,1.2479999873966487 2.0546666459169187,2.930266637074375 3.242666633919498,3.8062666282277924 c1.310666653430455,0.9989333232452662 2.62133330686091,1.9937333131989412 3.9959999596450393,2.867199971044609 c2.431999975439623,1.504133318143333 5.1786666143681455,2.373999976025356 7.546666590454095,3.8723999608932553 c1.3773333194238657,0.8723999911897732 2.745333305608654,1.994799979854836 4.12266662503252,2.933333303710072 c0.6839999930923945,0.498933328294686 1.1173333220495638,1.3114666534223758 1.994666646522849,1.6202666503038543 v-0.18906666475731293 c-0.4399999955565108,-0.5598666610126628 -0.5626666609843866,-1.3713333194844588 -0.9973333232614243,-1.9989333131464273 c-0.6226666603784564,-0.6191999937467991 -1.2479999873966487,-1.184399988038935 -1.8733333144148416,-1.805733315097523 c-1.8106666483810354,-2.4333333087594915 -4.059999958998714,-4.553066620685979 -6.487999934478732,-6.3005332697052605 c-1.9986666464824534,-1.3765333194319447 -6.369333269010461,-3.2489333005228787 -7.177333260850599,-5.550933277275351 c0,0 -0.06533333267354252,-0.06613333266546348 -0.1266666653874804,-0.1275999987113882 c1.3733333194642614,-0.1266666653874804 2.9986666363836143,-0.6266666603380608 4.307999956494202,-1.005199989848647 c2.118666645270593,-0.5599999943446504 4.053333292399372,-0.4333333289571698 6.237333270343508,-0.9933333233018197 c0.9999999899011607,-0.2514666641271454 1.9986666464824534,-0.5655999942880968 3.001333303023351,-0.8723999911897732 v-0.5655999942880968 c-1.1293333219283779,-1.1207999886812212 -1.9373333137685156,-2.6207999735329626 -3.1226666351313592,-3.6806666294962063 c-3.179999967885692,-2.744799972280706 -6.678666599219887,-5.426133278535686 -10.297333229342222,-7.676133255813298 c-1.9373333137685156,-1.2483999873926093 -4.433333288561814,-2.055733312572813 -6.4933332677582065,-3.119199968499701 c-0.7453333258063315,-0.3750666628789289 -1.9919999798831127,-0.5598666610126628 -2.430666642119755,-1.187466654674632 c-1.123999988648905,-1.372399986140353 -1.7506666489869658,-3.179733301221718 -2.5599999741469723,-4.804799951477098 c-1.807999981741299,-3.42839996537714 -3.558666630728265,-7.233733260281024 -5.1159999483343395,-10.8590665570027 c-1.1226666553290368,-2.431999975439623 -1.809333315061167,-4.863999950879246 -3.1826666345254284,-7.111999928177057 c-6.430666601724399,-10.610666559511252 -13.417333197833843,-17.03466649463631 -24.15066642277297,-23.338666430973227 c-2.3093333100117475,-1.3119999867503231 -5.054666615620401,-1.8733333144148416 -7.9853332526907375,-2.5599999741469723 c-1.5626666508855476,-0.06533333267354252 -3.1213333018114904,-0.18666666478155003 -4.681333286057301,-0.24799999749548804 c-0.9999999899011607,-0.4386666622366429 -1.9999999798023218,-1.6253333169193536 -2.871999970996134,-2.186666644583872 c-3.558666630728265,-2.2453333106580735 -12.727999871461975,-7.111999928177057 -15.350666511642753,-0.6853333264122623 c-1.6853333163134236,4.058666625678845 2.4959999747932975,8.05066658536428 3.9319999602913644,10.11066656456067 c1.0599999892952305,1.4333333188583306 2.43466664207936,3.0586666357776844 3.179999967885692,4.678666619417565 c0.4373333289167744,1.0613333226150987 0.5626666609843866,2.186666644583872 1.001333323221029,3.30799996659304 c0.9973333232614243,2.745333305608654 1.931999980489043,5.803999941386338 3.2453333005592344,8.36399991553331 c0.6839999930923945,1.310666653430455 1.4319999855384624,2.6853333062145843 2.3053333100521427,3.8653332942979537 c0.5039999949101853,0.6906666596917354 1.3746666527841294,0.9986666565812927 1.5626666508855476,2.125333311869934 c-0.8706666578739441,1.2466666540767806 -0.9386666571872231,3.118666635171754 -1.4373333188179351,4.679999952737433 c-2.2453333106580735,7.051999928782987 -1.3733333194642614,15.788533173887476 1.8106666483810354,20.96719978825562 c0.9959999899415563,1.5598666509138241 3.3706666326268464,4.9931999495744765 6.553333267152275,3.679599962840312 c2.8079999716424595,-1.1213333220091686 2.1839999779441355,-4.678533286085578 2.99466663642401,-7.796799921261371 c0.18666666478155003,-0.754133325717462 0.06133333271393791,-1.2489333207205566 0.43466666227703815,-1.747466649019282 v0.12613333205953314 c0.8733333245136806,1.7447999823795461 1.7493333156670974,3.4254666320734297 2.5599999741469723,5.1786666143681455 c1.9373333137685156,3.0546666358180796 5.3039999464357575,6.237999937003441 8.114666584717954,8.357733248929929 c1.4933333182524002,1.1275999886125492 2.6799999729351116,3.058933302441658 4.5519999540300855,3.7474666288216043 v-0.18853333142936574 h-0.12266666542787577 c-0.37599999620283675,-0.5599999943446504 -0.9359999905474868,-0.8114666584717954 -1.435999985498067,-1.246399987412807 c-1.1226666553290368,-1.123999988648905 -2.367999976085949,-2.4974666414451527 -3.2453333005592344,-3.744799962181867 c-2.6199999735410415,-3.4931999647227356 -4.931999950192526,-7.364533258960097 -6.986666596109444,-11.357866551965401 c-1.001333323221029,-1.9390666470843443 -1.8733333144148416,-4.058799959010832 -2.6853333062145843,-5.992133272819744 c-0.37333332956310006,-0.7453333258063315 -0.37333332956310006,-1.8718666477629864 -0.9986666565812927,-2.2453333106580735 c-0.9386666571872231,1.3713333194844588 -2.307999976691879,2.5587999741590908 -2.9933333031041416,4.238533290529068 c-1.186666654682711,2.6865333062024654 -1.310666653430455,5.9931999394756374 -1.7506666489869658,9.427066571464238 c-0.24799999749548804,0.06519999934155572 -0.12266666542787577,0 -0.24799999749548804,0.12399999874774395 c-1.994666646522849,-0.498933328294686 -2.6813333062549796,-2.557866640835183 -3.431999965340784,-4.299466623247045 c-1.8719999810949737,-4.436533288529497 -2.186666644583872,-11.550266550022382 -0.5613333276645186,-16.66759983167659 c0.43466666227703815,-1.3079999867907186 2.3119999766514843,-5.4266666118636335 1.559999984245811,-6.6746665992602825 c-0.3773333295227048,-1.1906666546423155 -1.623999983599486,-1.870666647775105 -2.3093333100117475,-2.8106666382821963 c-0.8093333251600061,-1.1853333213628428 -1.68799998295316,-2.6799999729351116 -2.243999977338205,-3.9933332930053025 c-1.4986666515318734,-3.493333298054722 -2.2519999772574146,-7.3639999256321484 -3.8693332942575585,-10.857333223686872 c-0.7493333257659363,-1.6253333169193536 -2.0626666458361282,-3.3106666332327768 -3.119999968491622,-4.8053332848050445 c-1.187999988002579,-1.6853333163134236 -2.497333308113166,-2.870666637676266 -3.4346666319805212,-4.8653332841991155 c-0.3093333302094258,-0.6879999930519992 -0.7466666591262001,-1.8119999817009034 -0.24933333081535625,-2.558666640827104 c0.12266666542787577,-0.49999999495058056 0.37599999620283675,-0.6879999930519992 0.8759999911534174,-0.8133333251196107 c0.8066666585202698,-0.6866666597321306 3.118666635171754,0.18533333146168193 3.92799996033176,0.5599999943446504 c2.3106666433316154,0.9333333239077497 4.245333290460395,1.8119999817009034 6.177333270949438,3.119999968491622 c0.874666657833549,0.6253333270181929 1.8106666483810354,1.8106666483810354 2.9319999703902035,2.125333311869934 h1.3133333200701913 c1.9959999798427173,0.4333333289571698 4.2439999571405265,0.12133333210800754 6.117333271555369,0.6853333264122623 c3.3053332999533036,1.0599999892952305 6.299999936377314,2.6199999735410415 8.985333242591897,4.305333289854465 c8.171999917472286,5.179999947688014 14.911999849406111,12.54533320664003 19.465333136756065,21.34266645113051 c0.750666659085805,1.4333333188583306 1.0653333225747035,2.745333305608654 1.7506666489869658,4.239999957180922 c1.310666653430455,3.063999969057157 2.9346666370299404,6.18399993754878 4.242666623820659,9.176399907329012 c1.3093333201105868,2.933333303710072 2.5599999741469723,5.926133273486267 4.434666621881681,8.36359991553735 c0.9333333239077497,1.308266653454692 4.678666619417565,1.994799979854836 6.3639999357309875,2.68173330625094 c1.2453333207569124,0.5598666610126628 3.1826666345254284,1.0598666559632437 4.3066666231743325,1.7453333157074926 c2.1213333119103295,1.308266653454692 4.238666623861054,2.8082666383064336 6.2386666036633756,4.245866623788342 c0.9959999899415563,0.7489333257699762 4.117333291753046,2.3071999766999585 4.305333289854465,3.5571999640764096 " stroke-width="0"/><path id="path30" style="fill:#f18513;fill-opacity:1;fill-rule:nonzero;stroke:none" d="m256.20733098516894,227.73946800204217 h1.3693333195046562 v-5.2547999469326205 h1.7919999819028802 v-1.0733333224939128 h-5.022666615943565 v1.0733333224939128 h1.8613333145360276 zm10.419999894770097,0 h1.2906666536324316 v-6.328133269426533 h-1.9413333137281206 l-1.5799999840438343,4.31346662310566 l-1.7199999826299972,-4.31346662310566 h-1.870666647775105 v6.328133269426533 h1.2213333209992845 v-4.8161332846959795 h0.06933333263314716 l1.801333315141958,4.8161332846959795 h0.930666657268014 l1.7986666485022216,-4.8161332846959795 v4.8161332846959795 " stroke-width="0"/></g></g></svg>