<svg xmlns="http://www.w3.org/2000/svg" width="445.383" height="445.383" xml:space="preserve"><rect id="backgroundrect" width="100%" height="100%" x="0" y="0" fill="none" stroke="none"/>


<g class="currentLayer" style=""><title>Layer 1</title><g id="orginal" style="fill-rule:nonzero;clip-rule:nonzero;stroke:#000000;stroke-miterlimit:4;">
	</g><g id="Layer_x0020_3" style="fill-rule:nonzero;clip-rule:nonzero;fill:none;stroke:#FFFFFF;stroke-width:12.4651;stroke-linecap:round;stroke-linejoin:round;stroke-miterlimit:4;" class="selected">
<path style="fill:#000000;stroke:#000000;stroke-width:37.3953;stroke-linecap:butt;stroke-linejoin:miter;" d="M304.6464169602989,294.13336697120417 c1.9954149230122555,-16.62329248076677 1.3974243583679202,-19.061037291407587 13.779139477193354,-16.368318883121013 l3.1435004593729974,0.2761040062904359 c9.520657788336276,0.433173377215863 21.974920643508437,-1.5312502797842025 29.291676810204986,-4.930428683757782 c15.750606603741645,-7.3083040032386775 25.09024722468853,-19.510410648584365 9.559396870851517,-16.304223310232164 c-35.42653878670931,7.3083040032386775 -37.86217055648565,-4.687428984344006 -37.86217055648565,-4.687428984344006 c37.40857111757993,-55.50465308088064 53.046482208549975,-125.96259201264382 39.548377166330816,-143.20923154842853 C325.29012185919277,61.86721080196847 261.56221808075895,84.11260067612875 260.4958367911576,84.69016517908322 l-0.3394952322244649,0.06268687897920622 c-6.9998000370264055,-1.4523634208440779 -14.833546868562697,-2.3201188691854475 -23.63365772211552,-2.4623969540596007 c-16.03164103871584,-0.2634257611036305 -28.19641729545593,4.202838279426098 -37.424066750586036,11.20193396949768 c0,0 -113.68723328399658,-46.83766380178929 -108.39829200023412,58.903127137899396 c1.124842086851597,22.494024349212648 32.242890550911426,170.20896336764096 69.35704464137554,125.59210551440717 c13.565018002927303,-16.3147885145545 26.674323526084425,-30.10942362475395 26.674323526084425,-30.10942362475395 c6.509574556469918,4.3246903026103976 14.303173611581325,6.5307049651145945 22.477120022296905,5.738314640939236 l0.6317992184758202,-0.5388254204392436 c-0.19792149430513406,2.0257018420696262 -0.11058247190713898,4.007029825985431 0.25286055678129205,6.352505185544491 c-9.559396870851517,10.682830263793468 -6.750461215019226,12.558506204485893 -25.865733221948148,16.492988294124604 c-19.33925433856249,3.985899417340755 -7.977433610320092,11.082194987177848 -0.5613645229935647,12.936740519225598 c8.993101919174196,2.2489798267483714 29.797397923767566,5.434741103410721 43.85827618288994,-14.244712814331054 l-0.5599558290839196,2.2454580919742586 c3.750647534430027,3.0005180275440213 3.4970826306939125,21.566399409711362 4.02886458158493,34.83136560988426 c0.5324862978458405,13.265670547127723 1.4206678078770638,25.644568278133868 4.124655767440796,32.94301142400503 c2.703987959563732,7.297034451961517 5.894679664909839,26.096054676175115 31.016622502565387,20.71202655351162 c20.995878376305104,-4.499368347406388 37.04864982366562,-10.975134250044823 38.51157844883203,-71.21440756124258 " id="svg_1"/>
<path style="fill:#336791;stroke:none;" d="M360.4236523126959,256.80509140647405 c-35.43006052148342,7.3083040032386775 -37.86569229125976,-4.687428984344006 -37.86569229125976,-4.687428984344006 c37.40857111757993,-55.50817481565476 53.046482208549975,-125.96752244132756 39.5511945541501,-143.2120489362478 c-36.81621532857418,-47.03981137782335 -100.54693649482728,-24.79301280975342 -101.61050039660931,-24.215448306798937 l-0.3423126200437552,0.06127818506956112 c-6.9998000370264055,-1.4530677677989008 -14.833546868562697,-2.3187101752758026 -23.637883803844453,-2.4623969540596007 c-16.03164103871584,-0.2627214141488076 -28.192191213727,4.202838279426098 -37.4198406688571,11.200525275588035 c0,0 -113.68934632486105,-46.83555076092482 -108.40181373500823,58.90453583180904 c1.124842086851597,22.49543304312229 32.24218620395661,170.21037206155063 69.35774898833037,125.5935142083168 c13.565722349882128,-16.3147885145545 26.67291483217478,-30.10942362475395 26.67291483217478,-30.10942362475395 c6.51027890342474,4.3246903026103976 14.303877958536148,6.5307049651145945 22.474302634477617,5.738314640939236 l0.6346166062951097,-0.5388254204392436 c-0.19721714735031157,2.0257018420696262 -0.10706073713302619,4.007029825985431 0.2542692506909369,6.352505185544491 c-9.561509911715984,10.682830263793468 -6.751869908928871,12.558506204485893 -25.865733221948148,16.492988294124604 c-19.340663032472133,3.985899417340755 -7.978842304229736,11.082194987177848 -0.5606601760387425,12.936740519225598 c8.993101919174196,2.2489798267483714 29.798806617677215,5.434741103410721 43.85686748898029,-14.244712814331054 l-0.5606601760387425,2.2454580919742586 c3.7464214527010924,3.0005180275440213 6.37715732896328,19.518158465087414 5.9362361352443695,34.491166030704974 c-0.44092119371891086,14.973711912572384 -0.7353382208347321,25.25365571820736 2.2165798668265344,33.28321100318432 c2.9519180876612663,8.02955528497696 5.893975317955017,26.096054676175115 31.02084858429432,20.71202655351162 c20.995878376305104,-4.499368347406388 31.87592578744888,-16.15912783753872 33.389567393362526,-35.60826030105353 c1.0741291061043738,-13.827035070121289 3.5048304471969605,-11.783020207226276 3.6583780833482757,-24.14501361131668 l1.9496323709487917,-5.852418847620487 c2.248275479793549,-18.74337681478262 0.3571039060950279,-24.790195421934126 13.292435731410981,-21.977738031327725 l3.1435004593729974,0.2761040062904359 c9.520657788336276,0.433173377215863 21.981259766101836,-1.5312502797842025 29.294494198024275,-4.930428683757782 c15.747789215922356,-7.3083040032386775 25.08742983686924,-19.510410648584365 9.56010121780634,-16.304223310232164 z" id="svg_2"/>
<path d="M229.04251917660227,267.54919985533706 c-0.9755205324292183,34.8764438149929 0.24511274027824423,69.99588732939958 3.6576737363934533,78.53116372793913 c3.414674036979675,8.535276398539544 10.722273693263531,25.13673412370682 35.8512600004673,19.753410347998145 c20.993765335440635,-4.500777041316033 28.632408060491088,-13.210731484651566 31.94706482988596,-32.435881616532804 c2.441266545414925,-14.144695546746254 7.147712897539138,-53.42753391110897 7.751338237822057,-61.47610656386614 " id="svg_3"/>
<path d="M198.9232346944808,92.71056395364751 c0,0 -113.76682448989152,-46.498168569564825 -108.47788320612908,59.241918023169035 c1.124842086851597,22.49543304312229 32.24429924482107,170.21530249023436 69.35915768224001,125.5963315961361 c13.562904962062836,-16.31690155541897 25.829107180297374,-29.114181377589702 25.829107180297374,-29.114181377589702 " id="svg_4"/>
<path d="M260.3739847679733,84.22388749499072 c-3.938003824412823,1.2347202118039131 63.2841651968956,-24.57396090680361 101.48723967951535,24.24150914412737 c13.494583307445048,17.245230841875077 -2.14332778352499,87.7045784675479 -39.5511945541501,143.2141619771123 " id="svg_5"/>
<path style="stroke-linejoin:bevel;" d="M322.3093255463838,251.67955861623037 c0,0 2.4377448106408117,11.999254722356797 37.86850967907906,4.686020290434361 c15.523806884288787,-3.206187338352203 6.181348875522613,8.99732800090313 -9.56291860562563,16.30915373891592 c-12.921244886219501,5.996809973359108 -41.89033079111576,7.5336950287818905 -42.363651944756505,-0.7529468947052956 c-1.2178158848881722,-21.38045181363821 15.246998531043529,-14.884964196264743 14.058765218257905,-20.242227134644985 c-1.0741291061043738,-4.8247766405344015 -8.43737217181921,-9.56010121780634 -13.307931364417074,-21.368477915406228 c-4.252142566263676,-10.306708989918233 -58.31711047148705,-89.34570687228441 14.993433627307414,-77.60706052321196 c2.6856749387383463,-0.5557297473549849 -19.12020243561268,-69.73175722134113 -87.72852626401186,-70.85659930819273 c-68.59282819539308,-1.124842086851597 -66.34243967473506,84.35400000345707 -66.34243967473506,84.35400000345707 " id="svg_6"/>
<path d="M209.8406124942302,258.99138435424317 c-9.56291860562563,10.682125916838647 -6.750461215019226,12.557801857531071 -25.865733221948148,16.493692641079427 c-19.340663032472133,3.986603764295578 -7.977433610320092,11.081490640223027 -0.5613645229935647,12.93533182531595 c8.993101919174196,2.2503885206580163 29.798806617677215,5.4361497973203665 43.85686748898029,-14.248234549105167 c4.2810207914114,-5.993288238584996 -0.02535649037361147,-15.556206844210624 -5.905949216187,-17.993951654851436 c-2.841335615754127,-1.1769637615084654 -6.640583090066911,-2.6518662849068644 -11.523820527851582,2.813161737561226 z" id="svg_7"/>
<path d="M209.21444805139294,258.80473241121524 c-0.9635466341972352,-6.280661796152591 2.063736577630043,-13.754487333774566 5.3079586515426636,-22.49825043094158 c4.875489621281623,-13.119166380524636 16.124614836752414,-26.24044580191374 7.125878141939641,-67.85608128064871 c-6.707496050775051,-31.01169207388163 -51.696249096155164,-6.4539311470389364 -51.72442297434807,-2.2489798267483714 c-0.027469531238079114,4.20354262638092 2.034858352482319,21.31353885293007 -0.7515382007956505,41.23810551095009 c-3.635838980793953,25.999559143364426 16.543701274871825,47.98856672596932 39.780811661422256,45.73888255226612 " id="svg_8"/>
<path style="fill:#FFFFFF;stroke-width:4.155;stroke-linecap:butt;stroke-linejoin:miter;" d="M198.50978303199997,165.57103034831036 c-0.20285192298889168,1.4361634408831598 2.629327182352543,5.268515222072602 6.322218266487121,5.780575458228588 c3.6865519615411757,0.5141732770204547 6.842026319146156,-2.480709974884987 7.042060854315757,-3.9154647218585015 c0.20003453516960154,-1.4361634408831598 -2.6286228353977203,-3.018126701414585 -6.3229226134419445,-3.5322999784350393 c-3.688665002405644,-0.5148776239752771 -6.845548053920268,0.23454753595590624 -7.040652160406113,1.667189242064953 z" id="svg_9"/>
<path style="fill:#FFFFFF;stroke-width:2.0775;stroke-linecap:butt;stroke-linejoin:miter;" d="M310.79959195762865,162.64306005711308 c0.20003453516960154,1.4361634408831598 -2.6286228353977203,5.268515222072602 -6.322218266487121,5.780575458228588 c-3.6893693493604665,0.5141732770204547 -6.844843706965446,-2.480709974884987 -7.0469912829995165,-3.9154647218585015 c-0.1951041064858438,-1.4361634408831598 2.634257611036301,-3.018126701414585 6.3243313073515885,-3.5322999784350393 c3.6900736963152903,-0.5141732770204547 6.844843706965446,0.23454753595590624 7.044878242135049,1.6678935890197761 z" id="svg_10"/>
<path d="M323.99553215622893,152.7040201776122 c0.607851422011853,11.265325195431709 -2.4264752593636514,18.938480921268464 -2.8089356558322907,30.930692174077034 c-0.5662949516773226,17.431178437948226 8.310589719951153,37.3825102802515 -5.064958952128887,57.35849426597357 " id="svg_11"/>
<path style="stroke-width:3;" d="M76.99795942687979,108.18929263282766 " id="svg_12"/>
</g></g></svg>