<svg xmlns="http://www.w3.org/2000/svg" xmlns:xlink="http://www.w3.org/1999/xlink" version="1.1" enable-background="new 0 0 547.8 410.6" xml:space="preserve" width="547.8" height="547.8"><rect id="backgroundrect" width="100%" height="100%" x="0" y="0" fill="none" stroke="none"/>







<g class="currentLayer" style=""><title>Layer 1</title><path fill="#CD6799" d="M442.18904090114006,300.0659631195472 c-16.259858483076098,0.08513014912605292 -30.39146323800087,4.001117008924484 -42.224553966522215,9.789967149496078 c-4.341637605428695,-8.598145061731339 -8.68327521085739,-16.259858483076098 -9.449446552991867,-21.878448325395585 c-0.8513014912605288,-6.55502148270607 -1.8728632807731629,-10.556138491630554 -0.8513014912605288,-18.38811221122742 c1.0215617895126343,-7.8319737195968635 5.618589842319488,-18.984023255109786 5.533459693193436,-19.835324746370315 s-1.0215617895126343,-4.852418500185013 -10.385878193378447,-4.937548649311066 c-9.364316403865814,-0.08513014912605292 -17.451680570840836,1.7877331316471101 -18.38811221122742,4.256507456302643 c-0.9364316403865817,2.468774324655533 -2.7241647720336917,8.087364166975021 -3.9159868597984313,13.876214307546617 c-1.6174728333950046,8.513014912605286 -18.72863280773163,38.90447815060616 -28.518599957227707,54.82381603717804 c-3.149815517663956,-6.214500886201859 -5.873980289697648,-11.66283043026924 -6.4698913335800174,-16.004468035697936 c-0.8513014912605288,-6.55502148270607 -1.8728632807731629,-10.556138491630554 -0.8513014912605288,-18.38811221122742 c1.0215617895126343,-7.8319737195968635 5.618589842319488,-18.984023255109786 5.533459693193436,-19.835324746370315 c-0.08513014912605292,-0.8513014912605288 -1.0215617895126343,-4.852418500185013 -10.385878193378447,-4.937548649311066 c-9.364316403865814,-0.08513014912605292 -17.451680570840836,1.7877331316471101 -18.38811221122742,4.256507456302643 c-0.9364316403865817,2.468774324655533 -1.9579934298992157,8.257624465227126 -3.9159868597984313,13.876214307546617 c-1.9579934298992157,5.618589842319488 -24.687743246555332,56.356158721446995 -30.64685368537903,69.46620168685912 c-3.0646853685379027,6.725281780958176 -5.703719991445541,12.088481175899505 -7.576583272218705,15.749077588319778 c0,0 0,0 0,0 s-0.08513014912605292,0.2553904473781588 -0.3405205965042117,0.6810411930084234 c-1.6174728333950046,3.149815517663956 -2.5539044737815857,4.852418500185013 -2.5539044737815857,4.852418500185013 s0,0 0,0.08513014912605292 c-1.2769522368907928,2.2985140264034274 -2.6390346229076385,4.426767754554748 -3.3200758159160615,4.426767754554748 c-0.5107808947563174,0 -1.4472125351428988,-6.1293707370758055 0.17026029825210579,-14.472125351428986 c3.4052059650421143,-17.621940869092942 11.492570132017136,-45.03384888768196 11.407439982891082,-45.97028052806854 c0,-0.5107808947563174 1.5323426842689514,-5.278069245815277 -5.278069245815277,-7.746843570470809 c-6.640151631832123,-2.468774324655533 -9.023795807361603,1.6174728333950046 -9.619706851243974,1.6174728333950046 c-0.5959110438823705,0 -1.0215617895126343,1.4472125351428988 -1.0215617895126343,1.4472125351428988 s7.406322973966598,-30.817113983631135 -14.131604754924775,-30.817113983631135 c-13.450563561916352,0 -32.00893607139587,14.727515798807145 -41.202992177009584,28.007819062471388 c-5.788850140571594,3.149815517663956 -18.132721763849258,9.875097298622132 -31.32789487838745,17.111159974336626 c-5.022678798437119,2.809294921159744 -10.215617895126343,5.618589842319488 -15.068036395311355,8.257624465227126 c-0.3405205965042117,-0.3405205965042117 -0.6810411930084234,-0.7661713421344761 -1.0215617895126343,-1.106691938638687 c-26.049825632572176,-27.837558764219285 -74.23349003791809,-47.50262321233749 -72.19036645889283,-84.8747586786747 c0.7661713421344761,-13.620823860168457 5.448329544067383,-49.37548649311066 92.53647210001945,-92.79186254739761 C240.00493672676456,115.33353951601248 297.04213664121994,125.12350666550856 306.9172339398421,146.83169469265204 c14.131604754924775,30.987374281883238 -30.561723536252973,88.53535509109497 -104.62495327591897,96.87810970544815 c-28.26320950984955,3.149815517663956 -43.075855457782744,-7.746843570470809 -46.82158201932907,-11.833090728521347 c-3.9159868597984313,-4.256507456302643 -4.5118979036808025,-4.5118979036808025 -5.9591104388237,-3.660596412420273 c-2.3836441755294797,1.2769522368907928 -0.8513014912605288,5.107808947563171 0,7.321192824840545 c2.213383877277374,5.788850140571594 11.322309833765031,16.004468035697936 26.730866825580595,21.027146834135056 c13.620823860168457,4.426767754554748 46.73645187020302,6.895542079210281 86.83275210857391,-8.598145061731339 c44.86358858942986,-17.36655042171478 79.93721002936364,-65.63534497618674 69.63646198511124,-106.07216581106185 C322.41092108078374,100.8614141645835 254.30680177994142,87.3257204535411 189.86327889151943,110.22573056844931 C151.55471178479564,123.84655442861776 110.01119901128185,145.2993520083831 80.1305166680373,173.22204092172842 c-35.499272185564045,33.200758159160614 -41.117862027883525,62.059878712892534 -38.8193480014801,74.14835988879203 c8.257624465227126,42.90559515953064 67.42307810783386,70.82828407287597 91.08925956487656,91.51491031050682 c-1.1918220877647399,0.6810411930084234 -2.2985140264034274,1.2769522368907928 -3.2349456667900083,1.7877331316471101 c-11.833090728521347,5.873980289697648 -56.95206976532936,29.45503159761429 -68.18924944996833,54.39816529154778 c-12.769522368907928,28.26320950984955 2.0431235790252686,48.52418500185013 11.833090728521347,51.248349773883824 c30.39146323800087,8.427884763479232 61.63422796726227,-6.725281780958176 78.40486734509467,-31.753545624017715 c16.770639377832413,-25.028263843059538 14.727515798807145,-57.54798080921173 6.980672228336334,-72.44575690627097 c-0.08513014912605292,-0.17026029825210579 -0.17026029825210579,-0.3405205965042117 -0.3405205965042117,-0.5107808947563174 c3.0646853685379027,-1.7877331316471101 6.214500886201859,-3.660596412420273 9.279186254739761,-5.448329544067383 c6.044240587949752,-3.5754662632942202 12.003351026773453,-6.895542079210281 17.111159974336626,-9.619706851243974 c-2.894425070285797,7.917103868722916 -5.022678798437119,17.36655042171478 -6.044240587949752,30.987374281883238 c-1.2769522368907928,16.004468035697936 5.278069245815277,36.77622442245484 13.876214307546617,44.948718738555904 c3.8308567106723785,3.5754662632942202 8.342754614353181,3.660596412420273 11.237179684638976,3.660596412420273 c10.045357596874238,0 14.557255500555039,-8.342754614353181 19.579934298992157,-18.21785191297531 c6.1293707370758055,-12.088481175899505 11.66283043026924,-26.134955781698228 11.66283043026924,-26.134955781698228 s-6.895542079210281,37.96804651021957 11.833090728521347,37.96804651021957 c6.8104119300842285,0 13.70595400929451,-8.853535509109497 16.770639377832413,-13.365433412790297 c0,0.08513014912605292 0,0.08513014912605292 0,0.08513014912605292 s0.17026029825210579,-0.2553904473781588 0.5107808947563174,-0.8513014912605288 c0.6810411930084234,-1.106691938638687 1.106691938638687,-1.7877331316471101 1.106691938638687,-1.7877331316471101 s0,-0.08513014912605292 0,-0.17026029825210579 c2.7241647720336917,-4.7672883510589585 8.853535509109497,-15.578817290067674 17.962461465597155,-33.54127875566483 c11.747960579395295,-23.155400562286378 23.070270413160326,-52.09965126514435 23.070270413160326,-52.09965126514435 s1.0215617895126343,7.065802377462387 4.5118979036808025,18.813762956857683 c2.0431235790252686,6.895542079210281 6.299631035327912,14.472125351428986 9.704837000370025,21.793318176269533 c-2.7241647720336917,3.8308567106723785 -4.426767754554748,5.9591104388237 -4.426767754554748,5.9591104388237 s0,0 0.08513014912605292,0.08513014912605292 c-2.213383877277374,2.894425070285797 -4.597028052806855,6.044240587949752 -7.236062675714493,9.108925956487655 c-9.279186254739761,11.066919386386871 -20.34610564112663,23.751311606168745 -21.878448325395585,27.41190801858902 c-1.7877331316471101,4.341637605428695 -1.3620823860168458,7.4914531230926515 2.0431235790252686,10.045357596874238 c2.468774324655533,1.8728632807731629 6.895542079210281,2.1282537281513214 11.407439982891082,1.8728632807731629 c8.342754614353181,-0.5959110438823705 14.216734904050826,-2.6390346229076385 17.111159974336626,-3.9159868597984313 c4.5118979036808025,-1.6174728333950046 9.789967149496078,-4.086247158050537 14.727515798807145,-7.746843570470809 c9.108925956487655,-6.725281780958176 14.64238564968109,-16.34498863220215 14.131604754924775,-29.029380851984026 c-0.2553904473781588,-6.980672228336334 -2.5539044737815857,-13.961344456672668 -5.36319939494133,-20.51636593937874 c0.8513014912605288,-1.1918220877647399 1.6174728333950046,-2.3836441755294797 2.468774324655533,-3.5754662632942202 c14.386995202302932,-21.027146834135056 25.539044737815857,-44.097417247295375 25.539044737815857,-44.097417247295375 s1.0215617895126343,7.065802377462387 4.5118979036808025,18.813762956857683 c1.7026029825210571,5.9591104388237 5.192939096689224,12.429001772403717 8.257624465227126,18.72863280773163 c-13.535693711042404,10.981789237260818 -21.878448325395585,23.751311606168745 -24.858003544807435,32.09406622052193 c-5.36319939494133,15.493687140941619 -1.1918220877647399,22.474359369277952 6.725281780958176,24.091832202672958 c3.5754662632942202,0.7661713421344761 8.68327521085739,-0.9364316403865817 12.429001772403717,-2.5539044737815857 c4.7672883510589585,-1.5323426842689514 10.385878193378447,-4.1713773071765905 15.749077588319778,-8.087364166975021 c9.108925956487655,-6.725281780958176 17.8773313164711,-16.089598184823988 17.36655042171478,-28.773990404605865 c-0.2553904473781588,-5.788850140571594 -1.7877331316471101,-11.492570132017136 -3.9159868597984313,-17.02602982521057 c11.492570132017136,-4.7672883510589585 26.30521607995033,-7.406322973966598 45.204109185934065,-5.192939096689224 c40.52195098400116,4.7672883510589585 48.52418500185013,30.050942641496658 46.99184231758118,40.69221128225326 c-1.5323426842689514,10.641268640756607 -10.045357596874238,16.4301187813282 -12.854652518033982,18.21785191297531 c-2.809294921159744,1.7877331316471101 -3.7457265615463258,2.3836441755294797 -3.490336114168167,3.660596412420273 c0.3405205965042117,1.8728632807731629 1.7026029825210571,1.7877331316471101 4.086247158050537,1.4472125351428988 c3.3200758159160615,-0.5959110438823705 21.282537281513214,-8.598145061731339 22.048708623647688,-28.178079360723498 C508.164906473831,327.137350541632 484.3284647185362,299.81057267216903 442.18904090114006,300.0659631195472 zM129.59113331027402,405.4570877376006 C116.14056974835766,420.0994733872817 97.41193694062603,425.63293308047514 89.324572773651,420.95077487854223 c-8.68327521085739,-5.022678798437119 -5.278069245815277,-26.645736676454543 11.237179684638976,-42.139423817396164 c10.045357596874238,-9.449446552991867 22.98514026403427,-18.21785191297531 31.583285325765612,-23.581051307916642 c1.9579934298992157,-1.1918220877647399 4.852418500185013,-2.894425070285797 8.342754614353181,-5.022678798437119 c0.5959110438823705,-0.3405205965042117 0.9364316403865817,-0.5107808947563174 0.9364316403865817,-0.5107808947563174 l0,0 c0.6810411930084234,-0.4256507456302644 1.3620823860168458,-0.8513014912605288 2.0431235790252686,-1.2769522368907928 C149.51158820577035,370.55372659591893 143.72273806519877,390.04853074578506 129.59113331027402,405.4570877376006 zM227.49080480523477,338.8853111210273 c-4.682158201932907,11.407439982891082 -14.472125351428986,40.60708113312722 -20.431235790252686,38.989608299732204 c-5.107808947563171,-1.3620823860168458 -8.257624465227126,-23.49592115879059 -1.0215617895126343,-45.37436948418617 c3.660596412420273,-10.981789237260818 11.407439982891082,-24.091832202672958 15.919337886571883,-29.19964115023613 c7.321192824840545,-8.172494316101075 15.408556991815567,-10.896659088134767 17.36655042171478,-7.576583272218705 C241.79266985841167,300.0659631195472 230.3852298755206,331.73437859443885 227.49080480523477,338.8853111210273 zM308.279316325859,377.5343988242553 c-1.9579934298992157,1.0215617895126343 -3.8308567106723785,1.7026029825210571 -4.682158201932907,1.1918220877647399 c-0.5959110438823705,-0.3405205965042117 0.8513014912605288,-1.7026029825210571 0.8513014912605288,-1.7026029825210571 s10.13048774600029,-10.896659088134767 14.131604754924775,-15.834207737445832 c2.2985140264034274,-2.894425070285797 5.022678798437119,-6.299631035327912 7.917103868722916,-10.13048774600029 c0,0.3405205965042117 0,0.7661713421344761 0,1.106691938638687 C326.49716823883426,365.1905272009776 313.89790616817845,373.95893256096105 308.279316325859,377.5343988242553 zM370.59458548612963,363.31766392020444 c-1.4472125351428988,-1.0215617895126343 -1.1918220877647399,-4.426767754554748 3.660596412420273,-15.068036395311355 c1.8728632807731629,-4.1713773071765905 6.299631035327912,-11.152049535512925 13.876214307546617,-17.8773313164711 c0.8513014912605288,2.7241647720336917 1.4472125351428988,5.36319939494133 1.3620823860168458,7.8319737195968635 C389.4083484429873,354.6343887093471 377.66038786359206,360.76375944642285 370.59458548612963,363.31766392020444 z" id="svg_1" class=""/><g id="svg_2">
</g><g id="svg_3">
</g><g id="svg_4">
</g><g id="svg_5">
</g><g id="svg_6">
</g><g id="svg_7">
</g></g></svg>