<?xml version="1.0" encoding="utf-8"?>
<!-- Generator: Adobe Illustrator 19.0.0, SVG Export Plug-In . SVG Version: 6.00 Build 0)  -->
<svg version="1.1" id="Layer_1" xmlns="http://www.w3.org/2000/svg" xmlns:xlink="http://www.w3.org/1999/xlink" x="0px" y="0px"
	 viewBox="0 0 500 500" style="enable-background:new 0 0 500 500;" xml:space="preserve">
<style type="text/css">
	.st0{fill:#231F20;}
</style>
<g id="XMLID_1_">
	<path id="XMLID_6_" class="st0" d="M191.9,208l-0.6-1.9c-0.3-0.6-0.7-2.4,1.8-2.4h3.2h5.3c1.4,0,1.6,1.3,1.9,1.9l14.2,40.8
		c0,0,1.1,3.6,2,3.6c1,0,2.1-3.6,2.1-3.6l13.9-40.8c0.3-0.6,0.5-1.9,2.4-1.9h8c2.2,0,2.1,1.3,1.9,1.9l-0.8,2.1l-24.3,70.2
		c-0.5,2.3-6.4,2.2-6.7,0L191.9,208z"/>
	<path id="XMLID_7_" class="st0" d="M391,279.9L366,205.5c-0.3-0.6-0.3-1.9,1.9-1.9h9.3c0.6,0,1.5,0.3,1.9,1.9
		c0,0,16.1,48.6,16.6,50.2c0.6,1.7,1.2,3.6,1.9,3.7c0.6,0.1,1.3-1.3,1.9-2.8c0.7-2,19.6-50.7,19.6-50.7c0.2-0.6,0.5-1.1,0.6-1.4
		c0.2-0.3,0.6-0.5,1.2-0.5h5.9h3.6c2.3,0,2.1,1.3,1.9,1.9l-33.7,86.8l-8.4,20.3c-0.3,0.6-0.5,1.1-0.8,1.3c-0.1,0.4-0.5,0.6-1.1,0.6
		h-8.5c-0.6,0-1.2-0.2-1.7-0.6c-0.4-0.3-0.4-0.7-0.2-1.3L391,279.9z"/>
	<path id="XMLID_8_" class="st0" d="M243.8,247.6c0-1.8,0.6-3.3,1.8-4.6c1.3-1.3,2.9-2,4.8-2c1.8,0,3.3,0.7,4.6,2
		c1.3,1.3,2,2.9,2,4.6c0,1.9-0.7,3.5-2,4.8c-1.3,1.2-2.9,1.8-4.6,1.8c-1.9,0-3.4-0.6-4.7-1.9C244.4,251,243.8,249.5,243.8,247.6"/>
	<path id="XMLID_9_" class="st0" d="M288.6,216.3c-1.6,0.6-2.9,1.7-4.2,2.7c-0.4,0.2-0.8,0.6-1.1,0.9l-0.9,0.9
		c-1.1,1.4-2,2.9-2.6,4.5c-0.9,2-1.3,4.2-1.3,6.6v45.4c0,1.3-0.6,1.9-1.9,1.9h-7.6c-1.3,0-1.9-0.6-1.9-1.9V232
		c0-1.8,0.1-3.5,0.4-5.3c0.4-2,1-3.9,1.9-5.7c1.5-3.5,3.5-6.6,6-9.1c2.5-2.5,5.5-4.5,8.9-6c1.9-0.8,3.8-1.3,5.7-1.7
		c1.1-0.3,2.3-0.4,3.4-0.6h2.1c15.3-0.3,22.5,9.2,24.5,11c0.9,0.9,1,2.5-0.5,3.1l-6.8,1.8c-1.9,0.7-3.1,0.4-4.5-0.9
		C307.7,218.2,299,212,288.6,216.3"/>
	<path id="XMLID_12_" class="st0" d="M352.5,267.9h-20c-3.2-0.1-11.3-2-11.3-11.3c0-3.3,1.4-6.5,3.3-8.2c3.8-3.3,8-3.1,8-3.1h18.1
		c1,0,1.6,0.5,1.9,1.5V267.9z M361.6,220.9c-1.5-3.5-3.5-6.5-6.1-9c-2.5-2.5-11.7-10-30.6-7c-1.9,0.7-1.6,1.9,0.2,3.7
		c0.8,0.7,3.9,4.2,5,5.1c2.1,1.7,3.3,1.5,4.1,1.4c16.8-0.9,18.3,14.4,18.3,16.8v0.6c-0.3,0.9-0.9,1.3-1.9,1.3h-18.1
		c-3,0-5.9,0.6-8.7,1.8c-2.8,1.2-5.2,2.8-7.3,4.8c-2.1,2-3.7,4.4-4.9,7.2c-1.2,2.8-1.8,5.7-1.8,8.9c0,3,0.6,5.9,1.8,8.7
		c1.2,2.8,2.8,5.2,4.9,7.3c2.1,2.1,4.5,3.7,7.3,4.9c2.8,1.2,5.7,1.8,8.7,1.8h21.4h0.6h7.6c1.3,0,1.9-0.6,1.9-1.9V232
		C363.9,228.1,363.1,224.4,361.6,220.9"/>
	<path id="XMLID_17_" class="st0" d="M124.9,202.6c7.9,0,14.4-2,14.4-4.4c0.1-2.4-6.3-4.4-14.2-4.4c-7.9,0-14.4,2-14.4,4.4
		C110.6,200.5,117,202.6,124.9,202.6 M123.7,289c-27.7,0-50.1-22.4-50.1-50.1c0-16.2,7.7-30.5,19.6-39.7
		c-20,22.6,2.4,71.3,15.3,72.6c16.1,1,22.2-49.8,41.1-56.3c14.2-5.3,24.9,15.9,18.4,39.8C161.4,275.7,144.6,288.6,123.7,289
		 M100.6,197.5c3.8-4.3,10.2-7.6,18.9-8.5c1.4-0.1,2.8-0.2,4.2-0.2c14.2,0,26.9,5.9,36,15.3c-1.3-0.4-3.1-1-6.5-1
		c-27.7,0-37.1,54.8-45.4,54.6C102.3,257.9,83.5,216.7,100.6,197.5 M123.7,185.2c-31.1,0-56.2,25.2-56.2,56.2
		c0,31,25.2,56.2,56.2,56.2c31,0,56.2-25.2,56.2-56.2C179.9,210.4,154.8,185.2,123.7,185.2"/>
</g>
</svg>
