<svg id="Layer_1" data-name="Layer 1" xmlns="http://www.w3.org/2000/svg" viewBox="0 0 50 50"><title>Пивная кружка</title><path d="M35.86,18.38c0-2.61-1.5-4.74-4.4-4.74H18c-2.91,0-4.4,2.13-4.4,4.74L12.66,44.2c0,2.61,3.73,4.23,5.29,4.74a22.36,22.36,0,0,0,6.75.79,22.39,22.39,0,0,0,6.76-.79c1.56-.51,5.28-2.13,5.28-4.74Z" style="fill:#fff"/><path d="M36,18.38c0-2.61-1.52-4.74-4.46-4.74H17.87c-3,0-4.46,2.13-4.46,4.74L12.15,44.13c.36,2.7,4.15,4.55,5.73,5.06a22.94,22.94,0,0,0,6.84.79,22.94,22.94,0,0,0,6.84-.79c1.58-.51,5.55-2.71,5.55-5.32Z" style="fill:#fff"/><path d="M44.25,24.66c-.77-1.5-2-3.66-6.73-3.57-.58,0-1.67.31-1.91-.27l1.14,19.47A15.13,15.13,0,0,0,42,38.6a8.2,8.2,0,0,0,3-6.16C45,29,45,26.16,44.25,24.66Zm-4,7.94A2.77,2.77,0,0,1,37.71,35a.89.89,0,0,1-1-.39L36.27,27c.08-.38.7-.72,1-.78.62-.12,2.46,0,2.74,1.3A17.83,17.83,0,0,1,40.2,32.6Z" style="fill:#fff"/><path d="M35.11,22.19c.13,1.43,0,3.2.11,3.34s.88-.42,1.68-.45,2.14-.25,3.07.49,1.77,2.72,1.49,6.32a4.69,4.69,0,0,1-4.68,4.3c-.94-.09-1.16-1.14-1.14-.56s.3,3.36.3,3.36l1.17-.33,3.59-.56a16.28,16.28,0,0,0,2-2.22,9.42,9.42,0,0,0,1.12-4,41.8,41.8,0,0,0-.09-4.44c-.15-1.12-.19-2.43-1-3.29s-1.23-1.5-2.74-1.7-3.49-.17-4.16-.22Z" style="fill:#f7ecf4"/><path d="M35.9,9.46c-.26-1.39-1.8-2.92-4.22-3.19a5.3,5.3,0,0,0-2.75.47c-1.8-2-4.74-2.86-8-2.86-5.46,0-10,4.33-9.63,8.18a6.56,6.56,0,0,0-2.95,5.42,6.59,6.59,0,0,0,1.48,4.71,4.74,4.74,0,0,0-.56,2.34,5,5,0,0,0,1.46,3.28c0,2,1.2,3.47,2.37,3.61A3.42,3.42,0,0,0,17,28.5c0-.11-1.77-1-1.78-1.07.93-.31,1.63-1.67,1.63-3.3,0-.11,0-.22,0-.32a3.06,3.06,0,0,0,3-2,6.12,6.12,0,0,0,4.54,2,5.9,5.9,0,0,0,5.7-4c1,.78,2.73,2.86,4.09,2.71,4.2-.48,6.06-4.08,5.75-7.44A6.33,6.33,0,0,0,35.9,9.46Z" style="fill:#fff"/><ellipse cx="12.46" cy="1.23" rx="1.25" ry="1.23" style="fill:#fff"/><ellipse cx="10.97" cy="4.75" rx="1.74" ry="1.72" style="fill:#fff"/><ellipse cx="12.2" cy="26.98" rx="0.31" ry="0.3" style="fill:#fff"/><path d="M35.09,19.06c0-2.46-1.39-4.48-4.1-4.48H18.45c-2.7,0-4.09,2-4.09,4.48l-.82,24.33c0,2.46,3.46,4,4.91,4.47a20.78,20.78,0,0,0,6.27.75A20.74,20.74,0,0,0,31,47.86c1.45-.48,4.91-2,4.91-4.47Z" style="fill:#f7ecf4"/><path d="M24.72,49.12a21.48,21.48,0,0,1-6.43-.77c-.88-.29-5.26-1.91-5.26-5L13.85,19c0-3,1.85-5,4.6-5H31c2.75,0,4.6,2,4.61,5l.82,24.32c0,3.07-4.39,4.69-5.26,5A21.56,21.56,0,0,1,24.72,49.12Zm-6.27-34c-2.64,0-3.58,2.05-3.58,4L14.05,43.4c0,2.39,4.09,3.82,4.56,4a20.79,20.79,0,0,0,6.11.72,20.79,20.79,0,0,0,6.11-.72c.47-.16,4.56-1.59,4.56-4l-.82-24.33c0-1.92-.94-4-3.58-4Z" style="fill:#573e34"/><path d="M28.68,44.13l-9-.46c-2.3-.87-4.79-2.05-5.7-3.74l.39-21.41a4,4,0,0,1,4.31-3.94h12a3.69,3.69,0,0,1,3.92,3.94l.78,21.41C35.43,42.1,31.05,43.27,28.68,44.13Z" style="fill:#fccf3b"/><path d="M36,39.5l-.1-1a11.74,11.74,0,0,0,4.68-1.14,6.27,6.27,0,0,0,2.7-5c.07-3,.09-5.84-.6-7.19s-1.9-2.74-6.13-2.31h0a1.67,1.67,0,0,1-1.75-.93l.95-.39c.09.21.22.3.77.3,3.63-.36,6,.58,7.12,2.86.8,1.57.79,4.41.71,7.68a7.16,7.16,0,0,1-3.11,5.8C40.08,39,37.46,39.35,36,39.5Z" style="fill:#563d33"/><path d="M36.85,36.61a1.81,1.81,0,0,1-1.55-.75l.68-.45a1.13,1.13,0,0,0,1.18.35c2.9-.51,3.27-1.55,3.65-2.65a17.78,17.78,0,0,0-.08-6.2C40.44,25.66,38,25.35,37,25.49a2,2,0,0,0-1.26.66l-.78-.24c.23-.76,1.51-1.18,1.92-1.23,1.2-.17,4.25.18,4.69,2,.35,1.5.52,5.34.07,6.63s-.92,2.62-4.3,3.22A3.42,3.42,0,0,1,36.85,36.61Z" style="fill:#563d33"/><path d="M41.46,26.11c1.2,1.81.91,5.6.8,6.47a5.24,5.24,0,0,1-3.77,4.73A3.68,3.68,0,0,1,36,37.05c-.32-.2-.57-.86-.14-.95a1.91,1.91,0,0,1,1,.21,4.18,4.18,0,0,0,4.48-3.66c.53-4.13,0-5.49-.31-6.12-.56-.55-1-.77-1-1S41,25.41,41.46,26.11Z" style="fill:#e5d6c1"/><path d="M36.19,22.91c-.35.06-.25.63,0,.72.44.15,2.6-.69,5,.81.43.34.88.44.71,0C41.56,23.55,39.52,22.37,36.19,22.91Z" style="fill:#e5d6c1"/><path d="M41.82,25.94c1.41,1.09,2.2,9.2-1.14,10.84C43,34.83,43,28.36,41.82,25.94Z" style="fill:#fffdf3"/><path d="M41,26.53c-.56-.55-1.2-.93-1-1a1.37,1.37,0,0,1,1.49.54" style="fill:#e2d3ad"/><path d="M31.36,16.12c.52-5.3,2.89,1.64,3,2.57s.56,18.66.62,20.45c.07,2.5-3.29,5-9.92,5,3.05-.74,6.63-2.75,6.46-5.81C31.38,36.09,31.13,18.4,31.36,16.12Z" style="fill:#f89f27"/><path d="M13.94,31.6c1.37.29,3.42-1.12,3.66-3.38,1.16-.34,1.43-1.6,1.53-2.52a1.21,1.21,0,0,0,1.4-1c3,3,9.43,1.47,9.48-2.08.85,1.87,3.35,2.15,4.09.21-.1-.41,0-3.17-.07-3.51s-20.25-.17-20.32.51.23,11.73.23,11.73" style="fill:#f89f27"/><path d="M24.72,49.12a21.48,21.48,0,0,1-6.43-.77c-.88-.29-5.26-1.91-5.26-5L13.85,19c0-3,1.85-5,4.6-5H31c2.75,0,4.6,2,4.61,5l.82,24.32c0,3.07-4.39,4.69-5.26,5A21.56,21.56,0,0,1,24.72,49.12Zm-6.27-34c-2.64,0-3.58,2.05-3.58,4L14.05,43.4c0,2.39,4.09,3.82,4.56,4a20.79,20.79,0,0,0,6.11.72,20.79,20.79,0,0,0,6.11-.72c.47-.16,4.56-1.59,4.56-4l-.82-24.33c0-1.92-.94-4-3.58-4Z" style="fill:#563d33"/><path d="M24.72,44.64a20.85,20.85,0,0,1-6.43-.77c-.72-.24-4.34-1.55-5.12-4l1-.31c.48,1.54,2.7,2.77,4.46,3.35a20.13,20.13,0,0,0,6.11.72,20.13,20.13,0,0,0,6.11-.72c1.75-.58,4-1.8,4.46-3.33l1,.31c-.79,2.45-4.39,3.76-5.1,4A20.92,20.92,0,0,1,24.72,44.64Z" style="fill:#563d33"/><path d="M20.08,27.34c0,1.16-.57,12.11.07,13.65A3.8,3.8,0,0,0,23,43.17c-2.38.12-7.49-1.57-7.8-3.47s.06-5.63,0-8.17c.84-.37,1.83-1.15,2.44-3.31,1-.25,1.47-1.53,1.53-2.52A1.78,1.78,0,0,1,20.08,27.34Z" style="fill:#fde165"/><path d="M16.35,18.61c.41-2,1.77-1.87,1.56-.29-.41,2.93-.35,22-.35,23a5.63,5.63,0,0,0,2.8,5.34c-3.34-.31-4.3-2.09-4.57-4.73C15.57,39.76,16,20.54,16.35,18.61Z" style="fill:#fffdf3"/><path d="M35.11,10.49a4.09,4.09,0,0,0-4-2.9,4.23,4.23,0,0,0-2.49.8,9.94,9.94,0,0,0-7.4-3.07c-5.06,0-8.81,3.09-8.81,7.23,0,.11,0,.35,0,.46a5.53,5.53,0,0,0-2.82,4.91,5.75,5.75,0,0,0,1.86,4.32,3.08,3.08,0,0,0-.9,2.26A2.86,2.86,0,0,0,12,27.14a3.27,3.27,0,0,0-.1.78,2.3,2.3,0,0,0,2,2.51,2.3,2.3,0,0,0,2-2.51c0-.1,0-.2,0-.3.87-.28,1.52-1.56,1.52-3.11,0-.1,0-.2,0-.3a2.83,2.83,0,0,0,2.8-1.87,5.67,5.67,0,0,0,4.22,1.85,5.49,5.49,0,0,0,5.3-3.76,5.46,5.46,0,0,0,3.37,1.16,5.67,5.67,0,0,0,5.59-5.75A5.73,5.73,0,0,0,35.11,10.49Z" style="fill:#fff"/><circle cx="19.88" cy="31.19" r="1.08" style="fill:#fff"/><circle cx="21.82" cy="28.92" r="0.59" style="fill:#fff"/><circle cx="21.82" cy="34.1" r="0.48" style="fill:#fff"/><path d="M35,42.43c-1.92,2.7-7.18,3.49-12.07,2.8,0,.46.76,1.09,1.2,1.22,4.22,1.29,9.49-1,10.38-2a1.83,1.83,0,0,0,.51-.82A2.26,2.26,0,0,0,35,42.43Z" style="fill:#e5d6c1"/><path d="M30.18,11.21c5-1.5,6.51,1.78,6.78,3.37a4,4,0,0,1-2.38,4.61c-1.88.79-4.91,0-5.7-1.36.2,1-3.05,8.12-9.18,3,0,1.41-2.07,3.69-3.76,2.83.41,1.19.68,3-.77,3a1.48,1.48,0,0,1-1,2c-1,.33-1.74-.36-1.57-1.77-1,1.44-.11,3.5,1.39,3.51a2.17,2.17,0,0,0,2-2.5c.49-.6,1.76-2,1.49-3.71.38.16,2.7-.54,2.8-1.87,2,1.39,7.41,3.18,9.52-1.91,1,.62,6.44,3,8.65-2.68,1.67-4.32-2.41-7.14-3.25-7.26C33.79,10.25,33.11,9.57,30.18,11.21Z" style="fill:#e2d3af"/><path d="M13.54,9.05C18.5,4.48,25.92,5.6,28,10.63c.07-.31.21-1.3.72-1.5C28.27,5.55,18,2.43,13.54,9.05Z" style="fill:#e2d3af"/><path d="M28,10.63c.69-2.28,4.1-2.66,5.63.14.68-.93,1.89.71,1.81,0S32.73,6.13,29,8.15C27.59,8.9,28,10,28,10.63Z" style="fill:#e2d3af"/><path d="M10.28,20.58c.16.38.5,2.65,2.49,2.2-1.61-.33-2.6-2.85-2.94-5.66C9.73,16.32,10.19,20.39,10.28,20.58Z" style="fill:#c5ba88"/><path d="M12.47,13a3.23,3.23,0,0,1,4.72-.64c.27.24,1,1,.49,1.56C17,13.38,14.49,11.69,12.47,13Z" style="fill:#e2d3af"/><path d="M12.08,22.19c-.73-.18-2.9,3.81.48,4.68-.79-.51-2.25-2.07.27-4.08C12.08,22.69,12.1,22.27,12.08,22.19Z" style="fill:#e2d3af"/><path d="M9.71,17.12c.32,5.9,6.44,8.51,10,3.72,0,2.55-.71,3.48-3.52,3.69C13.21,24.76,9.45,21.07,9.71,17.12Z" style="fill:#e2d3af"/><path d="M14,30.9a2.8,2.8,0,0,1-2.49-3,3,3,0,0,1,0-.52,3.46,3.46,0,0,1-1.4-2.9,3.72,3.72,0,0,1,.7-2.23,6.35,6.35,0,0,1-1.66-4.35A6.11,6.11,0,0,1,12,12.67V12.5c0-4.41,4-7.73,9.33-7.73a10.62,10.62,0,0,1,7.48,2.92A4.71,4.71,0,0,1,31.17,7a4.63,4.63,0,0,1,4.39,3,6.29,6.29,0,0,1-2.45,12A5.94,5.94,0,0,1,30,21.18a6.09,6.09,0,0,1-5.54,3.48,6.16,6.16,0,0,1-4.09-1.52,3.24,3.24,0,0,1-2.42,1.52,3.89,3.89,0,0,1-1.49,3.24A2.8,2.8,0,0,1,14,30.9ZM21.28,5.79c-4.73,0-8.3,2.89-8.3,6.71v.14a3,3,0,0,0,0,.3v.32l-.28.16a5,5,0,0,0-2.55,4.46,5.26,5.26,0,0,0,1.68,3.94l.42.37-.4.38a2.59,2.59,0,0,0-.74,1.89,2.36,2.36,0,0,0,1.16,2.17l.39.18-.1.41a2.5,2.5,0,0,0-.09.66c0,1.1.66,2,1.47,2s1.46-.89,1.46-2a2,2,0,0,0,0-.25l0-.41.39-.13c.57-.18,1.17-1.22,1.17-2.62,0-.09,0-.18,0-.27l0-.56.56,0a2.33,2.33,0,0,0,2.31-1.57l.32-.73.53.59a5.12,5.12,0,0,0,3.84,1.69,5,5,0,0,0,4.81-3.4l.22-.71.58.45A4.9,4.9,0,0,0,33.11,21,5.26,5.26,0,0,0,35,10.92l-.23-.09-.07-.24a3.6,3.6,0,0,0-3.48-2.53,3.71,3.71,0,0,0-2.19.7L28.61,9l-.31-.34A9.47,9.47,0,0,0,21.28,5.79Z" style="fill:#563d33"/><path d="M38.7,16.34a.51.51,0,0,1-.51-.51,5.17,5.17,0,0,0-5.13-5.2,5.39,5.39,0,0,0-1.27.16,5.16,5.16,0,0,0-1.81.88.51.51,0,0,1-.61-.82,6.2,6.2,0,0,1,2.16-1,6.05,6.05,0,0,1,1.53-.19,6.19,6.19,0,0,1,6.15,6.22A.51.51,0,0,1,38.7,16.34Z" style="fill:#563d33"/><path d="M9.65,18.45a.51.51,0,0,1-.51-.51c0-3.28,2.39-6,5.32-6a4.92,4.92,0,0,1,3.24,1.23A.51.51,0,0,1,17,14a3.94,3.94,0,0,0-2.58-1c-2.37,0-4.3,2.2-4.3,4.92A.51.51,0,0,1,9.65,18.45Z" style="fill:#563d33"/><path d="M19.78,16.4c.29-2.28,1.54-4.6,4.94-3.67.59.2,1.53.3,1.45-.09-.13-.59-1.29-1.5-3.34-1.06C21.42,11.89,19.72,13.41,19.78,16.4Z" style="fill:#e2d3af"/><circle cx="12.46" cy="1.23" r="0.58" style="fill:#fff"/><path d="M12.46,2.07a.84.84,0,1,1,.83-.84A.83.83,0,0,1,12.46,2.07Zm0-1.16a.32.32,0,0,0-.33.32.33.33,0,1,0,.65,0A.32.32,0,0,0,12.46.91Z" style="fill:#563d33"/><circle cx="10.97" cy="4.75" r="1.06" style="fill:#fff"/><path d="M11,6.06a1.32,1.32,0,1,1,1.32-1.31A1.31,1.31,0,0,1,11,6.06Zm0-2.12a.81.81,0,1,0,.81.81A.8.8,0,0,0,11,3.94Z" style="fill:#563d33"/><circle cx="20.55" cy="26.47" r="0.2" style="fill:#fff"/><path d="M17.63,19.1a1.78,1.78,0,0,0-1.5,2.37,1.34,1.34,0,0,1-.53-1.08C15.61,19.26,16.75,19,17.63,19.1Z" style="fill:#e2d3af"/><circle cx="13.11" cy="27.16" r="0.29" style="fill:#fff"/><path d="M36.85,36.71a1.93,1.93,0,0,1-1.64-.79l.86-.57a1,1,0,0,0,1.07.31c2.85-.5,3.19-1.47,3.58-2.59a18.2,18.2,0,0,0-.09-6.14c-.28-1.17-2.72-1.48-3.66-1.34a2.06,2.06,0,0,0-1.17.59l-1-.29c.24-.82,1.56-1.25,2-1.32,1.22-.17,4.34.2,4.8,2.13.35,1.51.52,5.38.06,6.69s-.94,2.67-4.37,3.28A3.89,3.89,0,0,1,36.85,36.71Z" style="fill:#563d33"/></svg>
