<svg id="Layer_1" data-name="Layer 1" xmlns="http://www.w3.org/2000/svg" viewBox="0 0 50 50"><title>Пивная кружка</title><path d="M10.08,34.77H10a3.07,3.07,0,0,0-.07-.42,31.41,31.41,0,0,0-2-6.35,24.1,24.1,0,0,0-2.08,6.35c-.36,2.13.53,3.94,2,3.94a1.85,1.85,0,0,0,1.09-.36,1.36,1.36,0,0,0,1.16,1c.76,0,1.37-.93,1.37-2.07S10.84,34.77,10.08,34.77Z" style="fill:#fff"/><path d="M16.28,46.28c0-.19-.17-.28-.17-.49,0-1.59-1.36-1.86-2.42-1.86a1.43,1.43,0,0,0-.84.3,5.15,5.15,0,0,0-2.75-2.08c-2.15-.68-4.18.17-4.53,1.91s1.1,3.71,3.25,4.4a5.62,5.62,0,0,0,.79.18c.25.59.83.81,1.59,1a2.29,2.29,0,0,0,2.26-.32c.32.27,1.09.1,1.14-.15a1.58,1.58,0,0,0,2.08-.78C17,47.79,17,46.64,16.28,46.28Z" style="fill:#fff"/><path d="M37.18,5.72C37.18,2.3,30.83.39,22.42.39,13.66.39,7.57,2.3,7.57,5.72L5.93,39.46c.47,3.54,5.44,6,7.51,6.63a30.58,30.58,0,0,0,9,1,30.58,30.58,0,0,0,9-1c2.07-.67,7.28-3.55,7.28-7Z" style="fill:#fff"/><path d="M48,14c-1-2-2.66-4.81-8.81-4.68-.77,0-2.19.41-2.51-.35l1.49,25.51c1.26-.13,5.32-1.09,6.83-2.21a10.85,10.85,0,0,0,3.91-8.07C49,19.69,49,15.91,48,14ZM42.7,24.22c-.29,1.22-.58,2.5-3.11,3.14-.6.15-1.29.18-1.51-.23l-.31-10.46c.1-.5.87-.71,1.24-.78.79-.17,3.1,0,3.45,1.7A24.18,24.18,0,0,1,42.7,24.22Z" style="fill:#fff"/><path d="M36.08,10.64c.16,1.88,0,4.2.13,4.38s1.16-.55,2.21-.59,2.8-.33,4,.64,2.33,3.56,2,8.28A6.15,6.15,0,0,1,38.26,29c-1.22-.11-1.52-1.49-1.49-.73s.39,4.4.39,4.4l1.54-.44,4.69-.73A21,21,0,0,0,46,28.58a12.52,12.52,0,0,0,1.47-5.23,53.72,53.72,0,0,0-.13-5.82c-.19-1.46-.24-3.17-1.37-4.31s-1.61-2-3.59-2.22-4.58-.23-5.45-.29Z" style="fill:#f7ecf4"/><path d="M8.92,5.32a7.63,7.63,0,0,0-.1,1.28L7.74,38.49c0,3.22,4.54,5.23,6.44,5.86a27.11,27.11,0,0,0,8.22,1,27.15,27.15,0,0,0,8.22-1c1.9-.63,6.43-2.64,6.43-5.86L36,6.6a8.65,8.65,0,0,0-.08-1.15" style="fill:#f7ecf4"/><path d="M22.4,46A28,28,0,0,1,14,45c-1.15-.39-6.9-2.5-6.9-6.5L8.15,6.58a7.91,7.91,0,0,1,.11-1.37l1.32.22A7.49,7.49,0,0,0,9.49,6.6L8.41,38.51c0,3.13,5.37,5,6,5.2a27,27,0,0,0,8,.95,27,27,0,0,0,8-.95c.61-.2,6-2.07,6-5.22L35.31,6.63a9,9,0,0,0-.07-1.08l1.32-.19a8.42,8.42,0,0,1,.09,1.24l1.07,31.86c0,4-5.74,6.14-6.89,6.53A28,28,0,0,1,22.4,46Z" style="fill:#573e34"/><path d="M36.08,21.53c-1.62,1-7.3,1.81-13.55,1.81-7.2,0-13.1-1-13.6-2.21a1.57,1.57,0,0,0,0,.37l-.62,13c1.21,1.19,4.59,4.07,7.64,4.68l11.85.32c3.14-.6,8.92-3.73,8.92-5.25Z" style="fill:#fccf3b"/><path d="M38.62,31.55c0,.69,1,.31,1.24-.1C39.24,31.34,38.62,30.86,38.62,31.55Z" style="fill:#fff"/><path d="M8.92,5.32c.27-1.94,5.32-3.41,13.48-3.59,12.7-.28,13.53,3.93,13.53,3.93" style="fill:#f7ecf4"/><path d="M35.27,5.78S34.16,2.15,22.42,2.4c-9.07.2-12.69,1.95-12.84,3L8.26,5.23c.5-3.6,10.94-4.1,14.13-4.17C35.26.77,36.49,5,36.58,5.53Z" style="fill:#573e34"/><path d="M8.7,19a13.28,13.28,0,0,0-.36,4.23c3.83,5.61,22,5.77,27.13.67a18.42,18.42,0,0,0-.31-3.5C35,20.34,11.92,20.79,8.7,19Z" style="fill:#f89f27"/><path d="M35.93,18.31c0-2.46-6.06-4.46-13.53-4.46s-13.52,2-13.52,4.46v2.43c0,2.46,6.06,4.46,13.52,4.46s13.53-2,13.53-4.46Z" style="fill:#fff"/><path d="M37.17,33.4,37,32.06c3-.3,5.28-.86,6.13-1.5A8.2,8.2,0,0,0,46.7,24c.1-3.95.12-7.65-.78-9.42-.8-1.57-2.49-3.58-8-3h-.06a2.16,2.16,0,0,1-2.29-1.21l1.24-.51c.11.27.27.38,1,.38h0c4.76-.46,7.81.77,9.33,3.76,1,2.06,1,5.78.93,10.07A9.43,9.43,0,0,1,44,31.63C42.53,32.71,39.09,33.2,37.17,33.4Z" style="fill:#563d33"/><path d="M38.29,29.6a2.35,2.35,0,0,1-2-1l.89-.59a1.48,1.48,0,0,0,1.55.46c3.8-.67,4.28-2,4.79-3.47s.35-6.18-.11-8.13c-.39-1.63-3.65-2-5-1.86-.62.09-1.56.58-1.64.86l-1-.3c.3-1,2-1.55,2.52-1.62,1.57-.22,5.56.24,6.14,2.68.46,2,.68,7,.09,8.69s-1.2,3.43-5.63,4.21A4,4,0,0,1,38.29,29.6Z" style="fill:#563d33"/><path d="M44.33,15.84c1.57,2.38,1.2,7.35,1.05,8.48a6.89,6.89,0,0,1-4.94,6.2,4.79,4.79,0,0,1-3.29-.34c-.41-.26-.75-1.12-.18-1.24a2.47,2.47,0,0,1,1.25.27c.43.05,5.25.08,5.88-4.79.69-5.41,0-7.2-.41-8-.73-.72-1.35-1-1.31-1.27C42.44,14.7,43.73,14.93,44.33,15.84Z" style="fill:#ede2d2"/><path d="M37.43,11.65c-.47.08-.33.82,0,.94.57.2,3.4-.9,6.57,1.07.57.44,1.16.57.94,0C44.47,12.49,41.78,11,37.43,11.65Z" style="fill:#ede2d2"/><path d="M37.49,31c0,.65.9.29,1.15-.1C38.06,30.75,37.49,30.3,37.49,31Z" style="fill:#fffdf3"/><path d="M44.81,15.62c1.84,1.43,2.87,12.06-1.5,14.2C46.34,27.28,46.38,18.79,44.81,15.62Z" style="fill:#fffdf3"/><path d="M43.69,16.4c-.73-.72-1.57-1.22-1.31-1.27a1.82,1.82,0,0,1,1.95.71" style="fill:#e2d3ad"/><path d="M31,26.37a15.88,15.88,0,0,0,4.5-2.51c.11,1.79.29,9.26.35,10.92.1,2.35-4.3,4.71-13,4.71,4-.71,8.45-2.59,8.47-5.48C31.3,31.7,31,28.54,31,26.37Z" style="fill:#f89f27"/><path d="M22.4,46A28,28,0,0,1,14,45c-1.15-.39-6.9-2.5-6.9-6.5L8.15,6.58a8.51,8.51,0,0,1,.06-1l1.33.15a6.26,6.26,0,0,0,0,.87L8.41,38.51c0,3.13,5.37,5,6,5.2a27,27,0,0,0,8,.95,27,27,0,0,0,8-.95c.61-.2,6-2.07,6-5.22L35.31,6.63a9,9,0,0,0-.07-1.08l1.32-.19a8.42,8.42,0,0,1,.09,1.24l1.07,31.86c0,4-5.74,6.14-6.89,6.53A28,28,0,0,1,22.4,46Z" style="fill:#563d33"/><path d="M22.4,40.13a27.35,27.35,0,0,1-8.43-1c-.94-.31-5.69-2-6.7-5.26l1.27-.4c.64,2,3.55,3.63,5.85,4.39a26.73,26.73,0,0,0,8,.94,26.73,26.73,0,0,0,8-.94c2.29-.76,5.19-2.36,5.84-4.37l1.27.41c-1,3.21-5.75,4.92-6.69,5.23A27.39,27.39,0,0,1,22.4,40.13Z" style="fill:#563d33"/><path d="M15.56,31.7a5.94,5.94,0,0,0,.85,3.64,5.21,5.21,0,0,0,3.67,2.86C17,38.36,10,36.15,9.6,33.66a33.87,33.87,0,0,1,.47-8.76,15.29,15.29,0,0,0,4.71,1.9C15.73,27.14,15.57,31.17,15.56,31.7Z" style="fill:#fde165"/><path d="M11.43,12.13c.29-2.55,2.13-2.06,2-.32C13.3,14.93,13,35.9,13,36.92a6.08,6.08,0,0,0,3.66,5.84c-4.38-.34-5.63-2.28-6-5.17C10.4,35.23,11.19,14.29,11.43,12.13Z" style="fill:#fffdf3"/><circle cx="18.6" cy="27.92" r="0.63" style="fill:#fff"/><path d="M35.89,37.23c-2.51,3.54-9.4,4.58-15.81,3.67,0,.61,1,1.43,1.57,1.6,5.53,1.69,12.43-1.33,13.6-2.6a2.39,2.39,0,0,0,.67-1.08A3,3,0,0,0,35.89,37.23Z" style="fill:#ede2d2"/><path d="M38.32,29.72a2.49,2.49,0,0,1-2.17-1L37.27,28a1.44,1.44,0,0,0,1.42.4c3.68-.52,4.14-1.85,4.63-3.26l0-.16c.47-1.33.32-6.12-.12-8-.37-1.53-3.57-1.93-4.8-1.76a2.79,2.79,0,0,0-1.53.77l-1.29-.38c.32-1.07,2-1.63,2.63-1.72,1.61-.22,5.69.26,6.29,2.78.47,2,.69,7.06.09,8.77l-.06.16c-.54,1.56-1.22,3.51-5.7,4.14A3.52,3.52,0,0,1,38.32,29.72Z" style="fill:#563d33"/><path d="M22.4,10.12c-6.81,0-14-1.56-14-4.46S15.59,1.19,22.4,1.19,36.46,2.76,36.46,5.66,29.22,10.12,22.4,10.12Zm0-7.86c-8,0-13,2-13,3.4s4.94,3.39,13,3.39,13-2,13-3.39S30.45,2.26,22.4,2.26Z" style="fill:#563d33"/><path d="M9.37,6.26c-.31.92.25.88.51.65,1.31-1.14,6.44-3.23,14.92-2.7.68,0,1.31-.73.12-.85C19.11,2.75,10.06,4.23,9.37,6.26Z" style="fill:#ede2d2"/><path d="M22.4,10.26c-7,0-14.19-1.58-14.19-4.6s7.14-4.6,14.19-4.6,14.2,1.58,14.2,4.6S29.46,10.26,22.4,10.26Zm0-7.86C14.56,2.4,9.55,4.33,9.55,5.66s5,3.25,12.85,3.25S35.26,7,35.26,5.66,30.25,2.4,22.4,2.4Z" style="fill:#573e34"/><circle cx="14.7" cy="20.39" r="0.5" style="fill:#f9edc2"/><circle cx="16" cy="22.43" r="0.8" style="fill:#f9edc2"/><circle cx="30.4" cy="14.58" r="1.08" style="fill:#fff"/><path d="M11.69,34.77h0a3.1,3.1,0,0,0-.08-.42,30.71,30.71,0,0,0-2-6.35,24.1,24.1,0,0,0-2.08,6.35c-.36,2.13.53,3.94,2,3.94a1.85,1.85,0,0,0,1.09-.36,1.36,1.36,0,0,0,1.16,1c.76,0,1.37-.93,1.37-2.07S12.45,34.77,11.69,34.77Z" style="fill:#fff"/><path d="M11.69,39.59a1.81,1.81,0,0,1-1.43-.76,2.52,2.52,0,0,1-.82.14,2.42,2.42,0,0,1-1.86-.9,4.74,4.74,0,0,1-.79-3.82A25,25,0,0,1,9,27.66a.69.69,0,0,1,.57-.32.68.68,0,0,1,.58.33A28.36,28.36,0,0,1,12.17,34l0,.17a2.68,2.68,0,0,1,1.52,2.66C13.73,38.39,12.83,39.59,11.69,39.59Zm-1.16-2.32.18,0a.68.68,0,0,1,.44.39c.14.33.35.56.54.56s.7-.55.7-1.4-.39-1.37-.67-1.41h-.08a.68.68,0,0,1-.66-.58c0-.12,0-.24-.07-.35l0-.18a44.24,44.24,0,0,0-1.36-4.76,28.74,28.74,0,0,0-1.4,4.89,3.45,3.45,0,0,0,.5,2.74,1.09,1.09,0,0,0,1.53.18A.78.78,0,0,1,10.53,37.27Z" style="fill:#573e34"/><path d="M15.19,46.69a1.75,1.75,0,0,0,0-.4,1.73,1.73,0,0,0-1.56-1.85,1.31,1.31,0,0,0-.68.19,4.19,4.19,0,0,0-2.23-1.34C9,42.85,7.38,43.4,7.1,44.52s.89,2.4,2.63,2.84q.31.07.63.12a2.08,2.08,0,0,0,1.31.88,2,2,0,0,0,1.7-.25,1.36,1.36,0,0,0,.3,0,1.39,1.39,0,0,0,.66-.18.76.76,0,0,0,.45.15.78.78,0,0,0,.78-.78A.75.75,0,0,0,15.19,46.69Z" style="fill:#fff"/><path d="M12.32,49.11a3.4,3.4,0,0,1-.82-.1A2.91,2.91,0,0,1,10,48.1L9.56,48a5,5,0,0,1-2.4-1.36,2.45,2.45,0,0,1-.71-2.29c.38-1.5,2.35-2.26,4.48-1.72a5.21,5.21,0,0,1,2.24,1.2,1.68,1.68,0,0,1,.5-.07,2.39,2.39,0,0,1,2.23,2.52v.13a1.45,1.45,0,0,1-1.12,2.37,1.5,1.5,0,0,1-.47-.08,1.87,1.87,0,0,1-.78.1A2.34,2.34,0,0,1,12.32,49.11Zm-2.75-5.3c-1,0-1.7.39-1.83.88a1.27,1.27,0,0,0,.4,1.05,3.64,3.64,0,0,0,1.75,1,3.53,3.53,0,0,0,.55.1.68.68,0,0,1,.51.35,1.46,1.46,0,0,0,.88.55,1.32,1.32,0,0,0,1.08-.09.68.68,0,0,1,.61-.16.62.62,0,0,0,.48-.08.67.67,0,0,1,.72,0,.1.1,0,0,0,.06,0,.11.11,0,0,0,.11-.11.13.13,0,0,0-.05-.09.65.65,0,0,1-.3-.68,2.46,2.46,0,0,0,0-.28c0-.79-.61-1.44-1.24-1.08a.67.67,0,0,1-.86-.16,3.45,3.45,0,0,0-1.86-1.11A4.33,4.33,0,0,0,9.57,43.81Z" style="fill:#573e34"/><path d="M10,46.56a9.27,9.27,0,0,0,.32.92" style="fill:#fff"/><path d="M10.36,48.15a.65.65,0,0,1-.6-.39,6.74,6.74,0,0,1-.37-1.06.67.67,0,0,1,.5-.8.69.69,0,0,1,.81.51,6.75,6.75,0,0,0,.27.79.67.67,0,0,1-.61.95Z" style="fill:#573e34"/><path d="M12,44.31c.43.22,1,.7.9,1a1.21,1.21,0,0,1,1.43,1.42c0,.38.15.47.24.63.27.35.63,0,.43.25.33-.35.14-.55.17-.94s.43-1.38-.71-1.79A8.3,8.3,0,0,0,12,44.31Z" style="fill:#e2d3af"/><path d="M13.23,47.13c-.6.06-1.38,1.07-2.87-1,.42,2.45,1.45,2.32,1.81,2.32s4-.63,2.46-1.77C14.6,47.53,13.82,47.07,13.23,47.13Z" style="fill:#e2d3af"/><path d="M12.32,49.11a3.4,3.4,0,0,1-.82-.1A2.91,2.91,0,0,1,10,48.1L9.56,48a5,5,0,0,1-2.4-1.36,2.45,2.45,0,0,1-.71-2.29c.38-1.5,2.35-2.26,4.48-1.72a5.21,5.21,0,0,1,2.24,1.2,1.68,1.68,0,0,1,.5-.07,2.39,2.39,0,0,1,2.23,2.52v.13a1.45,1.45,0,0,1-1.12,2.37,1.5,1.5,0,0,1-.47-.08,1.87,1.87,0,0,1-.78.1A2.34,2.34,0,0,1,12.32,49.11Zm-2.75-5.3c-1,0-1.7.39-1.83.88a1.27,1.27,0,0,0,.4,1.05,3.64,3.64,0,0,0,1.75,1,3.53,3.53,0,0,0,.55.1.68.68,0,0,1,.51.35,1.46,1.46,0,0,0,.88.55,1.32,1.32,0,0,0,1.08-.09.68.68,0,0,1,.61-.16.62.62,0,0,0,.48-.08.67.67,0,0,1,.72,0,.1.1,0,0,0,.06,0,.11.11,0,0,0,.11-.11.13.13,0,0,0-.05-.09.65.65,0,0,1-.3-.68,2.46,2.46,0,0,0,0-.28c0-.79-.61-1.44-1.24-1.08a.67.67,0,0,1-.86-.16,3.45,3.45,0,0,0-1.86-1.11A4.33,4.33,0,0,0,9.57,43.81Z" style="fill:#573e34"/><path d="M10,46.56a9.27,9.27,0,0,0,.32.92" style="fill:#fff"/><path d="M10.36,48.15a.65.65,0,0,1-.6-.39,6.74,6.74,0,0,1-.37-1.06.67.67,0,0,1,.5-.8.69.69,0,0,1,.81.51,6.75,6.75,0,0,0,.27.79.67.67,0,0,1-.61.95Z" style="fill:#573e34"/><path d="M11.14,35c1.59.73,1.28,2.72-.49,2-1,.22-1.72.59-2.74-1.82C7.48,37.39,9,38.36,10.37,38c1-.23,1.77,1.12,1.91.88.38-.61,1.25-3.52.18-3.79A2.45,2.45,0,0,0,11.14,35Z" style="fill:#e2d3af"/><path d="M11.69,39.59a1.81,1.81,0,0,1-1.43-.76,2.52,2.52,0,0,1-.82.14,2.42,2.42,0,0,1-1.86-.9,4.74,4.74,0,0,1-.79-3.82A25,25,0,0,1,9,27.66a.69.69,0,0,1,.57-.32.68.68,0,0,1,.58.33A28.36,28.36,0,0,1,12.17,34l0,.17a2.68,2.68,0,0,1,1.52,2.66C13.73,38.39,12.83,39.59,11.69,39.59Zm-1.16-2.32.18,0a.68.68,0,0,1,.44.39c.14.33.35.56.54.56s.7-.55.7-1.4-.39-1.37-.67-1.41h-.08a.68.68,0,0,1-.66-.58c0-.12,0-.24-.07-.35l0-.18a44.24,44.24,0,0,0-1.36-4.76,28.74,28.74,0,0,0-1.4,4.89,3.45,3.45,0,0,0,.5,2.74,1.09,1.09,0,0,0,1.53.18A.78.78,0,0,1,10.53,37.27Z" style="fill:#573e34"/></svg>

