<svg xmlns="http://www.w3.org/2000/svg" xmlns:xlink="http://www.w3.org/1999/xlink" version="1.1" width="807.682" height="807.682" enable-background="new 0 0 807.682 331.561" xml:space="preserve"><rect id="backgroundrect" width="100%" height="100%" x="0" y="0" fill="none" stroke="none"/>



<g class="currentLayer" style=""><title>Layer 1</title><g id="Layer_1_1_">
</g><g id="logo_apollo_white" class="">
	<g id="svg_1">
		<polygon fill="#333333" points="188.96482849121094,363.3594169616699 169.81930541992188,363.3594169616699 142.1763916015625,435.1005668640137 159.4932861328125,435.1005668640137 164.01132202148438,422.9474906921387 190.13037109375,422.9474906921387 185.40206909179688,409.50129318237305 168.20330810546875,409.50129318237305 179.39089965820312,378.6318778991699 199.29164123535156,435.1005668640137 216.60772705078125,435.1005668640137 " id="svg_2"/>
		<path fill="#333333" d="M479.79936154899616,435.10056993739624 V363.3594106072666 h15.378787000656127 v58.29574605369568 h30.33309805941582 v13.44462575149536 H479.79936154899616 z" id="svg_3"/>
		<path fill="#333333" d="M568.4463187356951,435.10056993739624 V363.3594106072666 h15.381149575471877 v58.29574605369568 h30.332310534477234 v13.44462575149536 H568.4463187356951 z" id="svg_4"/>
		<path fill="#333333" d="M394.6151515172483,376.21575522964025 c12.720102807998659,0 23.068968025922775,10.348077692985536 23.068968025922775,23.068180500984194 c0,12.719315283060073 -10.348865217924118,23.068180500984194 -23.068968025922775,23.068180500984194 c-12.719315283060073,0 -23.068180500984194,-10.348865217924118 -23.068180500984194,-23.068180500984194 C371.54697101626414,386.56147034781 381.8958362341882,376.21575522964025 394.6151515172483,376.21575522964025 M394.6151515172483,362.17812319939156 c-20.49297395181656,0 -37.106600056171416,16.613626104354857 -37.106600056171416,37.10581253123283 c0,20.493761476755143 16.613626104354857,37.108175106048584 37.106600056171416,37.108175106048584 s37.108175106048584,-16.61441362929344 37.108175106048584,-37.108175106048584 C431.7233266232969,378.7901742538692 415.10891299400345,362.17812319939156 394.6151515172483,362.17812319939156 L394.6151515172483,362.17812319939156 z" id="svg_5"/>
		<path fill="#333333" d="M684.8677054563524,376.21575522964025 c12.721677857875823,0 23.070543075799943,10.348077692985536 23.070543075799943,23.068180500984194 c0,12.719315283060073 -10.348865217924118,23.068180500984194 -23.070543075799943,23.068180500984194 c-12.720102807998659,0 -23.06739297604561,-10.348865217924118 -23.06739297604561,-23.068180500984194 C661.8003124803067,386.56147034781 672.1476026483538,376.21575522964025 684.8677054563524,376.21575522964025 M684.8677054563524,362.17812319939156 c-20.492186426877975,0 -37.107387581110004,16.613626104354857 -37.107387581110004,37.10581253123283 c0,20.493761476755143 16.617563729047774,37.108175106048584 37.107387581110004,37.108175106048584 c20.493761476755143,0 37.10896263098717,-16.61441362929344 37.10896263098717,-37.108175106048584 C721.9766680873396,378.7901742538692 705.3622544580461,362.17812319939156 684.8677054563524,362.17812319939156 L684.8677054563524,362.17812319939156 z" id="svg_6"/>
		<path fill="#333333" d="M294.8081784258844,363.3594106072666 h-18.17765063238144 h-2.6082825965881353 h-12.666551112174988 v71.7427343800068 h15.274833708763124 v-24.691269399404526 h18.17765063238144 c12.749241230726241,0 23.085506049633025,-10.777278784513474 23.085506049633025,-23.526520015239715 C317.89368447551743,374.1335392920258 307.55741965661065,363.3594106072666 294.8081784258844,363.3594106072666 zM294.8081784258844,396.37088098280447 h-18.17765063238144 v-18.970688245534895 h18.17765063238144 c4.989758010864258,0 9.045511444568634,4.497554924249649 9.045511444568634,9.48573788523674 C303.8536898704531,391.874901108432 299.7979364367486,396.37088098280447 294.8081784258844,396.37088098280447 z" id="svg_7"/>
		<g id="svg_8">
			<path fill="#333333" d="M248.16701393828407,456.8732719144108 c-1.3293420963287361,0 -2.5027542548179627,0.6583708486557014 -3.2194019489288332,1.6679778199195865 c0,0 -3.4454216063022614,3.9305369684696188 -5.301617886543274,5.791458398342133 c-7.858711362123489,7.858711362123489 -17.01053867340088,14.02739420604706 -27.195598704099655,18.33436809515953 c-10.542596352815629,4.459753727197647 -21.74435107922554,6.720737825870515 -33.29734192824364,6.720737825870515 c-11.554565898895264,0 -22.756320625305175,-2.260984098672867 -33.29734192824364,-6.720737825870515 c-10.187422605514527,-4.309336463928223 -19.33767486691475,-10.478019307851792 -27.194811179161068,-18.33436809515953 c-7.858711362123489,-7.860286412000656 -14.02818173098564,-17.012113723278045 -18.337518194913866,-27.19638622903824 c-4.457391152381897,-10.544958927631379 -6.71995030093193,-21.745926129102706 -6.71995030093193,-33.29812945318222 s2.2625591485500336,-22.75553310036659 6.71995030093193,-33.29734192824364 c4.309336463928223,-10.187422605514527 10.478806832790376,-19.336887341976166 18.337518194913866,-27.195598704099655 s17.008963623523712,-14.02739420604706 27.194811179161068,-18.337518194913866 c10.541808827877045,-4.458178677320481 21.742776029348374,-6.719162775993347 33.29734192824364,-6.719162775993347 c11.552990849018096,0 22.756320625305175,2.260984098672867 33.29734192824364,6.719162775993347 c7.4200599713325515,3.1390744051933286 14.286489910840986,7.2688551831245425 20.507936925649645,12.317677564382553 c-0.3323355240821841,0.9788934986591342 -0.5181914095878606,2.0286642417907714 -0.5181914095878606,3.1209613316059115 c0,5.331543834209442 4.321936862945557,9.653480697154999 9.651905647277832,9.653480697154999 c5.332331359148025,0 9.653480697154999,-4.321936862945557 9.653480697154999,-9.653480697154999 c0,-5.332331359148025 -4.321149338006974,-9.652693172216415 -9.653480697154999,-9.652693172216415 c-1.3230418968200688,0 -2.5854443733692167,0.2669709541797642 -3.7344432587623597,0.7505112664699557 c-16.118272917985916,-13.216243519306182 -36.73410076022149,-21.15134480047226 -59.20454983282089,-21.15134480047226 c-51.610446850061415,0 -93.44770921230315,41.837262362241745 -93.44770921230315,93.44770921230315 s41.837262362241745,93.44849673724174 93.44770921230315,93.44849673724174 c28.869089198589325,0 54.66998123645783,-13.10126487827301 71.81046152472496,-33.67299132394791 c0.7127100694179535,-0.7142851192951205 1.1568741347789766,-1.7010538673400881 1.1568741347789766,-2.7902008574008947 C252.11881408009546,458.63969035165326 250.35160811791437,456.8732719144108 248.16701393828407,456.8732719144108 z" id="svg_9"/>
		</g>
	</g>
</g><g id="svg_10">
</g></g></svg>