<svg xmlns="http://www.w3.org/2000/svg" height="32" width="32"><rect id="backgroundrect" width="100%" height="100%" x="0" y="0" fill="none" stroke="none"/><g class="currentLayer" style=""><title>Layer 1</title><g id="svg_1" class=""><path d="m27.697674885037465,22.429745876337062 c-0.8509435690935108,0.21646810090975271 -1.377184986822392,0.00933052159093763 -1.849309379323835,-0.6997891193203215 c-1.059947252730513,-1.5880547747775822 -2.2299946602340897,-3.1033314811458506 -3.358987772737541,-4.6465997522869324 c-0.14555613681862686,-0.19967316204606508 -0.2967105865918163,-0.3956141154557551 -0.4851871227287562,-0.6438059897746956 c-1.3361306918222664,1.802656771369147 -2.6703952793263452,3.5194727441016678 -3.9225512768301734,5.3053345766071285 c-0.4478650363650057,0.638207676820133 -0.9181233245482613,0.9162572202300737 -1.7541380590962716,0.6904585977293838 l5.023552824560812,-6.7422349016115195 l-4.676457421377932,-6.089098390245888 c0.8042909611388226,-0.15675276272775196 1.3603900479587043,-0.0765102770456885 1.8530415879602102,0.6438059897746956 c1.0879388175033258,1.5899208790957697 2.287843894097903,3.1033314811458506 3.4840167620561053,4.704448986150745 c1.2036372852309525,-1.5955191920503322 2.3886135272800293,-3.110795898418601 3.508276118192543,-4.6857879429688705 c0.44973114068319303,-0.638207676820133 0.9330521590937614,-0.8808012381845113 1.7410753288689589,-0.6456720940928834 c-0.6120822163655079,0.8117553784115727 -1.2111017025037023,1.6104480265958327 -1.8138533972782724,2.4035423618255303 c-0.8136214827297603,1.0692777743214508 -1.6123141309140199,2.1516182788702136 -2.45579328273478,3.1985028013734143 c-0.3004427952281914,0.37322086363750473 -0.25192408295531576,0.6158144250018827 0.016794938863687728,0.9685081411393245 c1.5600632100047689,2.0508486456880877 3.1014653768276643,4.122224438876238 4.689520151605245,6.238386735700889 z" stroke-width="0" id="svg_2"/><path d="m4.307923360875055,15.581143028588853 c0.13435951090950163,-0.6736636588656959 0.22393251818250284,-1.3603900479587043 0.4105429500012553,-2.020990976597087 c1.1196625909125137,-3.9990615538758614 5.71027921365382,-5.661760501380944 8.863995511390733,-3.1835739668279137 c1.847443275005648,1.4536952638680802 2.306504937279778,3.50267780523798 2.2150658256885896,5.812914951154133 h-10.412862095486377 c-0.15675276272775196,4.1446176906944885 2.8271480420540973,6.647063581383956 6.630268642520269,5.3706482277436915 c1.334264587504079,-0.4478650363650057 2.119894505461026,-1.4928834545500183 2.513642516598594,-2.7991564772812842 c0.19967316204606508,-0.655002615683821 0.5299736263652566,-0.7576383531841346 1.145788051367139,-0.5710279213653819 c-0.3153716297736917,1.63470738273227 -1.0300895836395125,3.0006957436455366 -2.522973038189531,3.8553715213754223 c-2.2393251818250275,1.2801475622766407 -5.435961878880254,0.8658724036390109 -7.1173218695672125,-0.9125250115936989 c-0.9927674972757623,-1.0450184181850126 -1.4145070731861422,-2.345693127961716 -1.6011175050048947,-3.750869679556921 c-0.02799156477281286,-0.22393251818250284 -0.0858407986366261,-0.44413282772863066 -0.1306273022731266,-0.6661992415929456 q0.005598312954562572,-0.5672957127290073 0.005598312954562572,-1.1345914254580138 zm1.095403234776076,-0.27804954340994115 h9.410764076619678 c-0.061581442500188315,-2.9969635350091615 -1.9276857606877114,-5.126188562061126 -4.478650363650055,-5.144849605243 c-2.7991564772812842,-0.0223932518182503 -4.810816932287435,2.0564469586426504 -4.932113712969622,5.144849605243 z" stroke-width="0" id="svg_3"/></g></g></svg>