<svg xmlns="http://www.w3.org/2000/svg" width="512" height="512" style=""><rect id="backgroundrect" width="100%" height="100%" x="0" y="0" fill="none" stroke="none"/>
 <title>HTML5 Logo</title>

 <g style="">
  <title>background</title>
  <rect fill="none" id="canvas_background" height="402" width="582" y="-1" x="-1"/>
 </g>
 <g style="" class="currentLayer">
  <title>Layer 1</title>
  
   
   
   
   
  
 <g class=""><path id="svg_2" d="m113.44344416647344,429.05990032800696 l-31.700583457946777,-355.8150337219238 l348.5142932891846,0 l-31.700583457946777,355.6229089736938 l-142.84475030899046,39.57769813537598 " fill="#e44d26" class=""/><path id="svg_3" d="m256.0000073531189,438.18582586893103 l0,-335.73799753189087 l142.46050081253054,0 l-27.185651874542238,303.55710220336914 " fill="#f16529" class=""/><path id="svg_4" d="m146.48890086203008,145.9640838111308 l109.51110649108887,0 l0,43.612317848205564 l-61.672044181823736,0 l4.03461971282959,44.66900396347046 l57.63742446899414,0 l0,43.51625547409057 l-97.59937210083007,0 m1.9212474822998047,21.902221298217775 l43.80444259643555,0 l3.073995971679688,34.87064180374145 l48.79968605041503,13.064482879638671 l0,45.53356533050537 l-89.5301326751709,-24.97621726989746 " fill="#ebebeb" class=""/><path id="svg_5" d="m365.12686434774787,145.9640838111308 l-109.31898174285888,0 l0,43.612317848205564 l105.28436203002929,0 m-3.9385573387145993,44.66900396347046 l-101.3458046913147,0 l0,43.612317848205564 l53.79492950439453,0 l-5.091305828094482,56.67680072784424 l-48.703623676300055,13.064482879638671 l0,45.341440582275396 l89.33800792694092,-24.784092521667482 " fill="#fff" class=""/></g></g>
</svg>