<svg xmlns="http://www.w3.org/2000/svg" width="100" height="100" style=""><rect id="backgroundrect" width="100%" height="100%" x="0" y="0" fill="none" stroke="none"/>
  
<g class="currentLayer" style=""><title>Layer 1</title><g fill="#764ABC" id="svg_1" class="">
    <path d="M65.15818939208984,60.58948078155518 c2.9,-0.3000000000000003 5.1,-2.8 5,-5.8 c-0.1,-3 -2.6,-5.4 -5.6,-5.4 h-0.2 c-3.1,0.1 -5.5,2.7 -5.4,5.8 c0.1,1.5 0.7000000000000006,2.8 1.6,3.7 c-3.4,6.7 -8.6,11.6 -16.4,15.7 c-5.3,2.8 -10.8,3.8 -16.3,3.1 c-4.5,-0.6000000000000006 -8,-2.6 -10.2,-5.9 c-3.2,-4.9 -3.5,-10.2 -0.8,-15.5 c1.9,-3.8 4.9,-6.6 6.8,-8 c-0.4,-1.3 -1,-3.5 -1.3,-5.1 c-14.5,10.5 -13,24.7 -8.6,31.4 c3.3,5 10,8.1 17.4,8.1 c2,0 4,-0.2 6,-0.7000000000000006 c12.8,-2.5 22.5,-10.1 28,-21.4 z" id="svg_2"/>
    <path d="M82.75818939208985,48.189480781555176 c-7.6,-8.9 -18.8,-13.8 -31.6,-13.8 H49.558189392089844 c-0.9,-1.8 -2.8,-3 -4.9,-3 h-0.2 c-3.1,0.1 -5.5,2.7 -5.4,5.8 c0.1,3 2.6,5.4 5.6,5.4 h0.2 c2.2,-0.1 4.1,-1.5 4.9,-3.4 H51.558189392089844 c7.6,0 14.8,2.2 21.3,6.5 c5,3.3 8.6,7.6 10.6,12.8 c1.7000000000000002,4.2 1.6,8.3 -0.2,11.8 c-2.8,5.3 -7.5,8.2 -13.7,8.2 c-4,0 -7.8,-1.2 -9.8,-2.1 c-1.1,1 -3.1,2.6 -4.5,3.6 c4.3,2 8.7,3.1 12.9,3.1 c9.6,0 16.7,-5.3 19.4,-10.6 c2.9,-5.8 2.7,-15.8 -4.8,-24.3 z" id="svg_3"/>
    <path d="M31.958189392089842,62.28948078155517 c0.1,3 2.6,5.4 5.6,5.4 h0.2 c3.1,-0.1 5.5,-2.7 5.4,-5.8 c-0.1,-3 -2.6,-5.4 -5.6,-5.4 h-0.2 c-0.2,0 -0.5,0 -0.7000000000000006,0.1 c-4.1,-6.8 -5.8,-14.2 -5.2,-22.2 c0.4,-6 2.4,-11.2 5.9,-15.5 c2.9,-3.7 8.5,-5.5 12.3,-5.6 c10.6,-0.2 15.1,13 15.4,18.3 c1.3,0.3000000000000003 3.5,1 5,1.5 c-1.2,-16.2 -11.2,-24.6 -20.8,-24.6 c-9,0 -17.3,6.5 -20.6,16.1 c-4.6,12.8 -1.6,25.1 4,34.8 c-0.5,0.7000000000000006 -0.8,1.8 -0.7000000000000006,2.9 z" id="svg_4"/>
  </g></g></svg>