<svg width="2048" height="2048" xmlns="http://www.w3.org/2000/svg">
 <defs>
  <style type="text/css">
   <![CDATA[
    .fil4 {fill:none}
    .fil0 {fill:#1572B6}
    .fil1 {fill:#35A8DB}
    .fil2 {fill:#E9E9E8}
    .fil3 {fill:#FFFFFE}
   ]]>
  </style>
 </defs>
 <g>
  <title>background</title>
  <rect fill="none" id="canvas_background" height="402" width="582" y="-1" x="-1"/>
 </g>
 <g>
  <title>Layer 1</title>
  <g id="Layer_x0020_1">
   <g id="_337846024">
    <polygon points="1582.48095703125,1687.1304931640625 1703.301025390625,333.75152587890625 1704.8809814453125,315.99951171875 1687.0809326171875,315.99951171875 360.9200134277344,315.99951171875 343.1190185546875,315.99951171875 344.70001220703125,333.75152587890625 465.3890075683594,1687.3504638671875 466.39501953125,1698.6405029296875 477.2669982910156,1701.6505126953125 1018.8509521484375,1852.00048828125 1027.541015625,1852.00048828125 1570.6009521484375,1701.4305419921875 1581.470947265625,1698.4205322265625 " id="_337847128" class="fil0"/>
    <polygon points="1599.9310302734375,411.9985046386719 1024.0009765625,411.9985046386719 1024.0009765625,1753.3604736328125 1491.760986328125,1623.6705322265625 " id="_337847104" class="fil1"/>
    <g id="svg_1">
     <polygon points="1023.3609619140625,772.3595581054688 617.14794921875,941.5375366210938 630.6219482421875,1109.030517578125 1023.3609619140625,941.1085205078125 1441.1309814453125,762.4954833984375 1458.450927734375,591.154541015625 " id="_337846984" class="fil2"/>
     <polygon points="1023.3609619140625,591.1624755859375 1026.3709716796875,591.1624755859375 1029.801025390625,591.1624755859375 1033.220947265625,591.1624755859375 1036.6510009765625,591.1624755859375 1040.0809326171875,591.1624755859375 1043.510986328125,591.1624755859375 1046.94091796875,591.1624755859375 1050.3709716796875,591.1624755859375 1053.801025390625,591.1624755859375 1057.23095703125,591.1624755859375 1060.6610107421875,591.1624755859375 1064.0909423828125,591.1624755859375 1067.52099609375,591.1624755859375 1070.950927734375,591.1624755859375 1074.3809814453125,591.1624755859375 1077.81103515625,591.1624755859375 1081.23095703125,591.1624755859375 1084.6610107421875,591.1624755859375 1088.0909423828125,591.1624755859375 1091.52099609375,591.1624755859375 1094.950927734375,591.1624755859375 1098.3809814453125,591.1624755859375 1101.81103515625,591.1624755859375 1105.240966796875,591.1624755859375 1108.6710205078125,591.1624755859375 1112.1009521484375,591.1624755859375 1115.531005859375,591.1624755859375 1118.950927734375,591.1624755859375 1122.3809814453125,591.1624755859375 1125.81103515625,591.1624755859375 1129.240966796875,591.1624755859375 1132.6710205078125,591.1624755859375 1136.1009521484375,591.1624755859375 1139.531005859375,591.1624755859375 1142.9609375,591.1624755859375 1146.3909912109375,591.1624755859375 1149.8209228515625,591.1624755859375 1153.2509765625,591.1624755859375 1156.6810302734375,591.1624755859375 1160.1109619140625,591.1624755859375 1163.541015625,591.1624755859375 1166.970947265625,591.1624755859375 1170.3909912109375,591.1624755859375 1173.8209228515625,591.1624755859375 1177.2509765625,591.1624755859375 1180.6810302734375,591.1624755859375 1184.1109619140625,591.1624755859375 1187.541015625,591.1624755859375 1190.970947265625,591.1624755859375 1194.4010009765625,591.1624755859375 1197.8309326171875,591.1624755859375 1201.260986328125,591.1624755859375 1204.69091796875,591.1624755859375 1208.1209716796875,591.1624755859375 1211.551025390625,591.1624755859375 1214.970947265625,591.1624755859375 1218.4010009765625,591.1624755859375 1221.8309326171875,591.1624755859375 1225.260986328125,591.1624755859375 1228.69091796875,591.1624755859375 1232.1209716796875,591.1624755859375 1235.551025390625,591.1624755859375 1238.98095703125,591.1624755859375 1242.4110107421875,591.1624755859375 1245.8409423828125,591.1624755859375 1249.27099609375,591.1624755859375 1252.700927734375,591.1624755859375 1256.1209716796875,591.1624755859375 1259.551025390625,591.1624755859375 1262.98095703125,591.1624755859375 1266.4110107421875,591.1624755859375 1269.8409423828125,591.1624755859375 1273.27099609375,591.1624755859375 1276.700927734375,591.1624755859375 1280.1309814453125,591.1624755859375 1283.56103515625,591.1624755859375 1286.990966796875,591.1624755859375 1290.4210205078125,591.1624755859375 1293.8509521484375,591.1624755859375 1297.281005859375,591.1624755859375 1300.7109375,591.1624755859375 1304.1309814453125,591.1624755859375 1307.56103515625,591.1624755859375 1310.990966796875,591.1624755859375 1314.4210205078125,591.1624755859375 1317.8509521484375,591.1624755859375 1321.281005859375,591.1624755859375 1324.7109375,591.1624755859375 1328.1409912109375,591.1624755859375 1331.5709228515625,591.1624755859375 1335.0009765625,591.1624755859375 1338.4310302734375,591.1624755859375 1341.8609619140625,591.1624755859375 1345.281005859375,591.1624755859375 1348.7109375,591.1624755859375 1352.1409912109375,591.1624755859375 1355.5709228515625,591.1624755859375 1359.0009765625,591.1624755859375 1362.4310302734375,591.1624755859375 1365.8609619140625,591.1624755859375 1369.291015625,591.1624755859375 1372.720947265625,591.1624755859375 1376.1510009765625,591.1624755859375 1379.5809326171875,591.1624755859375 1383.010986328125,591.1624755859375 1386.44091796875,591.1624755859375 1389.8709716796875,591.1624755859375 1393.291015625,591.1624755859375 1396.720947265625,591.1624755859375 1400.1510009765625,591.1624755859375 1403.5809326171875,591.1624755859375 1407.010986328125,591.1624755859375 1410.44091796875,591.1624755859375 1413.8709716796875,591.1624755859375 1417.301025390625,591.1624755859375 1420.73095703125,591.1624755859375 1424.1610107421875,591.1624755859375 1427.5909423828125,591.1624755859375 1431.02099609375,591.1624755859375 1434.450927734375,591.1624755859375 1437.8809814453125,591.1624755859375 1441.301025390625,591.1624755859375 1444.73095703125,591.1624755859375 1448.1610107421875,591.1624755859375 1451.5909423828125,591.1624755859375 1455.02099609375,591.1624755859375 1458.450927734375,591.1624755859375 1455.02099609375,625.0765380859375 1451.5909423828125,658.987548828125 1448.1610107421875,692.8985595703125 1444.73095703125,726.820556640625 1441.301025390625,760.7325439453125 1441.1309814453125,762.4954833984375 1441.1309814453125,762.4954833984375 1437.8809814453125,762.4954833984375 1434.450927734375,762.4954833984375 1431.02099609375,762.4954833984375 1427.5909423828125,762.4954833984375 1424.1610107421875,762.4954833984375 1420.73095703125,762.4954833984375 1417.301025390625,762.4954833984375 1413.8709716796875,762.4954833984375 1410.44091796875,762.4954833984375 1407.010986328125,762.4954833984375 1403.5809326171875,762.4954833984375 1400.1510009765625,762.4954833984375 1396.720947265625,762.4954833984375 1393.291015625,762.4954833984375 1389.8709716796875,762.4954833984375 1386.44091796875,762.4954833984375 1383.010986328125,762.4954833984375 1379.5809326171875,762.4954833984375 1376.1510009765625,762.4954833984375 1372.720947265625,762.4954833984375 1369.291015625,762.4954833984375 1365.8609619140625,762.4954833984375 1362.4310302734375,762.4954833984375 1359.0009765625,762.4954833984375 1355.5709228515625,762.4954833984375 1352.1409912109375,762.4954833984375 1348.7109375,762.4954833984375 1345.281005859375,762.4954833984375 1341.8609619140625,762.4954833984375 1338.4310302734375,762.4954833984375 1335.0009765625,762.4954833984375 1331.5709228515625,762.4954833984375 1328.1409912109375,762.4954833984375 1324.7109375,762.4954833984375 1321.281005859375,762.4954833984375 1317.8509521484375,762.4954833984375 1314.4210205078125,762.4954833984375 1310.990966796875,762.4954833984375 1307.56103515625,762.4954833984375 1304.1309814453125,762.4954833984375 1300.7109375,762.4954833984375 1297.281005859375,762.4954833984375 1293.8509521484375,762.4954833984375 1290.4210205078125,762.4954833984375 1286.990966796875,762.4954833984375 1283.56103515625,762.4954833984375 1280.1309814453125,762.4954833984375 1276.700927734375,762.4954833984375 1273.27099609375,762.4954833984375 1269.8409423828125,762.4954833984375 1266.4110107421875,762.4954833984375 1262.98095703125,762.4954833984375 1259.551025390625,762.4954833984375 1256.1209716796875,762.4954833984375 1252.700927734375,762.4954833984375 1249.27099609375,762.4954833984375 1245.8409423828125,762.4954833984375 1242.4110107421875,762.4954833984375 1238.98095703125,762.4954833984375 1235.551025390625,762.4954833984375 1232.1209716796875,762.4954833984375 1228.69091796875,762.4954833984375 1225.260986328125,762.4954833984375 1221.8309326171875,762.4954833984375 1218.4010009765625,762.4954833984375 1214.970947265625,762.4954833984375 1211.551025390625,762.4954833984375 1208.1209716796875,762.4954833984375 1204.69091796875,762.4954833984375 1201.260986328125,762.4954833984375 1197.8309326171875,762.4954833984375 1194.4010009765625,762.4954833984375 1190.970947265625,762.4954833984375 1187.541015625,762.4954833984375 1184.1109619140625,762.4954833984375 1180.6810302734375,762.4954833984375 1177.2509765625,762.4954833984375 1173.8209228515625,762.4954833984375 1170.3909912109375,762.4954833984375 1166.970947265625,762.4954833984375 1163.541015625,762.4954833984375 1160.1109619140625,762.4954833984375 1156.6810302734375,762.4954833984375 1153.2509765625,762.4954833984375 1149.8209228515625,762.4954833984375 1146.3909912109375,762.4954833984375 1142.9609375,762.4954833984375 1139.531005859375,762.4954833984375 1136.1009521484375,762.4954833984375 1132.6710205078125,762.4954833984375 1129.240966796875,762.4954833984375 1125.81103515625,762.4954833984375 1122.3809814453125,762.4954833984375 1118.950927734375,762.4954833984375 1115.531005859375,762.4954833984375 1112.1009521484375,762.4954833984375 1108.6710205078125,762.4954833984375 1105.240966796875,762.4954833984375 1101.81103515625,762.4954833984375 1098.3809814453125,762.4954833984375 1094.950927734375,762.4954833984375 1091.52099609375,762.4954833984375 1088.0909423828125,762.4954833984375 1084.6610107421875,762.4954833984375 1081.23095703125,762.4954833984375 1077.81103515625,762.4954833984375 1074.3809814453125,762.4954833984375 1070.950927734375,762.4954833984375 1067.52099609375,762.4954833984375 1064.0909423828125,762.4954833984375 1060.6610107421875,762.4954833984375 1057.23095703125,762.4954833984375 1053.801025390625,762.4954833984375 1050.3709716796875,762.4954833984375 1047.041015625,762.4954833984375 1046.94091796875,762.4954833984375 1043.510986328125,762.4954833984375 1040.0809326171875,762.4954833984375 1036.6510009765625,762.4954833984375 1033.220947265625,762.4954833984375 1029.801025390625,762.4954833984375 1026.3709716796875,762.4954833984375 1023.8610229492188,762.4954833984375 1023.3609619140625,762.4954833984375 1022.9410400390625,762.4954833984375 1019.510986328125,762.4954833984375 1016.0810546875,762.4954833984375 1012.6510620117188,762.4954833984375 1009.220947265625,762.4954833984375 1005.7909545898438,762.4954833984375 1002.3609619140625,762.4954833984375 998.9340209960938,762.4954833984375 995.5050048828125,762.4954833984375 992.0760498046875,762.4954833984375 988.6470336914062,762.4954833984375 985.217041015625,762.4954833984375 981.7879638671875,762.4954833984375 978.3600463867188,762.4954833984375 974.9300537109375,762.4954833984375 971.5009765625,762.4954833984375 968.071044921875,762.4954833984375 964.6419677734375,762.4954833984375 961.2120361328125,762.4954833984375 957.7840576171875,762.4954833984375 954.3550415039062,762.4954833984375 950.925048828125,762.4954833984375 947.4959716796875,762.4954833984375 944.0660400390625,762.4954833984375 940.6380615234375,762.4954833984375 937.2080078125,762.4954833984375 933.779052734375,762.4954833984375 930.3499755859375,762.4954833984375 926.9200439453125,762.4954833984375 923.490966796875,762.4954833984375 920.06201171875,762.4954833984375 916.633056640625,762.4954833984375 913.2030029296875,762.4954833984375 909.7740478515625,762.4954833984375 906.3450317382812,762.4954833984375 902.9150390625,762.4954833984375 899.487060546875,762.4954833984375 896.0570678710938,762.4954833984375 892.6280517578125,762.4954833984375 889.198974609375,762.4954833984375 885.76904296875,762.4954833984375 882.341064453125,762.4954833984375 878.9119873046875,762.4954833984375 875.4820556640625,762.4954833984375 872.0520629882812,762.4954833984375 868.623046875,762.4954833984375 865.1949462890625,762.4954833984375 861.7650146484375,762.4954833984375 858.3360595703125,762.4954833984375 854.9070434570312,762.4954833984375 851.47705078125,762.4954833984375 848.0490112304688,762.4954833984375 844.6190185546875,762.4954833984375 841.1900024414062,762.4954833984375 837.7599487304688,762.4954833984375 834.3309936523438,762.4954833984375 830.9019775390625,762.4954833984375 827.4730224609375,762.4954833984375 824.0440673828125,762.4954833984375 820.614013671875,762.4954833984375 817.18505859375,762.4954833984375 813.7550048828125,762.4954833984375 810.3260498046875,762.4954833984375 806.89794921875,762.4954833984375 803.468017578125,762.4954833984375 800.0390625,762.4954833984375 796.6089477539062,762.4954833984375 793.1800537109375,762.4954833984375 789.75,762.4954833984375 786.322021484375,762.4954833984375 782.8930053710938,762.4954833984375 779.4629516601562,762.4954833984375 776.0340576171875,762.4954833984375 772.60400390625,762.4954833984375 769.176025390625,762.4954833984375 765.7469482421875,762.4954833984375 762.3170166015625,762.4954833984375 758.8880615234375,762.4954833984375 755.4590454101562,762.4954833984375 752.030029296875,762.4954833984375 748.6000366210938,762.4954833984375 745.1710205078125,762.4954833984375 741.7420043945312,762.4954833984375 738.31201171875,762.4954833984375 734.883056640625,762.4954833984375 731.4549560546875,762.4954833984375 728.0250244140625,762.4954833984375 724.595947265625,762.4954833984375 721.166015625,762.4954833984375 717.737060546875,762.4954833984375 714.3070678710938,762.4954833984375 710.8789672851562,762.4954833984375 707.449951171875,762.4954833984375 704.02001953125,762.4954833984375 700.591064453125,762.4954833984375 697.1609497070312,762.4954833984375 693.7330322265625,762.4954833984375 690.302978515625,762.4954833984375 686.8740234375,762.4954833984375 683.4449462890625,762.4954833984375 680.0150146484375,762.4954833984375 676.5870361328125,762.4954833984375 673.156982421875,762.4954833984375 669.7279663085938,762.4954833984375 666.2989501953125,762.4954833984375 662.8690185546875,762.4954833984375 659.4400634765625,762.4954833984375 656.010986328125,762.4954833984375 652.58203125,762.4954833984375 649.1519775390625,762.4954833984375 645.7229614257812,762.4954833984375 642.2940673828125,762.4954833984375 638.864013671875,762.4954833984375 635.43603515625,762.4954833984375 632.0070190429688,762.4954833984375 628.5769653320312,762.4954833984375 625.14697265625,762.4954833984375 621.7179565429688,762.4954833984375 618.2900390625,762.4954833984375 614.8599853515625,762.4954833984375 611.4310302734375,762.4954833984375 608.001953125,762.4954833984375 604.5719604492188,762.4954833984375 601.7420043945312,762.4954833984375 601.1439819335938,757.6495361328125 597.7139892578125,729.896484375 594.2850341796875,702.1525268554688 590.85498046875,674.3975219726562 587.426025390625,646.653564453125 583.998046875,618.9085693359375 580.5689697265625,591.1624755859375 583.998046875,591.1624755859375 587.426025390625,591.1624755859375 590.85498046875,591.1624755859375 594.2850341796875,591.1624755859375 597.7139892578125,591.1624755859375 601.1439819335938,591.1624755859375 604.5719604492188,591.1624755859375 608.001953125,591.1624755859375 611.4310302734375,591.1624755859375 614.8599853515625,591.1624755859375 618.2900390625,591.1624755859375 621.7179565429688,591.1624755859375 625.14697265625,591.1624755859375 628.5769653320312,591.1624755859375 632.0070190429688,591.1624755859375 635.43603515625,591.1624755859375 638.864013671875,591.1624755859375 642.2940673828125,591.1624755859375 645.7229614257812,591.1624755859375 649.1519775390625,591.1624755859375 652.58203125,591.1624755859375 656.010986328125,591.1624755859375 659.4400634765625,591.1624755859375 662.8690185546875,591.1624755859375 666.2989501953125,591.1624755859375 669.7279663085938,591.1624755859375 673.156982421875,591.1624755859375 676.5870361328125,591.1624755859375 680.0150146484375,591.1624755859375 683.4449462890625,591.1624755859375 686.8740234375,591.1624755859375 690.302978515625,591.1624755859375 693.7330322265625,591.1624755859375 697.1609497070312,591.1624755859375 700.591064453125,591.1624755859375 704.02001953125,591.1624755859375 707.449951171875,591.1624755859375 710.8789672851562,591.1624755859375 714.3070678710938,591.1624755859375 717.737060546875,591.1624755859375 721.166015625,591.1624755859375 724.595947265625,591.1624755859375 728.0250244140625,591.1624755859375 731.4549560546875,591.1624755859375 734.883056640625,591.1624755859375 738.31201171875,591.1624755859375 741.7420043945312,591.1624755859375 745.1710205078125,591.1624755859375 748.6000366210938,591.1624755859375 752.030029296875,591.1624755859375 755.4590454101562,591.1624755859375 758.8880615234375,591.1624755859375 762.3170166015625,591.1624755859375 765.7469482421875,591.1624755859375 769.176025390625,591.1624755859375 772.60400390625,591.1624755859375 776.0340576171875,591.1624755859375 779.4629516601562,591.1624755859375 782.8930053710938,591.1624755859375 786.322021484375,591.1624755859375 789.75,591.1624755859375 793.1800537109375,591.1624755859375 796.6089477539062,591.1624755859375 800.0390625,591.1624755859375 803.468017578125,591.1624755859375 806.89794921875,591.1624755859375 810.3260498046875,591.1624755859375 813.7550048828125,591.1624755859375 817.18505859375,591.1624755859375 820.614013671875,591.1624755859375 824.0440673828125,591.1624755859375 827.4730224609375,591.1624755859375 830.9019775390625,591.1624755859375 834.3309936523438,591.1624755859375 837.7599487304688,591.1624755859375 841.1900024414062,591.1624755859375 844.6190185546875,591.1624755859375 848.0490112304688,591.1624755859375 851.47705078125,591.1624755859375 854.9070434570312,591.1624755859375 858.3360595703125,591.1624755859375 861.7650146484375,591.1624755859375 865.1949462890625,591.1624755859375 868.623046875,591.1624755859375 872.0520629882812,591.1624755859375 875.4820556640625,591.1624755859375 878.9119873046875,591.1624755859375 882.341064453125,591.1624755859375 885.76904296875,591.1624755859375 889.198974609375,591.1624755859375 892.6280517578125,591.1624755859375 896.0570678710938,591.1624755859375 899.487060546875,591.1624755859375 902.9150390625,591.1624755859375 906.3450317382812,591.1624755859375 909.7740478515625,591.1624755859375 913.2030029296875,591.1624755859375 916.633056640625,591.1624755859375 920.06201171875,591.1624755859375 923.490966796875,591.1624755859375 926.9200439453125,591.1624755859375 930.3499755859375,591.1624755859375 933.779052734375,591.1624755859375 937.2080078125,591.1624755859375 940.6380615234375,591.1624755859375 944.0660400390625,591.1624755859375 947.4959716796875,591.1624755859375 950.925048828125,591.1624755859375 954.3550415039062,591.1624755859375 957.7840576171875,591.1624755859375 961.2120361328125,591.1624755859375 964.6419677734375,591.1624755859375 968.071044921875,591.1624755859375 971.5009765625,591.1624755859375 974.9300537109375,591.1624755859375 978.3600463867188,591.1624755859375 981.7879638671875,591.1624755859375 985.217041015625,591.1624755859375 988.6470336914062,591.1624755859375 992.0760498046875,591.1624755859375 995.5050048828125,591.1624755859375 998.9340209960938,591.1624755859375 1002.3609619140625,591.1624755859375 1005.7909545898438,591.1624755859375 1009.220947265625,591.1624755859375 1012.6510620117188,591.1624755859375 1016.0810546875,591.1624755859375 1019.510986328125,591.1624755859375 1022.9410400390625,591.1624755859375 " id="_337846144" class="fil2"/>
     <polygon points="617.7749633789062,941.5615234375 1426.3709716796875,941.5615234375 1411.6409912109375,1110.96044921875 631.248046875,1109.030517578125 " id="_337846384" class="fil2"/>
     <polygon points="643.041015625,1203.3905029296875 819.9219970703125,1203.46044921875 831.4629516601562,1341.970458984375 1023.3609619140625,1389.560546875 1220.3709716796875,1334.2705078125 1233.700927734375,1107.760498046875 1412.1610107421875,1104.96044921875 1380.1610107421875,1472.8804931640625 1024.0009765625,1576.8504638671875 665.2760620117188,1470.96044921875 " id="_337846192" class="fil2"/>
    </g>
    <g id="svg_2">
     <polygon points="1024.0009765625,940.8335571289062 1441.1309814453125,762.4954833984375 1458.450927734375,591.154541015625 1024.0009765625,772.091552734375 " id="_337846792" class="fil3"/>
     <polygon points="1024.0009765625,591.1624755859375 1026.3709716796875,591.1624755859375 1029.801025390625,591.1624755859375 1033.220947265625,591.1624755859375 1036.6510009765625,591.1624755859375 1040.0809326171875,591.1624755859375 1043.510986328125,591.1624755859375 1046.94091796875,591.1624755859375 1050.3709716796875,591.1624755859375 1053.801025390625,591.1624755859375 1057.23095703125,591.1624755859375 1060.6610107421875,591.1624755859375 1064.0909423828125,591.1624755859375 1067.52099609375,591.1624755859375 1070.950927734375,591.1624755859375 1074.3809814453125,591.1624755859375 1077.81103515625,591.1624755859375 1081.23095703125,591.1624755859375 1084.6610107421875,591.1624755859375 1088.0909423828125,591.1624755859375 1091.52099609375,591.1624755859375 1094.950927734375,591.1624755859375 1098.3809814453125,591.1624755859375 1101.81103515625,591.1624755859375 1105.240966796875,591.1624755859375 1108.6710205078125,591.1624755859375 1112.1009521484375,591.1624755859375 1115.531005859375,591.1624755859375 1118.950927734375,591.1624755859375 1122.3809814453125,591.1624755859375 1125.81103515625,591.1624755859375 1129.240966796875,591.1624755859375 1132.6710205078125,591.1624755859375 1136.1009521484375,591.1624755859375 1139.531005859375,591.1624755859375 1142.9609375,591.1624755859375 1146.3909912109375,591.1624755859375 1149.8209228515625,591.1624755859375 1153.2509765625,591.1624755859375 1156.6810302734375,591.1624755859375 1160.1109619140625,591.1624755859375 1163.541015625,591.1624755859375 1166.970947265625,591.1624755859375 1170.3909912109375,591.1624755859375 1173.8209228515625,591.1624755859375 1177.2509765625,591.1624755859375 1180.6810302734375,591.1624755859375 1184.1109619140625,591.1624755859375 1187.541015625,591.1624755859375 1190.970947265625,591.1624755859375 1194.4010009765625,591.1624755859375 1197.8309326171875,591.1624755859375 1201.260986328125,591.1624755859375 1204.69091796875,591.1624755859375 1208.1209716796875,591.1624755859375 1211.551025390625,591.1624755859375 1214.970947265625,591.1624755859375 1218.4010009765625,591.1624755859375 1221.8309326171875,591.1624755859375 1225.260986328125,591.1624755859375 1228.69091796875,591.1624755859375 1232.1209716796875,591.1624755859375 1235.551025390625,591.1624755859375 1238.98095703125,591.1624755859375 1242.4110107421875,591.1624755859375 1245.8409423828125,591.1624755859375 1249.27099609375,591.1624755859375 1252.700927734375,591.1624755859375 1256.1209716796875,591.1624755859375 1259.551025390625,591.1624755859375 1262.98095703125,591.1624755859375 1266.4110107421875,591.1624755859375 1269.8409423828125,591.1624755859375 1273.27099609375,591.1624755859375 1276.700927734375,591.1624755859375 1280.1309814453125,591.1624755859375 1283.56103515625,591.1624755859375 1286.990966796875,591.1624755859375 1290.4210205078125,591.1624755859375 1293.8509521484375,591.1624755859375 1297.281005859375,591.1624755859375 1300.7109375,591.1624755859375 1304.1309814453125,591.1624755859375 1307.56103515625,591.1624755859375 1310.990966796875,591.1624755859375 1314.4210205078125,591.1624755859375 1317.8509521484375,591.1624755859375 1321.281005859375,591.1624755859375 1324.7109375,591.1624755859375 1328.1409912109375,591.1624755859375 1331.5709228515625,591.1624755859375 1335.0009765625,591.1624755859375 1338.4310302734375,591.1624755859375 1341.8609619140625,591.1624755859375 1345.281005859375,591.1624755859375 1348.7109375,591.1624755859375 1352.1409912109375,591.1624755859375 1355.5709228515625,591.1624755859375 1359.0009765625,591.1624755859375 1362.4310302734375,591.1624755859375 1365.8609619140625,591.1624755859375 1369.291015625,591.1624755859375 1372.720947265625,591.1624755859375 1376.1510009765625,591.1624755859375 1379.5809326171875,591.1624755859375 1383.010986328125,591.1624755859375 1386.44091796875,591.1624755859375 1389.8709716796875,591.1624755859375 1393.291015625,591.1624755859375 1396.720947265625,591.1624755859375 1400.1510009765625,591.1624755859375 1403.5809326171875,591.1624755859375 1407.010986328125,591.1624755859375 1410.44091796875,591.1624755859375 1413.8709716796875,591.1624755859375 1417.301025390625,591.1624755859375 1420.73095703125,591.1624755859375 1424.1610107421875,591.1624755859375 1427.5909423828125,591.1624755859375 1431.02099609375,591.1624755859375 1434.450927734375,591.1624755859375 1437.8809814453125,591.1624755859375 1441.301025390625,591.1624755859375 1444.73095703125,591.1624755859375 1448.1610107421875,591.1624755859375 1451.5909423828125,591.1624755859375 1455.02099609375,591.1624755859375 1458.450927734375,591.1624755859375 1455.02099609375,625.0765380859375 1451.5909423828125,658.987548828125 1448.1610107421875,692.8985595703125 1444.73095703125,726.820556640625 1441.301025390625,760.7325439453125 1441.1309814453125,762.4954833984375 1441.1309814453125,762.4954833984375 1437.8809814453125,762.4954833984375 1434.450927734375,762.4954833984375 1431.02099609375,762.4954833984375 1427.5909423828125,762.4954833984375 1424.1610107421875,762.4954833984375 1420.73095703125,762.4954833984375 1417.301025390625,762.4954833984375 1413.8709716796875,762.4954833984375 1410.44091796875,762.4954833984375 1407.010986328125,762.4954833984375 1403.5809326171875,762.4954833984375 1400.1510009765625,762.4954833984375 1396.720947265625,762.4954833984375 1393.291015625,762.4954833984375 1389.8709716796875,762.4954833984375 1386.44091796875,762.4954833984375 1383.010986328125,762.4954833984375 1379.5809326171875,762.4954833984375 1376.1510009765625,762.4954833984375 1372.720947265625,762.4954833984375 1369.291015625,762.4954833984375 1365.8609619140625,762.4954833984375 1362.4310302734375,762.4954833984375 1359.0009765625,762.4954833984375 1355.5709228515625,762.4954833984375 1352.1409912109375,762.4954833984375 1348.7109375,762.4954833984375 1345.281005859375,762.4954833984375 1341.8609619140625,762.4954833984375 1338.4310302734375,762.4954833984375 1335.0009765625,762.4954833984375 1331.5709228515625,762.4954833984375 1328.1409912109375,762.4954833984375 1324.7109375,762.4954833984375 1321.281005859375,762.4954833984375 1317.8509521484375,762.4954833984375 1314.4210205078125,762.4954833984375 1310.990966796875,762.4954833984375 1307.56103515625,762.4954833984375 1304.1309814453125,762.4954833984375 1300.7109375,762.4954833984375 1297.281005859375,762.4954833984375 1293.8509521484375,762.4954833984375 1290.4210205078125,762.4954833984375 1286.990966796875,762.4954833984375 1283.56103515625,762.4954833984375 1280.1309814453125,762.4954833984375 1276.700927734375,762.4954833984375 1273.27099609375,762.4954833984375 1269.8409423828125,762.4954833984375 1266.4110107421875,762.4954833984375 1262.98095703125,762.4954833984375 1259.551025390625,762.4954833984375 1256.1209716796875,762.4954833984375 1252.700927734375,762.4954833984375 1249.27099609375,762.4954833984375 1245.8409423828125,762.4954833984375 1242.4110107421875,762.4954833984375 1238.98095703125,762.4954833984375 1235.551025390625,762.4954833984375 1232.1209716796875,762.4954833984375 1228.69091796875,762.4954833984375 1225.260986328125,762.4954833984375 1221.8309326171875,762.4954833984375 1218.4010009765625,762.4954833984375 1214.970947265625,762.4954833984375 1211.551025390625,762.4954833984375 1208.1209716796875,762.4954833984375 1204.69091796875,762.4954833984375 1201.260986328125,762.4954833984375 1197.8309326171875,762.4954833984375 1194.4010009765625,762.4954833984375 1190.970947265625,762.4954833984375 1187.541015625,762.4954833984375 1184.1109619140625,762.4954833984375 1180.6810302734375,762.4954833984375 1177.2509765625,762.4954833984375 1173.8209228515625,762.4954833984375 1170.3909912109375,762.4954833984375 1166.970947265625,762.4954833984375 1163.541015625,762.4954833984375 1160.1109619140625,762.4954833984375 1156.6810302734375,762.4954833984375 1153.2509765625,762.4954833984375 1149.8209228515625,762.4954833984375 1146.3909912109375,762.4954833984375 1142.9609375,762.4954833984375 1139.531005859375,762.4954833984375 1136.1009521484375,762.4954833984375 1132.6710205078125,762.4954833984375 1129.240966796875,762.4954833984375 1125.81103515625,762.4954833984375 1122.3809814453125,762.4954833984375 1118.950927734375,762.4954833984375 1115.531005859375,762.4954833984375 1112.1009521484375,762.4954833984375 1108.6710205078125,762.4954833984375 1105.240966796875,762.4954833984375 1101.81103515625,762.4954833984375 1098.3809814453125,762.4954833984375 1094.950927734375,762.4954833984375 1091.52099609375,762.4954833984375 1088.0909423828125,762.4954833984375 1084.6610107421875,762.4954833984375 1081.23095703125,762.4954833984375 1077.81103515625,762.4954833984375 1074.3809814453125,762.4954833984375 1070.950927734375,762.4954833984375 1067.52099609375,762.4954833984375 1064.0909423828125,762.4954833984375 1060.6610107421875,762.4954833984375 1057.23095703125,762.4954833984375 1053.801025390625,762.4954833984375 1050.3709716796875,762.4954833984375 1047.041015625,762.4954833984375 1046.94091796875,762.4954833984375 1043.510986328125,762.4954833984375 1040.0809326171875,762.4954833984375 1036.6510009765625,762.4954833984375 1033.220947265625,762.4954833984375 1029.801025390625,762.4954833984375 1026.3709716796875,762.4954833984375 1024.0009765625,762.4954833984375 " id="_337846480" class="fil3"/>
     <polygon points="1024.0009765625,941.5615234375 1426.3709716796875,941.5615234375 1411.6409912109375,1110.96044921875 1024.0009765625,1110.00048828125 " id="_337845784" class="fil3"/>
     <polygon points="1024.0009765625,1389.3804931640625 1220.3709716796875,1334.2705078125 1233.700927734375,1107.760498046875 1412.1610107421875,1104.96044921875 1380.1610107421875,1472.8804931640625 1024.0009765625,1576.8504638671875 1024.0009765625,1576.8404541015625 " id="_337845328" class="fil3"/>
    </g>
   </g>
  </g>
  <rect x="0" y="60" id="svg_3" width="2048" height="2048" class="fil4"/>
 </g>
</svg>