<svg width="711.20123" height="711.20123" xmlns="http://www.w3.org/2000/svg">
 <title>Official PHP Logo</title>
 <metadata id="metadata3436">image/svg+xmlOfficial PHP LogoColin ViebrockCopyright Colin Viebrock 1997 - All rights reserved.1997</metadata>
 <defs>
  <clipPath id="clipPath3444" clipPathUnits="userSpaceOnUse">
   <path id="path3446" d="m11.519974,30.958496c0,-80.323 123.787,-145.439 276.48,-145.439l0,0c152.693,0 276.481,65.116 276.481,145.439l0,0c0,80.322 -123.788,145.439 -276.481,145.439l0,0c-152.693,0 -276.48,-65.117 -276.48,-145.439"/>
  </clipPath>
  <clipPath id="clipPath3468" clipPathUnits="userSpaceOnUse">
   <path id="path3470" d="m-0.000026,192.958496l576,0l0,-324l-576,0l0,324z"/>
  </clipPath>
  <clipPath id="clipPath3480" clipPathUnits="userSpaceOnUse">
   <path id="path3482" d="m-0.000026,192.958496l576,0l0,-324l-576,0l0,324z"/>
  </clipPath>
  <radialGradient spreadMethod="pad" r="1" id="radialGradient3452" gradientUnits="userSpaceOnUse" gradientTransform="matrix(363.05789,0,0,-363.05789,177.52002,256.30713)" fy="0" fx="0" cy="0" cx="0">
   <stop stop-color="#aeb2d5" offset="0" id="stop3454"/>
   <stop stop-color="#aeb2d5" offset="0.3" id="stop3456"/>
   <stop stop-color="#484c89" offset="0.75" id="stop3458"/>
   <stop stop-color="#484c89" offset="1" id="stop3460"/>
  </radialGradient>
 </defs>
 <g>
  <title>background</title>
  <rect fill="none" id="canvas_background" height="402" width="582" y="-1" x="-1"/>
 </g>
 <g>
  <title>Layer 1</title>
  <g transform="matrix(1.25,0,0,-1.25,-4.4,394.29875) " id="g3438">
   <g id="g3440">
    <g id="g3442" clip-path="url(#clipPath3444)">
     <g id="g3448">
      <g id="g3450">
       <path fill="url(#radialGradient3452)" id="path3462" d="m11.519974,30.958496c0,-80.323 123.787,-145.439 276.48,-145.439l0,0c152.693,0 276.481,65.116 276.481,145.439l0,0c0,80.322 -123.788,145.439 -276.481,145.439l0,0c-152.693,0 -276.48,-65.117 -276.48,-145.439"/>
      </g>
     </g>
    </g>
   </g>
   <g id="g3464">
    <g id="g3466" clip-path="url(#clipPath3468)">
     <g id="g3472">
      <path fill="#777bb3" fill-rule="nonzero" id="path3474" d="m287.999974,-103.682104c146.729,0 265.68,60.281 265.68,134.641c0,74.359 -118.951,134.641 -265.68,134.641c-146.729,0 -265.68,-60.282 -265.68,-134.641c0,-74.36 118.951,-134.641 265.68,-134.641"/>
     </g>
    </g>
   </g>
   <g id="g3476">
    <g id="g3478" clip-path="url(#clipPath3480)">
     <g id="g3484">
      <path fill="#000000" fill-rule="nonzero" id="path3486" d="m161.73438,14.265091c12.065,0 21.072,2.225 26.771,6.611c5.638,4.341 9.532,11.862 11.573,22.353c1.903,9.806 1.178,16.653 -2.154,20.348c-3.407,3.774 -10.773,5.688 -21.893,5.688l-19.281,0l-10.689,-55l15.673,0zm-63.063,-67.75c-0.895,0 -1.745,0.4 -2.314,1.092c-0.57,0.691 -0.801,1.601 -0.63,2.48l28.328,145.751c0.274,1.409 1.509,2.427 2.945,2.427l61.054,0c19.188,0 33.47,-5.21 42.447,-15.487c9.025,-10.331 11.812,-24.772 8.283,-42.921c-1.436,-7.394 -3.906,-14.261 -7.341,-20.409c-3.439,-6.155 -7.984,-11.85 -13.511,-16.93c-6.616,-6.192 -14.104,-10.682 -22.236,-13.324c-8.003,-2.607 -18.281,-3.929 -30.548,-3.929l-24.722,0l-7.06,-36.322c-0.274,-1.41 -1.508,-2.428 -2.944,-2.428l-31.751,0z"/>
     </g>
     <g id="g3488">
      <path fill="#ffffff" fill-rule="nonzero" id="path3490" d="m159.223577,66.265594l16.808,0c13.421,0 18.083,-2.945 19.667,-4.7c2.628,-2.914 3.124,-9.058 1.435,-17.767c-1.898,-9.75 -5.416,-16.663 -10.458,-20.545c-5.162,-3.974 -13.554,-5.988 -24.941,-5.988l-12.034,0l9.523,49zm28.831,35l-61.055,0c-2.872,0 -5.341,-2.036 -5.889,-4.855l-28.328,-145.751c-0.342,-1.759 0.12,-3.578 1.259,-4.961c1.14,-1.383 2.838,-2.183 4.63,-2.183l31.75,0c2.873,0 5.342,2.036 5.89,4.855l6.588,33.895l22.249,0c12.582,0 23.174,1.372 31.479,4.077c8.541,2.775 16.399,7.48 23.354,13.984c5.752,5.292 10.49,11.232 14.08,17.657c3.591,6.427 6.171,13.594 7.668,21.302c3.715,19.104 0.697,34.402 -8.969,45.466c-9.572,10.958 -24.614,16.514 -44.706,16.514m-45.633,-90l19.313,0c12.801,0 22.336,2.411 28.601,7.234c6.266,4.824 10.492,12.875 12.688,24.157c2.101,10.832 1.144,18.476 -2.871,22.929c-4.02,4.453 -12.059,6.68 -24.121,6.68l-21.754,0l-11.856,-61m45.633,84c18.367,0 31.766,-4.82 40.188,-14.461c8.421,-9.641 10.957,-23.098 7.597,-40.375c-1.383,-7.117 -3.722,-13.624 -7.015,-19.519c-3.297,-5.899 -7.602,-11.293 -12.922,-16.184c-6.34,-5.933 -13.383,-10.161 -21.133,-12.679c-7.75,-2.525 -17.621,-3.782 -29.621,-3.782l-27.196,0l-7.531,-38.75l-31.75,0l28.328,145.75l61.055,0"/>
     </g>
     <g id="g3492">
      <path fill="#000000" fill-rule="nonzero" id="path3494" d="m311.582982,-14.734901c-0.896,0 -1.745,0.4 -2.314,1.092c-0.571,0.691 -0.802,1.6 -0.631,2.48l12.531,64.489c1.192,6.133 0.898,10.535 -0.827,12.395c-1.056,1.137 -4.228,3.044 -13.607,3.044l-22.702,0l-15.755,-81.072c-0.274,-1.41 -1.509,-2.428 -2.945,-2.428l-31.5,0c-0.896,0 -1.745,0.4 -2.315,1.092c-0.57,0.691 -0.801,1.601 -0.63,2.48l28.328,145.751c0.274,1.409 1.509,2.427 2.945,2.427l31.5,0c0.896,0 1.745,-0.4 2.315,-1.091c0.57,-0.692 0.801,-1.601 0.63,-2.481l-6.836,-35.178l24.422,0c18.605,0 31.221,-3.28 38.569,-10.028c7.49,-6.884 9.827,-17.891 6.947,-32.719l-13.18,-67.825c-0.274,-1.41 -1.508,-2.428 -2.945,-2.428l-32,0z"/>
     </g>
     <g id="g3496">
      <path fill="#ffffff" fill-rule="nonzero" id="path3498" d="m293.661077,140.015594l-31.5,0c-2.873,0 -5.342,-2.036 -5.89,-4.855l-28.328,-145.751c-0.342,-1.759 0.12,-3.578 1.26,-4.961c1.14,-1.383 2.838,-2.183 4.63,-2.183l31.5,0c2.872,0 5.342,2.036 5.89,4.855l15.283,78.645l20.229,0c9.363,0 11.328,-2 11.407,-2.086c0.568,-0.611 1.315,-3.441 0.082,-9.781l-12.531,-64.489c-0.342,-1.759 0.12,-3.578 1.26,-4.961c1.14,-1.383 2.838,-2.183 4.63,-2.183l32,0c2.872,0 5.342,2.036 5.89,4.855l13.179,67.825c3.093,15.921 0.447,27.864 -7.861,35.5c-7.928,7.281 -21.208,10.82 -40.599,10.82l-20.784,0l6.143,31.605c0.341,1.759 -0.12,3.579 -1.26,4.961c-1.14,1.383 -2.838,2.184 -4.63,2.184m0,-6l-7.531,-38.75l28.062,0c17.657,0 29.836,-3.082 36.539,-9.238c6.703,-6.16 8.711,-16.141 6.032,-29.938l-13.18,-67.824l-32,0l12.531,64.488c1.426,7.336 0.902,12.34 -1.574,15.008c-2.477,2.668 -7.746,4.004 -15.805,4.004l-25.176,0l-16.226,-83.5l-31.5,0l28.328,145.75l31.5,0"/>
     </g>
     <g id="g3500">
      <path fill="#000000" fill-rule="nonzero" id="path3502" d="m409.549779,14.265091c12.065,0 21.072,2.225 26.771,6.611c5.638,4.34 9.532,11.861 11.574,22.353c1.903,9.806 1.178,16.653 -2.155,20.348c-3.407,3.774 -10.773,5.688 -21.893,5.688l-19.281,0l-10.689,-55l15.673,0zm-63.062,-67.75c-0.895,0 -1.745,0.4 -2.314,1.092c-0.57,0.691 -0.802,1.601 -0.631,2.48l28.328,145.751c0.275,1.409 1.509,2.427 2.946,2.427l61.053,0c19.189,0 33.47,-5.21 42.448,-15.487c9.025,-10.33 11.811,-24.771 8.283,-42.921c-1.438,-7.394 -3.907,-14.261 -7.342,-20.409c-3.439,-6.155 -7.984,-11.85 -13.511,-16.93c-6.616,-6.192 -14.104,-10.682 -22.236,-13.324c-8.003,-2.607 -18.281,-3.929 -30.548,-3.929l-24.723,0l-7.057,-36.322c-0.275,-1.41 -1.509,-2.428 -2.946,-2.428l-31.75,0z"/>
     </g>
     <g id="g3504">
      <path fill="#ffffff" fill-rule="nonzero" id="path3506" d="m407.039067,66.265594l16.808,0c13.421,0 18.083,-2.945 19.667,-4.7c2.629,-2.914 3.125,-9.058 1.435,-17.766c-1.898,-9.751 -5.417,-16.664 -10.458,-20.546c-5.162,-3.974 -13.554,-5.988 -24.941,-5.988l-12.033,0l9.522,49zm28.831,35l-61.054,0c-2.872,0 -5.341,-2.036 -5.889,-4.855l-28.328,-145.751c-0.342,-1.759 0.12,-3.578 1.259,-4.961c1.14,-1.383 2.838,-2.183 4.63,-2.183l31.75,0c2.872,0 5.342,2.036 5.89,4.855l6.587,33.895l22.249,0c12.582,0 23.174,1.372 31.479,4.077c8.541,2.775 16.401,7.481 23.356,13.986c5.752,5.291 10.488,11.23 14.078,17.655c3.591,6.427 6.171,13.594 7.668,21.302c3.715,19.105 0.697,34.403 -8.969,45.467c-9.572,10.957 -24.613,16.513 -44.706,16.513m-45.632,-90l19.312,0c12.801,0 22.336,2.411 28.601,7.234c6.267,4.824 10.492,12.875 12.688,24.157c2.102,10.832 1.145,18.476 -2.871,22.929c-4.02,4.453 -12.059,6.68 -24.121,6.68l-21.754,0l-11.855,-61m45.632,84c18.367,0 31.766,-4.82 40.188,-14.461c8.422,-9.641 10.957,-23.098 7.597,-40.375c-1.383,-7.117 -3.722,-13.624 -7.015,-19.519c-3.297,-5.899 -7.602,-11.293 -12.922,-16.184c-6.34,-5.933 -13.383,-10.161 -21.133,-12.679c-7.75,-2.525 -17.621,-3.782 -29.621,-3.782l-27.196,0l-7.53,-38.75l-31.75,0l28.328,145.75l61.054,0"/>
     </g>
    </g>
   </g>
  </g>
 </g>
</svg>