<svg xmlns="http://www.w3.org/2000/svg" enable-background="new 0 0 800 600" height="31.999593" width="31.999805"><rect id="backgroundrect" width="100%" height="100%" x="0" y="0" fill="none" stroke="none"/><g class="currentLayer" style=""><title>Layer 1</title><g id="svg_1" class=""><g stroke-width="0.18810549286848" id="svg_2"><path d="m26.444316828205555,21.266049974271283 c-1.2095229013700513,0.6304760236818132 -7.475379894489056,3.2067415489271016 -8.809346427389746,3.9021039817602423 c-1.3339659320227133,0.6956292226546299 -2.0750287402231558,0.6888338936203809 -3.1287980613502517,0.1850662105619712 c-1.053769321127096,-0.5037682839363855 -7.72173445688013,-3.1971485320350883 -8.92286369379891,-3.7712658068055633 c-0.60036464626887,-0.28699193992986616 -0.9160024222274246,-0.5290832730789176 -0.9160024222274246,-0.75785073798096 v-2.291005315643188 s8.680772360649858,-1.8898297356284175 10.082289595648897,-2.392532062034804 c1.4013838400882948,-0.5028351204391546 1.8875650265356518,-0.5209557975711587 3.0801666032144417,-0.08407244293535494 c1.1927355724675102,0.4368833546358041 8.323831614618133,1.7235505758741938 9.50257694516289,2.155237537770747 c0,0 -0.0005329787649994266,2.0461162946363722 -0.0005329787649994266,2.2584954136121524 c0.0001333949107439378,0.2265027558092772 -0.2718029464443468,0.4749892332603459 -0.8874895604948962,0.795823221694758 z" fill="#a41e11" stroke-width="0" id="svg_3"/><path d="m26.444316828205555,18.97437828495235 c-1.2095229013700513,0.6302098347383018 -7.475379894489056,3.2067415489271016 -8.809346427389746,3.9021039817602423 c-1.3339659320227133,0.6956292226546299 -2.0750287402231558,0.6888338936203809 -3.1287980613502517,0.1850662105619712 c-1.0539021151598635,-0.5035020949928741 -7.72173445688013,-3.197415321856576 -8.92286369379891,-3.7712658068055633 c-1.2011290566553878,-0.5741172747704757 -1.226310771062771,-0.9692972943374861 -0.04636374465316323,-1.4312288482943336 c1.1798112880747562,-0.46219834377833574 7.811136086587501,-3.0639122530769 9.212786716497284,-3.5667473735160544 c1.4013838400882948,-0.5025689314956425 1.8875650265356518,-0.5209557975711587 3.0801666032144417,-0.08393904802461098 c1.1927355724675102,0.4368833546358041 7.4211524597597425,2.9160187576422394 8.599764996271732,3.347705719538793 c1.1788787254555015,0.43208714662878545 1.224178916090571,0.7878291410977426 0.014655413842543425,1.4183051647795561 z" fill="#d82c20" stroke-width="0" id="svg_4"/><path d="m26.444316828205555,17.530092358232494 c-1.2095229013700513,0.6304760236818132 -7.475379894489056,3.2067415489271016 -8.809346427389746,3.9023701707037537 c-1.3339659320227133,0.6953624328331415 -2.0750287402231558,0.6885677046768689 -3.1287980613502517,0.18479942074048333 c-1.0539021151598635,-0.5035014941148982 -7.72173445688013,-3.1971485320350883 -8.92286369379891,-3.7712658068055633 c-0.60036464626887,-0.28699193992986616 -0.9160024222274246,-0.5288164832574296 -0.9160024222274246,-0.757583948159472 v-2.2912721054646763 s8.680772360649858,-1.889696340717673 10.082289595648897,-2.3925314611568282 c1.4013838400882948,-0.502702326406387 1.8875650265356518,-0.5209557975711587 3.0801666032144417,-0.08407244293535494 c1.1927355724675102,0.4368833546358041 8.323831614618133,1.723283786052706 9.50257694516289,2.155104142860003 c0,0 -0.0005329787649994266,2.0461162946363722 -0.0005329787649994266,2.2587622034336405 c0.0001333949107439378,0.22636876002055692 -0.2718029464443468,0.4748558383496019 -0.8874895604948962,0.7956898267840143 z" fill="#a41e11" stroke-width="0" id="svg_5"/><path d="m26.444316828205555,15.238420668913564 c-1.2095229013700513,0.6304760236818132 -7.475379894489056,3.2067415489271016 -8.809346427389746,3.9023701707037537 c-1.3339659320227133,0.6953624328331415 -2.0750287402231558,0.6885677046768689 -3.1287980613502517,0.18479942074048333 c-1.0539021151598635,-0.5035014941148982 -7.72173445688013,-3.1972819269458324 -8.92286369379891,-3.7712658068055633 c-1.2011290566553878,-0.5739838798597319 -1.226310771062771,-0.9691638994267419 -0.04636374465316323,-1.4313622432050774 c1.1798112880747562,-0.46193155395684804 7.811136086587501,-3.06377825728818 9.212786716497284,-3.5664805836945663 c1.4013838400882948,-0.502702326406387 1.8875650265356518,-0.5209557975711587 3.0801666032144417,-0.08407244293535494 c1.1927355724675102,0.4368833546358041 7.4211524597597425,2.915885963609472 8.599764996271732,3.3477063204167687 c1.1788787254555015,0.43195315084006525 1.224178916090571,0.7878285402197666 0.014655413842543425,1.4183051647795561 z" fill="#d82c20" stroke-width="0" id="svg_6"/><path d="m26.444316828205555,13.655568074707551 c-1.2095229013700513,0.6304760236818132 -7.475379894489056,3.206874943837845 -8.809346427389746,3.9025035656144977 c-1.3339659320227133,0.6953624328331415 -2.0750287402231558,0.6885677046768689 -3.1287980613502517,0.18479942074048333 c-1.0539021151598635,-0.5035014941148982 -7.72173445688013,-3.1972819269458324 -8.92286369379891,-3.771265205927588 c-0.60036464626887,-0.28699193992986616 -0.9160024222274246,-0.5289498781681746 -0.9160024222274246,-0.7575845490374482 v-2.2912721054646763 s8.680772360649858,-1.889696340717673 10.082289595648897,-2.39239866712406 c1.4013838400882948,-0.5028351204391546 1.8875650265356518,-0.520955196693183 3.0801666032144417,-0.08407244293535494 c1.1927355724675102,0.4368833546358041 8.323831614618133,1.7232843869306822 9.50257694516289,2.155104142860003 c0,0 -0.0005329787649994266,2.0461168955143485 -0.0005329787649994266,2.2586294094008723 c0.0001333949107439378,0.2262359659877894 -0.2718029464443468,0.4747224434388579 -0.8874895604948962,0.7955564318732701 z" fill="#a41e11" stroke-width="0" id="svg_7"/><path d="m26.444316828205555,11.363896385388617 c-1.2095229013700513,0.6304760236818132 -7.475379894489056,3.206874943837845 -8.809346427389746,3.9023707715817304 c-1.3339659320227133,0.6953624328331415 -2.0750287402231558,0.6885671037988926 -3.1287980613502517,0.18493221477325095 s-7.72173445688013,-3.1972819269458324 -8.92286369379891,-3.7712658068055633 c-1.2011290566553878,-0.5739838798597319 -1.226310771062771,-0.9692966934595098 -0.046366148165068524,-1.4313616423271012 c1.1798112880747562,-0.4620655497455683 7.811136086587501,-3.063645463255412 9.212786716497284,-3.566481184572543 c1.4013838400882948,-0.5028351204391546 1.8875650265356518,-0.5209557975711587 3.0801666032144417,-0.08393904802461098 c1.1927355724675102,0.4368833546358041 7.4211524597597425,2.915885963609472 8.599764996271732,3.3477063204167687 c1.1788787254555015,0.43168696189655387 1.224178916090571,0.7876951453090226 0.014655413842543425,1.4180383749580678 z" fill="#d82c20" stroke-width="0" id="svg_8"/></g><path d="m16.56614557274782,10.419247873261558 l-0.7101517688568525,-1.1804774244036988 l-2.2676891380757285,-0.20385219631350562 l1.6921064661317131,-0.6102242216443502 l-0.5076319398395138,-0.9366542092051927 l1.5841847151422102,0.6195507927175171 l1.4935837390028741,-0.4889787976931802 l-0.4037072907385109,0.9686310243131937 l1.5228958195185418,0.5702532027593489 l-1.9639093945497206,0.20385219631350562 z" fill="#fff" stroke-width="0" id="svg_9"/><path d="m12.78355481893055,12.769543783699618 l5.252191881489144,-0.8060822141808553 l-1.5868494497345433,2.3263132991070643 z" fill="#fff" stroke-width="0" id="svg_10"/><ellipse cx="28.21081289175746" cy="28.058820037469268" fill="#fff" rx="4.671772003173828" ry="1.8109240531921387" stroke-width="0.18810549286848" transform="matrix(0.6008779763240433,0,0,0.6008779763240433,-5.584008173261603,-6.0263140740678605) " id="svg_11"/><path d="m24.399132906911873,10.675062394125566 l-3.1057481673645846,1.2271102797695337 l-0.002664734592333409,-2.455552926835234 z" fill="#7a0c00" stroke-width="0" id="svg_12"/><path d="m21.293384739547285,11.902172673895096 l-0.33708892593017636,0.13190436232050365 l-3.104415800068418,-1.2271102797695337 l3.438839991406261,-1.360347009386204 z" fill="#ad2115" stroke-width="0" id="svg_13"/></g></g></svg>