<svg id="Layer_1" data-name="Layer 1" xmlns="http://www.w3.org/2000/svg" viewBox="0 0 50 50"><title>Пивная кружка</title><path d="M34.72,18.39c0-2.61-1.52-4.75-4.46-4.75H16.58c-2.95,0-4.47,2.14-4.47,4.75L10.86,44.15c.36,2.7,4.15,4.55,5.73,5.06a22.94,22.94,0,0,0,6.84.79,23,23,0,0,0,6.85-.79c1.58-.51,5.55-2.71,5.55-5.32Z" style="fill:#fff"/><path d="M43,24.67c-.77-1.5-2-3.67-6.73-3.57-.58,0-1.67.31-1.91-.27l1.13,19.48a15.4,15.4,0,0,0,5.22-1.69,8.24,8.24,0,0,0,3-6.16C43.76,29.06,43.75,26.17,43,24.67Zm-4,7.94c-.24.94-.47,1.91-2.49,2.4a.87.87,0,0,1-1-.39L35,27c.08-.38.69-.72,1-.78.63-.12,2.47,0,2.75,1.3A17.85,17.85,0,0,1,38.92,32.61Z" style="fill:#fff"/><path d="M33.83,22.2c.13,1.43,0,3.2.1,3.34s.89-.42,1.69-.45,2.14-.25,3.07.49,1.77,2.72,1.49,6.32a4.69,4.69,0,0,1-4.68,4.31c-.94-.09-1.17-1.14-1.14-.56s.3,3.36.3,3.36l1.17-.34,3.58-.56a16.17,16.17,0,0,0,2-2.22,9.38,9.38,0,0,0,1.12-4,41.8,41.8,0,0,0-.09-4.44c-.15-1.12-.19-2.43-1-3.29s-1.23-1.5-2.74-1.7-3.5-.17-4.16-.22Z" style="fill:#f7ecf4"/><path d="M34.58,18.39c0-2.61-1.5-4.75-4.41-4.75H16.66c-2.91,0-4.41,2.14-4.41,4.75l-.88,25.82c0,2.62,3.73,4.24,5.29,4.75a22.39,22.39,0,0,0,6.76.79A22.36,22.36,0,0,0,30.17,49c1.56-.51,5.29-2.13,5.29-4.75Z" style="fill:#fff"/><path d="M34.62,9.46c-.26-1.38-1.81-2.92-4.22-3.19a5.26,5.26,0,0,0-2.76.48c-1.8-2-4.74-2.87-8-2.87-5.46,0-9.95,4.33-9.63,8.19a6.55,6.55,0,0,0-3,5.42A6.64,6.64,0,0,0,8.52,22.2,4.82,4.82,0,0,0,8,24.54a5,5,0,0,0,1.46,3.28c0,2,1.21,3.47,2.38,3.61a3.41,3.41,0,0,0,3.91-2.92c0-.11-1.77-1-1.78-1.07.93-.3,1.63-1.67,1.63-3.3,0-.11,0-.22,0-.32a3.06,3.06,0,0,0,3-2,6.12,6.12,0,0,0,4.54,2,5.92,5.92,0,0,0,5.71-4c1,.77,2.73,2.86,4.09,2.7C37.1,22,39,18.43,38.66,15.07A6.36,6.36,0,0,0,34.62,9.46Z" style="fill:#fff"/><ellipse cx="11.16" cy="1.23" rx="1.25" ry="1.23" style="fill:#fff"/><ellipse cx="9.68" cy="4.75" rx="1.74" ry="1.72" style="fill:#fff"/><ellipse cx="10.91" cy="26.99" rx="0.31" ry="0.3" style="fill:#fff"/><path d="M33.8,19.07c0-2.47-1.39-4.48-4.09-4.48H17.16c-2.7,0-4.09,2-4.09,4.48l-.82,24.34c0,2.46,3.46,4,4.91,4.47a20.78,20.78,0,0,0,6.27.75,20.81,20.81,0,0,0,6.28-.75c1.45-.48,4.91-2,4.91-4.47Z" style="fill:#f7ecf4"/><path d="M23.44,49.14A21.51,21.51,0,0,1,17,48.37c-.88-.3-5.26-1.91-5.26-5l.82-24.36c0-3,1.85-5,4.6-5H29.71c2.75,0,4.6,2,4.6,5l.82,24.33c0,3.07-4.38,4.68-5.26,5A21.48,21.48,0,0,1,23.44,49.14Zm-6.28-34c-2.64,0-3.58,2-3.58,4l-.82,24.35c0,2.39,4.09,3.82,4.56,4a20.81,20.81,0,0,0,6.12.72,20.83,20.83,0,0,0,6.11-.72c.47-.16,4.56-1.59,4.56-4l-.82-24.34c0-1.92-.94-4-3.58-4Z" style="fill:#573e34"/><path d="M27.39,44.15l-9-.46c-2.3-.88-4.79-2-5.7-3.74l.39-21.42a4,4,0,0,1,4.31-3.94h12a3.69,3.69,0,0,1,3.92,3.94L34.15,40C34.15,42.11,29.76,43.29,27.39,44.15Z" style="fill:#fccf3b"/><path d="M34.71,39.52l-.11-1a11.54,11.54,0,0,0,4.69-1.15,6.24,6.24,0,0,0,2.7-5c.07-3,.09-5.84-.6-7.19-.61-1.2-1.9-2.74-6.14-2.32h0a1.67,1.67,0,0,1-1.75-.93l.95-.39c.08.21.22.3.76.29,3.64-.35,6,.59,7.13,2.87.8,1.57.79,4.41.71,7.69a7.18,7.18,0,0,1-3.11,5.8C38.8,39,36.18,39.37,34.71,39.52Z" style="fill:#563d33"/><path d="M35.57,36.62A1.79,1.79,0,0,1,34,35.87l.68-.45a1.12,1.12,0,0,0,1.18.35c2.9-.5,3.27-1.55,3.65-2.65a17.78,17.78,0,0,0-.08-6.2c-.29-1.25-2.78-1.56-3.78-1.42a2,2,0,0,0-1.25.66l-.78-.23c.22-.77,1.5-1.19,1.92-1.24,1.2-.17,4.25.18,4.69,2,.35,1.5.52,5.35.07,6.64S39.4,36,36,36.58A2.42,2.42,0,0,1,35.57,36.62Z" style="fill:#563d33"/><path d="M40.18,26.12c1.2,1.81.91,5.61.79,6.47a5.2,5.2,0,0,1-3.77,4.73,3.6,3.6,0,0,1-2.5-.25c-.32-.21-.58-.86-.14-1a2,2,0,0,1,1,.2A4.18,4.18,0,0,0,40,32.67c.53-4.13,0-5.5-.31-6.13-.56-.55-1-.77-1-1S39.72,25.42,40.18,26.12Z" style="fill:#e5d6c1"/><path d="M34.91,22.92c-.36.06-.25.63,0,.72.44.15,2.59-.69,5,.81.44.34.89.44.72,0C40.28,23.56,38.23,22.38,34.91,22.92Z" style="fill:#e5d6c1"/><path d="M40.54,26C42,27,42.74,35.15,39.4,36.79,41.72,34.85,41.74,28.37,40.54,26Z" style="fill:#fffdf3"/><path d="M39.69,26.54c-.56-.55-1.2-.93-1-1a1.37,1.37,0,0,1,1.49.54" style="fill:#e2d3ad"/><path d="M30.07,16.12c.53-5.3,2.89,1.65,3,2.58s.57,18.67.62,20.46c.08,2.49-3.28,5-9.92,5,3-.75,6.64-2.75,6.46-5.81C30.09,36.1,29.85,18.41,30.07,16.12Z" style="fill:#f89f27"/><path d="M12.64,31.61c1.38.29,3.43-1.12,3.67-3.38,1.16-.34,1.43-1.6,1.53-2.52a1.2,1.2,0,0,0,1.4-1c3,3,9.43,1.47,9.48-2.08.85,1.87,3.36,2.15,4.09.21-.09-.41,0-3.17-.06-3.51s-20.26-.18-20.33.51.22,11.73.22,11.73" style="fill:#f89f27"/><path d="M23.44,49.14A21.51,21.51,0,0,1,17,48.37c-.88-.3-5.26-1.91-5.26-5l.82-24.36c0-3,1.85-5,4.6-5H29.71c2.75,0,4.6,2,4.6,5l.82,24.33c0,3.07-4.38,4.68-5.26,5A21.48,21.48,0,0,1,23.44,49.14Zm-6.28-34c-2.64,0-3.58,2-3.58,4l-.82,24.35c0,2.39,4.09,3.82,4.56,4a20.81,20.81,0,0,0,6.12.72,20.83,20.83,0,0,0,6.11-.72c.47-.16,4.56-1.59,4.56-4l-.82-24.34c0-1.92-.94-4-3.58-4Z" style="fill:#563d33"/><path d="M18.79,27.35c0,1.16-.57,12.12.07,13.65a3.79,3.79,0,0,0,2.8,2.19c-2.38.12-7.49-1.58-7.8-3.47s.06-5.64,0-8.18c.84-.36,1.83-1.14,2.44-3.31,1.05-.25,1.47-1.53,1.53-2.52A1.78,1.78,0,0,1,18.79,27.35Z" style="fill:#fde165"/><path d="M15.06,18.61c.41-2,1.77-1.86,1.55-.29-.4,2.94-.34,22.07-.34,23a5.64,5.64,0,0,0,2.8,5.35c-3.34-.31-4.3-2.09-4.57-4.73C14.28,39.77,14.67,20.54,15.06,18.61Z" style="fill:#fffdf3"/><path d="M33.83,10.49a4.11,4.11,0,0,0-4-2.9,4.22,4.22,0,0,0-2.48.8A10,10,0,0,0,20,5.32c-5.07,0-8.82,3.09-8.82,7.23V13a5.56,5.56,0,0,0-2.81,4.92,5.78,5.78,0,0,0,1.85,4.32,3.11,3.11,0,0,0-.89,2.26,2.86,2.86,0,0,0,1.46,2.64,3.33,3.33,0,0,0-.1.78,2.29,2.29,0,0,0,2,2.51,2.29,2.29,0,0,0,2-2.51c0-.1,0-.2,0-.3.87-.28,1.52-1.56,1.52-3.11,0-.1,0-.2,0-.3a2.83,2.83,0,0,0,2.8-1.87,5.67,5.67,0,0,0,4.22,1.85,5.49,5.49,0,0,0,5.3-3.76,5.48,5.48,0,0,0,3.37,1.16,5.67,5.67,0,0,0,5.6-5.75A5.76,5.76,0,0,0,33.83,10.49Z" style="fill:#fff"/><circle cx="18.59" cy="31.21" r="1.08" style="fill:#fff"/><circle cx="20.54" cy="28.93" r="0.59" style="fill:#fff"/><circle cx="20.54" cy="34.11" r="0.48" style="fill:#fff"/><path d="M28.89,11.21c5-1.5,6.52,1.78,6.79,3.38A4,4,0,0,1,33.3,19.2c-1.88.79-4.91,0-5.7-1.36.19,1-3.06,8.12-9.19,3,0,1.4-2.07,3.69-3.76,2.83.41,1.19.68,3-.78,3a1.47,1.47,0,0,1-1,2c-1,.33-1.75-.36-1.58-1.76-.95,1.43-.1,3.49,1.4,3.51a2.18,2.18,0,0,0,2-2.51c.49-.6,1.76-2,1.49-3.71.38.16,2.7-.54,2.8-1.88,1.95,1.4,7.41,3.19,9.52-1.9,1,.62,6.45,3,8.65-2.68,1.68-4.32-2.4-7.15-3.24-7.27C32.51,10.26,31.82,9.57,28.89,11.21Z" style="fill:#e2d3af"/><path d="M12.25,9.06c5-4.58,12.38-3.46,14.46,1.57.07-.3.2-1.29.71-1.5C27,5.55,16.75,2.43,12.25,9.06Z" style="fill:#e2d3af"/><path d="M26.71,10.63c.69-2.28,4.09-2.66,5.63.14.68-.92,1.88.72,1.81,0s-2.7-4.67-6.45-2.65C26.3,8.9,26.67,10,26.71,10.63Z" style="fill:#e2d3af"/><path d="M9,20.59c.17.37.51,2.65,2.5,2.2-1.62-.34-2.61-2.85-2.94-5.66C8.44,16.33,8.9,20.4,9,20.59Z" style="fill:#c5ba88"/><path d="M11.17,13a3.23,3.23,0,0,1,4.73-.64c.27.24,1,1,.49,1.55C15.71,13.38,13.2,11.69,11.17,13Z" style="fill:#e2d3af"/><path d="M10.79,22.2c-.73-.18-2.91,3.82.47,4.69-.78-.52-2.24-2.08.27-4.1C10.78,22.7,10.81,22.28,10.79,22.2Z" style="fill:#e2d3af"/><path d="M8.41,17.13c.32,5.9,6.45,8.51,10,3.72,0,2.55-.71,3.48-3.52,3.69C11.91,24.77,8.16,21.08,8.41,17.13Z" style="fill:#e2d3af"/><path d="M12.66,30.91a2.8,2.8,0,0,1-2.49-3,4.53,4.53,0,0,1,0-.52,3.46,3.46,0,0,1-1.4-2.9,3.66,3.66,0,0,1,.71-2.23,6.35,6.35,0,0,1-1.66-4.35,6.12,6.12,0,0,1,2.81-5.22v-.16c0-4.41,4-7.74,9.33-7.74a10.62,10.62,0,0,1,7.48,2.92A4.71,4.71,0,0,1,29.88,7a4.63,4.63,0,0,1,4.39,3,6.29,6.29,0,0,1-2.45,12,5.91,5.91,0,0,1-3.12-.88,6.09,6.09,0,0,1-5.55,3.48,6.16,6.16,0,0,1-4.09-1.52,3.24,3.24,0,0,1-2.42,1.52,3.89,3.89,0,0,1-1.49,3.24A2.8,2.8,0,0,1,12.66,30.91ZM20,5.79c-4.73,0-8.3,2.89-8.3,6.72v.43l0,.33-.29.15a5.05,5.05,0,0,0-2.54,4.47,5.24,5.24,0,0,0,1.68,3.94l.42.37-.41.38a2.63,2.63,0,0,0-.73,1.89A2.34,2.34,0,0,0,11,26.64l.39.18-.11.42a2.82,2.82,0,0,0-.08.65c0,1.1.66,2,1.47,2s1.46-.9,1.46-2a2,2,0,0,0,0-.25l0-.41.39-.12c.57-.19,1.16-1.23,1.16-2.63v-.27l0-.56.56,0a2.33,2.33,0,0,0,2.31-1.57l.32-.74.53.6a5.12,5.12,0,0,0,3.84,1.69A5,5,0,0,0,28,20.24l.22-.7.59.45a4.94,4.94,0,0,0,3.05,1.06,5.26,5.26,0,0,0,1.85-10.12l-.23-.1-.07-.24a3.6,3.6,0,0,0-3.49-2.53,3.68,3.68,0,0,0-2.18.7L27.32,9,27,8.69A9.49,9.49,0,0,0,20,5.79Z" style="fill:#563d33"/><path d="M37.42,16.35a.51.51,0,0,1-.51-.51,5.17,5.17,0,0,0-5.13-5.2,5,5,0,0,0-1.28.16,5.1,5.1,0,0,0-1.8.87.51.51,0,0,1-.72-.1.5.5,0,0,1,.1-.71,5.91,5.91,0,0,1,2.17-1,6,6,0,0,1,1.53-.2,6.2,6.2,0,0,1,6.15,6.23A.51.51,0,0,1,37.42,16.35Z" style="fill:#563d33"/><path d="M8.36,18.46a.51.51,0,0,1-.51-.52c0-3.27,2.38-5.94,5.32-5.94a4.89,4.89,0,0,1,3.24,1.23.51.51,0,0,1,.06.72.52.52,0,0,1-.73.05,3.89,3.89,0,0,0-2.57-1c-2.37,0-4.3,2.21-4.3,4.92A.51.51,0,0,1,8.36,18.46Z" style="fill:#563d33"/><path d="M18.49,16.41c.29-2.29,1.54-4.61,4.94-3.68.59.21,1.53.3,1.45-.08-.13-.59-1.29-1.5-3.34-1.06C20.13,11.89,18.43,13.41,18.49,16.41Z" style="fill:#e2d3af"/><circle cx="11.16" cy="1.23" r="0.58" style="fill:#fff"/><path d="M11.16,2.07A.84.84,0,1,1,12,1.23.84.84,0,0,1,11.16,2.07Zm0-1.16a.32.32,0,0,0-.33.32.33.33,0,1,0,.66,0A.32.32,0,0,0,11.16.91Z" style="fill:#563d33"/><circle cx="9.68" cy="4.75" r="1.06" style="fill:#fff"/><path d="M9.68,6.07A1.32,1.32,0,1,1,11,4.75,1.33,1.33,0,0,1,9.68,6.07Zm0-2.13a.81.81,0,1,0,0,1.61.81.81,0,1,0,0-1.61Z" style="fill:#563d33"/><circle cx="19.27" cy="26.48" r="0.2" style="fill:#fff"/><path d="M16.34,19.11a1.79,1.79,0,0,0-1.51,2.37,1.36,1.36,0,0,1-.52-1.09C14.32,19.26,15.46,19,16.34,19.11Z" style="fill:#e2d3af"/><circle cx="11.82" cy="27.17" r="0.29" style="fill:#fff"/><path d="M35.57,36.72a1.91,1.91,0,0,1-1.64-.79l.85-.56a1,1,0,0,0,1.08.3c2.85-.5,3.18-1.46,3.58-2.58a18.26,18.26,0,0,0-.09-6.15c-.28-1.17-2.72-1.47-3.66-1.34a2.06,2.06,0,0,0-1.17.59l-1-.29c.24-.82,1.55-1.25,2-1.32,1.22-.17,4.34.2,4.8,2.13.35,1.51.52,5.39.06,6.69s-.94,2.68-4.38,3.28A2.38,2.38,0,0,1,35.57,36.72Z" style="fill:#563d33"/></svg>
